<?xml version="1.0" encoding="utf-8"?>
<!-- Generator: Adobe Illustrator 22.0.0, SVG Export Plug-In . SVG Version: 6.00 Build 0)  -->
<svg version="1.1" id="Calque_1" xmlns="http://www.w3.org/2000/svg" xmlns:xlink="http://www.w3.org/1999/xlink" x="0px" y="0px"
	 viewBox="0 0 432 432" style="enable-background:new 0 0 432 432;" xml:space="preserve">
<style type="text/css">
	.st0{fill:#BA874D;}
	.st1{fill:#008D36;}
	.st2{fill:#BE1622;}
	.st3{fill:#F39200;}
	.st4{fill:#634E42;}
	.st5{fill:#FFFFFF;}
	.st6{fill:#9B191E;}
	.st7{fill:#E99F2E;}
	.st8{fill:#D4870C;}
	.st9{fill:#9E191F;}
	.st10{fill:#C91517;}
	.st11{fill:#BE1919;}
	.st12{fill:#E6332A;}
	.st13{fill:#005F2D;}
	.st14{fill:#008639;}
	.st15{fill:#3AAA35;}
	.st16{fill:#00983B;}
	.st17{fill:#A81A17;}
	.st18{fill:#C7D6E1;}
	.st19{fill:#2CA949;}
	.st20{fill:#68B659;}
	.st21{fill:#CE8837;}
	.st22{fill:#8FAFD3;}
	.st23{fill:#878787;}
	.st24{fill:#936037;}
	.st25{fill:#A86D3E;}
	.st26{fill:#432918;}
	.st27{fill:#F6F6F6;}
	.st28{fill:#DB0D15;}
	.st29{fill:#683C11;}
	.st30{fill:#1D71B8;}
	.st31{fill:#29235C;}
	.st32{fill:#575756;}
	.st33{fill:#00A19A;}
	.st34{fill:#EDEDED;}
	.st35{fill:#2C8AB8;}
	.st36{fill:#B2B2B2;}
	.st37{fill:#C6C6C6;}
	.st38{fill:#2FAC66;}
	.st39{fill:#999999;}
	.st40{fill:#E68787;}
	.st41{fill:#95C11F;}
	.st42{fill:#F8C3C4;}
	.st43{fill:#EA5055;}
	.st44{fill:#C69B6A;}
	.st45{fill:#C29560;}
	.st46{fill:#CBBBA0;}
	.st47{fill:#CBB0A0;}
	.st48{fill:#EF7D81;}
	.st49{fill:#DCC2A4;}
	.st50{fill:#AE7A3E;}
	.st51{fill:#006633;}
	.st52{fill:#ABD194;}
	.st53{fill:#57B144;}
	.st54{fill:#B08048;}
	.st55{fill:#FDD5A8;}
	.st56{fill:#D41A27;}
	.st57{fill:#7B6A58;}
	.st58{fill:#FBDDDE;}
	.st59{fill:#D71927;}
	.st60{fill:#AE1921;}
	.st61{fill:#C49064;}
	.st62{fill:#D71016;}
	.st63{fill:#C11717;}
	.st64{fill:#E30613;}
	.st65{fill:#D61116;}
	.st66{fill:#CB1518;}
	.st67{fill:#BB1918;}
	.st68{fill:#A1191F;}
	.st69{fill:#4D3D34;}
	.st70{fill:#C8A5CE;}
	.st71{fill:#951B81;}
	.st72{fill:#2985BB;}
	.st73{fill:#448DC0;}
	.st74{fill:#007BB4;}
	.st75{fill:#4A94D0;}
	.st76{fill:#3A8FCD;}
	.st77{fill:#258ACA;}
	.st78{fill:#739AC0;}
	.st79{fill:#B11918;}
	.st80{fill:#E6C6A4;}
	.st81{fill:#F1E0CE;}
	.st82{fill:#42352C;}
	.st83{fill:#A08A7E;}
	.st84{fill:#B9B8B9;}
	.st85{fill:#A3A2A3;}
	.st86{fill:#D9D8D9;}
	.st87{fill:#CDCBCC;}
	.st88{fill:#80A1C5;}
	.st89{fill:#6391BA;}
</style>
<g>
	<path class="st26" d="M190.4,106.9c7-20.1,15.2-41.5,10.2-40.9c-5.4,0.7-7,15.2-8.7,14.8c-1.8-0.4-6.2-19.8-11.4-15.4
		s5,22.5,2.6,24.4c-2.4,1.8-9.6-11.9-15-8.1c-5.4,3.8,9.2,13.2,12.2,21.2c3.1,8-3.3,20-7.8,21.6c-4.5,1.7-2.5-18.7-9.9-17.7
		c-7.5,1-0.4,9.1,1,24.5c0.2,2.5,0.3,5,0.2,7.5c0,0.9,0,1.9-0.3,2.7c-0.3,0.9-1.3,1.6-1.4,2.6c0,0.7,0.5,1.3,1.1,1.6
		c0.6,0.3,1.3,0.3,2,0.3c0.7,0,1.3,0,2,0c1.7,0,3.5,0,5-0.9c0.7-0.4,1.4-1.1,1.4-2c0-0.4-0.1-0.8,0-1.2c0.1-0.2,0.3-0.4,0.4-0.5
		c2.5-2.4,3.7-5.9,5.8-8.7c2.3-3.1,5.4-5.6,7.8-8.6c12.7-11.7,18.9-20.7,15.6-22.6C199.1,99.2,189.1,110.4,190.4,106.9z"/>
	<g>
		<path class="st0" d="M332,219.7c-0.6-3.7,2.8-7.1,0-9.9c-2.8-2.9-4.4,8.9-19.7,4.1c-15.3-4.8-47.1-0.8-84.3,0
			c-37.3,0.8-34.8-24.6-34.8-24.6c0-21.6,4.1-37.2-7.8-49.4c-11.9-12.2-31.5-2.4-49.8,15.6c-18.3,18-37.1,14.7-31.5,31.5
			c5.5,16.8,50.9,13.6,50.9,13.6c6.3-0.7,17.8,3.1,18,11.7c0.1,8.2-8.6,19.8-4.7,38.7c-11.5,6.9-40,24.3-39.6,25.6
			c0.5,1.7,7.5,46.2,7.5,46.2l11.2-2l-4.9-40l28.7-8.9c2.6,28.1,6.9,75.9,7.4,89.5h10.6c0,0-2.4-56.9-0.2-84.9
			c17.8,5.5,41.9-3.6,54.3-3.6c6.7,0,12.2,0.8,16.8,1.9c1.6,3.5,4.3,7.4,8.5,11.6c22.7,22.7,13.3,80.8,13.3,80.8l10.9-0.3
			c0,0-0.1-2-0.3-5.4h9.5c0,0-2.3-54.6-0.4-83.2c17.9-11.3,22.6-35.2,22.9-39.2c0.4-5.1,4.2-3.3,3.5-6.7c-0.7-3.4,0.7-2.8,4.9-4.9
			C337.3,225.3,332.6,223.4,332,219.7z"/>
		<g>
			<path class="st54" d="M169.9,256.8c-0.4-1.2-0.8-2.4-1.1-3.7c-0.2-0.7-0.3-1.4-0.5-2.1v0c0,0,0,0,0,0c0,0-0.1,0-0.1,0.1l-0.2,0.1
				l-0.1,0.1c-0.1,0-0.1,0.1-0.2,0.1c0,0,0,0,0,0v0c-0.3,0.2-0.6,0.4-0.9,0.6c0.1,0.4,0.2,0.7,0.3,1.1c0.3,1.4,0.8,2.7,1.2,3.9
				c0.4,3.8,0.9,9.2,1.4,15.6l1.6-0.5c0,0,0,0,0,0C170.8,265.7,170.3,260.5,169.9,256.8z"/>
			<path class="st54" d="M293,282.4c-2,23.6-1.4,52-0.7,69.1h1.6c-0.7-16.9-1.3-44.8,0.6-68.3c2.6-0.9,5-2.1,7.2-3.5
				c0-0.5,0.1-1,0.1-1.4C299.2,280,296.2,281.4,293,282.4z"/>
			<path class="st54" d="M260.3,274.8C260.3,274.8,260.3,274.8,260.3,274.8c-5.7-12.3,2.2-22.3,5.8-24.2l-1-0.5
				C258,255.9,253.3,266,260.3,274.8z"/>
		</g>
	</g>
	<g>
		<path d="M147.5,321.1l-1.2-9.7l-11.7,1.2c0.8,5.3,1.7,10.6,1.7,10.6L147.5,321.1z"/>
		<path d="M302.2,361.5c0,0-0.2-3.8-0.4-9.9h-8h-1.6l0.2,6.1h-9.3c-0.5,5.9-1.1,9.6-1.1,9.6l10.9-0.3c0,0-0.1-2-0.3-5.4h1.6H302.2z"
			/>
		<path d="M189.4,361.7c0,0-0.2-4-0.3-9.4h-10.8c0.3,3.6,0.5,7.2,0.6,9.4H189.4z"/>
	</g>
	<g>
		<path class="st2" d="M97.2,180.6c-0.1-2.4,0.3-4.5,2-6.1c1.1-1.1,2.3-1.5,4-1.2c6.1,1.2,7.2,7,5.1,11c-1.3,2.5-3.7,2.6-5.9,2.5
			C98.8,186.5,97.2,185.6,97.2,180.6z"/>
		<path d="M149.7,165.6c-0.9-4.2,4.1,3.2,10.8,1.9c5.7-1.1,7.6-11.9,8.3-6.6C169.8,170.4,155.1,175.7,149.7,165.6z"/>
	</g>
	<path class="st29" d="M207.8,113.1c13.1-16.7,27.9-34.3,22.9-35.3c-5.3-1.1-11.5,12.1-13.1,11.1c-1.5-0.9,0.6-20.7-5.8-18.2
		c-6.4,2.5-2.6,22.9-5.4,23.9c-2.9,1-5.2-14.4-11.6-12.5c-6.3,1.8,4.4,15.5,4.7,24c0.3,8.5-9.6,17.8-14.4,17.9
		c-4.8,0.1,3.7-18.5-3.7-19.9c-7.4-1.5-3.3,8.5-7,23.5c-0.6,2.4-1.3,4.8-2.3,7.1c-0.3,0.8-0.6,1.8-1.1,2.5c-0.6,0.8-1.8,1.1-2.2,2
		c-0.3,0.6,0.1,1.4,0.6,1.9c0.5,0.5,1.2,0.7,1.8,0.9c0.6,0.2,1.3,0.4,1.9,0.7c1.6,0.6,3.3,1.1,5,0.8c0.8-0.2,1.7-0.6,2-1.4
		c0.1-0.4,0.1-0.8,0.4-1.1c0.2-0.2,0.4-0.3,0.6-0.4c3.1-1.4,5.5-4.3,8.3-6.3c3.2-2.2,7-3.5,10.2-5.6c15.8-7,24.6-13.4,22.1-16.3
		C218.5,108.6,205.5,116,207.8,113.1z"/>
	<path class="st55" d="M328.2,232.3c-0.7-3.4,0.7-2.8,4.9-4.9c4.2-2.2-0.5-4-1.1-7.7c-0.6-3.7,2.8-7.1,0-9.9
		c-0.4-0.5-0.9-0.5-1.3-0.4c-0.2,0.6-0.3,1.2-0.4,1.7c-0.3,1.6-0.3,3.3-0.8,4.8c-0.6,1.5-1.6,2.8-2,4.4c-0.3,1.3-0.1,2.7-0.4,4
		c-0.4,2.2-2,3.9-2.8,5.9c-0.4,1.1-0.6,2.4-0.4,3.6c0.2,1.6,0.8,3.1,0.9,4.6C325.5,234.1,328.9,235.6,328.2,232.3z"/>
	<g>
		<path class="st56" d="M163.3,207.9c6.4-2.8,23.4-11,33.4-20.9c1.9-1.9,5.1-1.7,6.7,0.5c2.2,2.9,4.7,6.9,4.8,10.7
			c0.2,7-32.2,27.6-39.5,26c-5.7-1.2-8.1-7.1-8.3-11.7C160.3,210.5,161.5,208.7,163.3,207.9z"/>
		<path class="st2" d="M248,176.1c0,0,6.3-1.1,10.7,0.3c0,0,0.2,1-4.2,7.4c28.9-14.6,17.5,27.8-12.1,24.3
			c-13.9-1.7-25.4-9.8-35.8-15.6c-3.6-2-7.1-3.7-10.6-4.8c-3.5-1.1-6.9-1.5-10.4-0.9c-13.2,2.4-11.6,11.6-10.4,15.3
			c0.2-0.1,0.4-0.2,0.6-0.3c0.1-2.4,0.4-6.4,2.1-6.9c0.5-0.1,2.3,0.9,5.1,2.7c4,2.5,10.1,6.5,17.5,10.3c21.5,11.3,53.8,22,76.6-5
			C300.1,175.6,261.6,160.8,248,176.1z"/>
		<path class="st6" d="M175.8,201.7c0.1-2.4,0.4-6.4,2.1-6.9c0.5-0.1,2.3,0.9,5.1,2.7C180.6,199,178.2,200.4,175.8,201.7z"/>
	</g>
</g>
</svg>
