<?xml version="1.0" encoding="utf-8"?>
<!-- Generator: Adobe Illustrator 22.0.0, SVG Export Plug-In . SVG Version: 6.00 Build 0)  -->
<svg version="1.1" id="Calque_1" xmlns="http://www.w3.org/2000/svg" xmlns:xlink="http://www.w3.org/1999/xlink" x="0px" y="0px"
	 viewBox="0 0 432 432" style="enable-background:new 0 0 432 432;" xml:space="preserve">
<style type="text/css">
	.st0{fill:#066938;}
	.st1{fill:#9F1E29;}
	.st2{fill:#571419;}
	.st3{fill:none;}
	.st4{fill:#C68448;}
	.st5{fill:#8C633A;}
	.st6{fill:#D79A5D;}
	.st7{fill:#A5C0DF;}
	.st8{fill:#36502D;}
	.st9{fill:#C8261D;}
	.st10{fill:#808181;}
	.st11{fill:#519C37;}
	.st12{fill:#FCEE69;}
	.st13{fill:#EC8C37;}
	.st14{fill:#5877B1;}
	.st15{fill:#7B1523;}
	.st16{fill:#4F0D1C;}
	.st17{fill:#BF333D;}
	.st18{fill:#E7373D;}
	.st19{fill:#972021;}
	.st20{fill:#F2F2F2;}
	.st21{fill:#F3D4AA;}
	.st22{fill:#A67D52;}
	.st23{fill:#B59063;}
	.st24{fill:#020203;}
	.st25{fill:#FFFFFF;}
	.st26{fill:#E7E6E6;}
	.st27{fill:#9A9999;}
	.st28{fill:#B4B4B4;}
	.st29{fill:#C9913E;}
	.st30{fill:#D6A14D;}
	.st31{fill:#E2A1BC;}
	.st32{fill:#C1292E;}
	.st33{fill:#82171C;}
	.st34{fill:#CDCCCC;}
	.st35{fill:#D06C5D;}
	.st36{fill:#79986F;}
	.st37{fill:#DAA405;}
	.st38{fill:#EDCBA9;}
	.st39{fill:#405045;}
	.st40{fill:#8B2F2F;}
	.st41{fill:#1D2E1C;}
	.st42{fill:#D4BB78;}
	.st43{fill:#3C1014;}
	.st44{fill:#731633;}
	.st45{fill:#3F0D26;}
	.st46{fill:#E3EBF8;}
	.st47{fill:#D2DFEF;}
	.st48{fill:#B88E5C;}
	.st49{fill:#A81735;}
	.st50{fill:#4AA8A8;}
	.st51{fill:#94B947;}
	.st52{fill:#A8C4D3;}
	.st53{fill:#9F1A18;}
	.st54{fill:#4F6325;}
	.st55{fill:#BAC463;}
	.st56{fill:#8C694B;}
	.st57{fill:#8A9A66;}
	.st58{fill:#DDDDC3;}
	.st59{fill:#3F668A;}
	.st60{fill:#1B1B1B;}
	.st61{fill:#FFF0BA;}
	.st62{fill:#C69C6C;}
	.st63{fill:#603914;}
	.st64{fill:#114923;}
	.st65{fill:#961F27;}
	.st66{fill:#BB870E;}
	.st67{fill:#C51720;}
	.st68{fill:#449494;}
	.st69{fill:#417675;}
	.st70{fill:#ABCFAF;}
	.st71{fill:#66B2B0;}
	.st72{fill:#F9B03D;}
	.st73{fill:#754D24;}
	.st74{fill:#F6F6F6;}
	.st75{fill:#BA181A;}
	.st76{fill:#AD191C;}
	.st77{fill:#161515;}
	.st78{fill:#1E1E1C;}
	.st79{fill:#0E472B;}
	.st80{fill:#D3C29D;}
	.st81{fill:#CC2717;}
	.st82{fill:#A81916;}
	.st83{fill:#805129;}
	.st84{fill:#F39323;}
	.st85{fill:#B56B20;}
	.st86{fill:#E52629;}
	.st87{fill:#7B9EC7;}
	.st88{fill:#48515A;}
	.st89{fill:#DED3C6;}
	.st90{fill:#3B444E;}
	.st91{fill:#6189B1;}
	.st92{fill:#97B8D7;}
	.st93{fill:#715038;}
	.st94{fill:#A3282E;}
	.st95{fill:#110506;}
	.st96{fill:#F3E4D4;}
	.st97{fill:#F4DCC9;}
	.st98{fill:#676767;}
	.st99{fill:#E0EDF3;}
	.st100{fill:#90443F;}
	.st101{fill:#989389;}
	.st102{fill:#F0DABE;}
	.st103{fill:#4F382A;}
	.st104{fill:#009245;}
	.st105{fill:#064928;}
</style>
<g>
	<g>
		<path class="st53" d="M335.3,68.6c0.6-1.6,1.9-2.6,3.4-3.3c1.7-0.7,3.4-0.7,4.9,0.4c1.8,1.3,3.1,3,3.8,5.1c0.5,1.7,0.1,3.2-1,4.5
			c-2.5,3-6.8,3.2-9.6,0.5c-0.4-0.4-0.8-0.7-1.2-1.1c-0.3,0.5-0.7,1.1-1,1.7c-1.5,2.3-3,4.7-4.5,7c-1,1.6-1.8,3.3-2.2,5.2
			c-0.1,0.3,0,0.6,0.2,0.8c0.4,0.5,0.7,1,1.1,1.6c0,0,0.1,0,0.2,0c3.3-0.6,6.6-1.4,9.8-2.7c3-1.2,5.7-3,8-5.3c1-1,1.9-2.2,2.3-3.6
			c0.1-0.2,0.2-0.5,0.4-0.7c0.5-0.5,1.3-0.2,1.5,0.5c0.1,0.6,0.2,1.3,0.1,1.9c-0.7,5.8-3.1,10.7-7.6,14.5c-1.7,1.4-3.6,2.4-5.7,3.2
			c-0.2,0.1-0.3,0.1-0.5,0.2c0,0-0.1,0.1-0.1,0.1c1.6,1.6,3.1,3.3,4.7,4.9c1.7,1.7,3.8,2.9,6.2,3.5c0.5,0.1,1,0.2,1.4,0.2
			c0.8,0.1,1.2,0.6,1,1.4c-0.1,0.4-0.3,0.9-0.5,1.2c-0.5,0.7-1.1,1.3-1.7,1.8c-1.8,1.5-4,2.6-6.2,3.3c-0.2,0.1-0.4,0.1-0.7,0.2
			c0,0-0.1,0-0.2,0.1c0.2,0.3,0.4,0.6,0.6,0.9c1.8,2.3,4.1,3.6,6.9,4.1c0.5,0.1,1,0.1,1.5,0.2c1.3,0.2,1.7,1.1,0.9,2.2
			c-0.2,0.3-0.5,0.5-0.8,0.8c-2.3,2-4.9,3.2-7.9,3.6c-1,0.1-2,0.2-3.1,0.4c0.2,0.4,0.3,0.7,0.5,1c1.1,2,2.8,3.3,4.9,4
			c1.1,0.4,2.3,0.7,3.4,0.9c1.2,0.2,1.8,1.2,1.1,2.4c-0.3,0.5-0.6,0.9-1.1,1.3c-0.5,0.5-1.1,0.9-1.7,1.3c0,0.1,0.1,0.2,0.1,0.2
			c1.2,1.5,2.2,3.1,3,4.9c1.4,3.1,2.6,6.2,3.1,9.5c0,0.2,0.1,0.5,0.2,0.6c1.6,2.5,2.5,5.3,3.1,8.2c0.6,2.6,0.8,5.2,1.1,7.9
			c0.6,5.4-0.6,10.6-2.2,15.8c-0.8,2.5-1.7,4.9-3.1,7.1c-0.5,0.7-1,1.4-1.5,2c-0.5,0.6-1.1,1-2,1.2c-0.2,0.7-0.3,1.3-0.5,1.9
			c-0.6,1.9-1.5,3.6-2.6,5.3c-1.9,3-4.1,5.8-7,8c-2,1.5-4.2,2.8-6.8,3.4c-1,0.2-2.1,0.3-3.1,0.3c-0.2,0-0.4,0-0.6-0.1
			c-2-0.4-2.9-1.8-2.2-3.8c0.5-1.3,1.1-2.6,1.7-3.9c1.2-2.4,2.6-4.7,3.8-7.1c1.2-2.5,2.3-5,3.1-7.6c0.1-0.2,0.1-0.4,0.2-0.7
			c0,0,0-0.1-0.1-0.3c-2.6,4.7-6,8.7-9.8,12.4c-3.8,3.7-8.2,6.4-13,8.7c0.7,2.2,1.3,4.3,1.9,6.4c0.3,1.1,0.6,2.3,0.7,3.4
			c0.1,0.9,0,1.8-0.3,2.7c-0.5,1.7-2.2,2.1-3.4,0.7c-0.5-0.6-0.9-1.4-1.3-2.2c-0.5-0.9-0.9-1.9-1.4-2.8c0,0-0.1-0.1-0.2-0.2
			c-0.1,0.4-0.2,0.7-0.3,1c-0.3,0.8-0.6,1.7-0.9,2.4c-0.3,0.6-0.7,1.2-1.5,1.2c-0.8,0-1.1-0.5-1.4-1.1c-0.3-0.7-0.6-1.4-0.9-2.1
			c-0.1,0.2-0.3,0.3-0.4,0.5c-0.2,0.2-0.5,0.5-0.7,0.7c-1.1,0.8-2.2,0.3-2.3-1c-0.1-0.6,0-1.1,0.1-1.7c0.4-1.3,0.8-2.5,1.2-3.7
			c0.1-0.4,0.3-0.7,0.4-1.2c-2.3,0.1-4.4-0.3-6.5-1.3c0.2,0.4,0.3,0.7,0.4,1c0.8,1.8,1.5,3.6,1.8,5.5c0.1,0.6,0.1,1.2-0.1,1.7
			c-0.2,1-1.1,1.3-1.9,0.6c-0.4-0.3-0.8-0.8-1.2-1.2c-0.3-0.3-0.5-0.6-0.8-1c-0.1,0.6-0.2,1-0.3,1.4c-0.1,0.5-0.2,1-0.4,1.4
			c-0.5,1.1-1.4,1.3-2.3,0.6c-0.6-0.5-1-1.2-1.3-1.9c-0.1-0.3-0.2-0.7-0.4-1.1c-0.2,0.5-0.4,0.8-0.6,1.2c-0.6,1-1.4,1.7-2.5,1.8
			c-1.3,0.2-2.4-0.6-2.5-2c0-0.7,0.1-1.5,0.2-2.2c0.3-1.4,0.9-2.7,1.5-3.9c1.1-2.1,2-4.2,2.5-6.6c-0.2-0.1-0.3-0.3-0.5-0.4
			c-3.5-3-6.6-6.5-9.3-10.2c-1.7-2.3-2.9-4.9-3.8-7.6c-0.1-0.3-0.2-0.6-0.4-0.8c0,2.2,0.3,4.4,0.9,6.5c1.1,3.9,3.1,7.3,5.4,10.6
			c0.4,0.5,0.7,1.1,1,1.6c0.7,1.4,0,2.7-1.5,2.9c-0.8,0.1-1.6,0-2.4-0.1c-2.2-0.3-4.2-1.1-6.3-1.9c-5.5-2.1-10.5-5-15.1-8.7
			c-5-4-8.1-9.2-9.3-15.5c-0.5-2.4-0.6-4.8-0.5-7.2c0.1-1.4,0-2.8-0.3-4.1c-0.6-2.8-0.4-5.6,0-8.4c0.4-2.4,1-4.8,2-7.1
			c1-2.1,2.3-4,3.8-5.8c1-1.2,2.1-2.2,3.2-3.4c0.2-0.2,0.4-0.5,0.5-0.8c0.6-3.3,2.4-5.8,4.8-8c0.5-0.4,1-0.8,1.6-1.3
			c-0.3-0.1-0.6-0.1-0.8-0.2c-1.4-0.2-2.7-0.4-4-0.9c-0.3-0.1-0.6-0.3-0.9-0.5c-0.5-0.4-0.6-1.1-0.2-1.6c0.2-0.3,0.5-0.5,0.7-0.7
			c0.8-0.6,1.6-1.1,2.4-1.6c1.5-1,2.9-2.3,3.9-3.8c0.9-1.3,1.7-2.6,2.5-3.9c0.5-0.8,0.9-1.7,1-2.7c-0.1,0-0.2,0-0.3,0
			c-2.5,1.1-4.9,0.8-7.4-0.1c-1-0.3-2-0.8-2.7-1.5c-0.4-0.4-0.8-0.8-1.1-1.3c-0.5-0.9-0.2-1.7,0.8-2.1c0.5-0.2,0.9-0.2,1.4-0.4
			c0.9-0.3,1.9-0.5,2.8-0.8c1.8-0.5,3.3-1.5,4.6-2.8c0.5-0.5,1-1.1,1.6-1.8c-0.8-0.1-1.4-0.1-2-0.2c-1.6-0.2-3.1-0.6-4.5-1.4
			c-0.6-0.3-1.1-0.7-1.6-1.1c-0.4-0.3-0.7-0.8-0.9-1.2c-0.4-0.8-0.2-1.5,0.6-1.9c0.3-0.2,0.6-0.3,0.9-0.4c2.2-0.9,4.2-2.2,6.1-3.7
			c1-0.8,2-1.7,3-2.5c0.8-0.7,1.6-1.3,2.5-2.1c-0.2-0.1-0.5-0.3-0.7-0.4c-1.5-0.8-3-1.7-4.3-2.8c-3.3-2.9-5.3-6.5-6-10.8
			c-0.2-1.1-0.1-2.2-0.1-3.3c0-0.3,0.1-0.6,0.1-0.8c0.1-0.4,0.4-0.6,0.8-0.7c0.4-0.1,0.7,0.1,0.9,0.5c0.1,0.2,0.2,0.3,0.3,0.5
			c1,2.2,2.5,3.9,4.4,5.3c1.5,1.2,3.1,2.3,4.8,3c1.6,0.7,3.2,1,4.9,1.2c2.3,0.2,4.6,0.3,6.8,0.5c0.3,0,0.6,0,1,0
			c0.2-1.4,1-2.6,1.9-3.8c2.3-3.1,5.2-4.9,9.1-5c0.5,0,0.7-0.3,0.9-0.5c2.3-2.6,4.7-5,7.5-7.1c4.2-3,8.8-4.9,13.9-5.7
			c2.4-0.4,4.8-0.6,7.2-0.8c3.1-0.3,6.1-0.4,9.2-0.3c0.6,0,1.3,0,1.9,0.2C334.2,68.1,334.7,68.4,335.3,68.6z M282.6,139.6
			c0,0.4,0.1,0.8,0.1,1.2c-0.1,1.5-0.1,2.9-0.3,4.4c-0.7,5.1-1.8,10.2-3.7,15c-1,2.8-2.2,5.5-3.9,8c-0.4,0.5-0.6,1.1-0.6,1.8
			c-0.2,1.3-0.4,2.6-0.5,3.9c-0.3,2.9-0.7,5.8-0.9,8.7c-0.3,3.7-0.2,3.6,0.7,6.7c1.4,4.4,3.5,8.4,6.6,11.8c1.6,1.8,3.3,3.6,5,5.3
			c2.6,2.6,5.7,4.7,9.1,6.4c0.9,0.5,1.9,0.8,2.9,1.1c2.3,0.7,4.6,0.5,6.9-0.1c3.2-0.8,6.2-2,9.1-3.6c3.1-1.7,6.1-3.5,8.7-5.9
			c4.6-4.2,8.4-8.9,11.6-14.1c0.5-0.9,0.9-1.9,1.4-2.8c0.2-0.4,0.2-0.7,0.1-1.1c-0.1-0.7-0.1-1.4-0.1-2.1c0-4.7-0.3-9.5-1-14.2
			c-0.2-1.5-0.6-3.1-0.9-4.6c-0.1-0.3-0.1-0.5-0.4-0.6c-1-0.5-1.6-1.3-1.9-2.3c-0.3-0.9-0.7-1.8-0.9-2.7c-0.7-2.6-1.3-5.2-2.1-7.8
			c-1-3.4-2.1-6.8-3.2-10.3c-0.3-0.8-0.6-1.6-0.8-2.3c-1.4-0.1-2.6-0.2-3.9-0.4c-1.2-0.2-2.4-0.5-3.6-0.8c-0.2,0.2-0.5,0.4-0.7,0.6
			c-3.7,4-6.6,8.5-8.3,13.8c-0.8,2.6-1.4,5.2-1.8,7.8c-0.3,2.1-0.6,4.3-1,6.4c0,0.2-0.1,0.3-0.1,0.4c-0.2,0.4-0.5,0.5-0.9,0.5
			c-0.4,0-0.7-0.2-0.8-0.6c-0.1-0.2-0.1-0.4-0.1-0.6c-0.1-0.7-0.2-1.5-0.4-2.2c-0.6-2.6-1.5-5.2-2.4-7.7
			c-2.4-6.9-6.2-13.1-10.9-18.7c-0.2-0.2-0.4-0.4-0.5-0.5C286.4,138.2,284.6,138.9,282.6,139.6z M259.9,84.2c-0.1,0-0.1,0-0.2,0.1
			c0.8,4.6,2.8,8.4,6.7,11.1c2.9,2,6,3.2,9.4,3.8c2.5,0.5,5,0.7,7.6,0.9c0.3,0,0.5,0,0.8,0.1c2.4,0.3,4.5,1.3,6.5,2.4
			c1.8,1.1,3.4,2.3,4.8,4c1.1,1.3,2.3,2.5,3.4,3.8c1.3,1.4,2.4,2.9,3.3,4.5c0.2,0.3,0.4,0.7,0.7,1.1c0.2-0.3,0.3-0.5,0.4-0.7
			c1.2-2.3,2.6-4.4,4.4-6.3c1.1-1.2,2.2-2.5,3.2-3.8c1.4-1.8,3-3.3,5.1-4.3c1.8-0.8,3.6-1.5,5.5-1.9c1.7-0.3,3.4-0.6,5.1-0.3
			c1,0.2,2,0.1,3,0c1.7-0.3,3.4-0.6,5.1-0.8c3.1-0.5,5.8-1.8,8.2-3.8c3.2-2.6,5.1-6.1,6.2-10c0-0.1,0-0.2,0-0.3
			c-0.1,0.1-0.2,0.1-0.2,0.1c-2.9,3.2-6.5,5.3-10.6,6.7c-4.7,1.7-9.6,2.5-14.5,3.1c-2.8,0.3-5.7,0.6-8.5,0.9c-2.8,0.4-5.5,1.1-8,2.4
			c-2.4,1.2-4.5,2.9-5.6,5.4c0,0,0,0,0,0.1c-0.3,0.5-0.6,0.5-1,0.1c-0.2-0.2-0.3-0.5-0.5-0.7c-2.7-4.5-6.5-7.4-11.7-8.4
			c-2.1-0.4-4.3-0.5-6.5-0.7c-2.7-0.2-5.3-0.3-8-0.5c-1.8-0.1-3.5-0.5-5.2-1.2c-3.4-1.5-6.2-3.7-8.5-6.6
			C260.1,84.3,260,84.2,259.9,84.2z M326.3,88c0-0.1,0.1-0.2,0.1-0.4c0-0.9,0.3-1.8,0.7-2.6c0.6-1.1,1.2-2.3,1.8-3.4
			c1.4-2.3,2.9-4.6,4.3-6.9c0.5-0.8,0.8-1.6,1.1-2.4c0.2-0.5,0.1-1.1,0-1.7c-0.2-0.5-0.5-0.8-1-0.8c-0.6-0.1-1.1-0.1-1.7-0.1
			c-2.5,0-4.9,0-7.4,0.1c-2.9,0.1-5.7,0.4-8.5,0.8c-4.9,0.8-9.4,2.6-13.4,5.4c-2.5,1.7-4.6,3.8-6.7,6c-0.1,0.1-0.1,0.2-0.2,0.3
			c0.1,0,0.2,0.1,0.3,0.1c2.3,0.3,4.5,0.8,6.7,1.5c2,0.6,3.9,1,5.9,1.5c2.6,0.6,5.3,1.1,8,1.4c2.2,0.2,4.3,0.4,6.5,0.7
			C324,87.6,325.1,87.8,326.3,88z M349.2,122.6c-0.9-0.2-1.7-0.3-2.4-0.5c-3-0.8-5.3-2.6-6.8-5.3c-0.8-1.4-0.4-2.2,1.1-2.6
			c1.7-0.4,3.3-1.1,4.7-2c0.9-0.6,1.7-1.2,2.5-1.9c0.3-0.2,0.6-0.5,0.7-1c-0.5-0.1-0.9-0.2-1.3-0.3c-2.7-0.7-4.9-2.1-6.8-4.1
			c-1-1-1.9-2.1-2.9-3.2c-0.5-0.5-1-1-1.5-1.5c-0.5-0.5-1-0.6-1.7-0.4c-0.9,0.2-1.9,0.4-2.8,0.5c-0.2,0-0.4,0.1-0.6,0.1
			c0,0.1,0,0.1,0.1,0.1c0.1,0.1,0.2,0.2,0.3,0.2c1.4,1,2.5,2.3,3.4,3.8c2.5,4.3,3.5,8.9,2.6,13.9c-0.7,4.1-3,7.2-6.6,9.2
			c-2,1.1-4.1,1.8-6.3,2.3c-0.2,0-0.4,0.1-0.7,0.2c0.1,0.3,0.1,0.6,0.2,0.8c0.7,1.7,1.6,3.3,2.8,4.8c0.3,0.4,0.7,0.8,1.1,1.1
			c1.6,1.3,3.4,2.2,5.5,2.7c1.4,0.3,2.8,0.5,4.2,0.4c2.8-0.4,5.4-1.5,7.9-2.8c0.5-0.3,0.9-0.7,1.4-1c0.1-0.1,0.2-0.3,0.4-0.5
			c-1.1-0.3-2.1-0.5-3-0.8c-1.6-0.5-3-1.3-4.3-2.4c-1.2-1.1-2.1-2.3-2.6-3.9c-0.4-1.4,0.2-2.1,1.6-2.2c0.7,0,1.3-0.1,2-0.2
			c1.9-0.3,3.7-0.7,5.4-1.7C347.6,123.9,348.4,123.3,349.2,122.6z M274.8,139.9c-0.2,1.2-0.5,2.4-1,3.5c-0.5,1.1-1,2.1-1.6,3.2
			c-0.4,0.8-0.9,1.6-1.4,2.3c-2.4,4-5.2,7.7-7.8,11.5c-0.3,0.4-0.4,0.8-0.5,1.2c-0.1,2.6,0,5.1,0.7,7.6c0.6,1.9,1.2,3.8,2.2,5.5
			c0.2,0.4,0.4,0.8,0.8,1.1c0.4-0.4,0.8-0.7,1.1-1c0.4-0.4,0.8-0.9,1.2-1.4c3.7-4.3,6.7-9.1,8.6-14.5c1.8-5.4,3.2-10.9,3.7-16.5
			c0.1-0.8,0.1-1.7,0.2-2.5C279,139.9,276.9,139.9,274.8,139.9z M321.4,128.3c0.8-0.1,1.8-0.2,2.8-0.4c2.7-0.5,5.2-1.5,7.4-3.2
			c1.6-1.2,2.7-2.8,3.4-4.7c0.5-1.5,0.8-3,0.8-4.6c0-2.6-0.5-5-1.4-7.4c-0.7-1.8-1.7-3.4-3-4.7c-1.9-1.8-4.1-2.8-6.7-2.7
			c-1.9,0.1-3.8,0.6-5.6,1.3c-3.7,1.6-6.2,4.3-8.1,7.7c-2.2,4.1-2.3,8.3-0.6,12.6c0.4,1.1,1.1,2.1,2.1,2.8
			C314.9,127.2,317.9,128.1,321.4,128.3z M269.6,114.6c0,3.4,0.6,5.8,1.8,8.1c0.5,1,1.2,2,2.1,2.7c1.1,0.8,2.3,1.5,3.6,2
			c2.8,1,5.7,1.3,8.7,0.9c2.7-0.3,5.1-1.4,6.9-3.3c1.2-1.3,2-2.8,2.6-4.4c1.8-4.8,0.9-9.1-2.4-12.9c-2.1-2.4-4.9-3.9-8-4.6
			c-4.3-1-8.2,0-11.5,3C270.8,108.7,269.7,111.9,269.6,114.6z M278.4,210.7c-0.1-0.7-0.5-1.1-0.8-1.6c-1-1.6-2.1-3.1-3-4.7
			c-1.9-3.4-3.2-7-3.5-10.9c-0.1-2.2-0.1-4.5-0.1-6.7c0-0.4,0-0.7,0-1.1c-0.1,0.1-0.1,0.2-0.2,0.3c-0.4,1.9-0.7,3.9-1.1,5.8
			c-0.3,1.2-0.6,2.5-1.2,3.6c-0.8,1.5-2.1,2-3.7,1.4c-0.8-0.3-1.7-0.7-2.4-1.2c-3.2-2-5.6-4.8-7.1-8.2c-0.1-0.2-0.2-0.5-0.3-0.7
			c-1.3,0.7-1.8,0.7-3,0c-0.2-0.1-0.4-0.2-0.6-0.4c-2-1.3-3.5-3.1-4.7-5.2c-0.1-0.2-0.2-0.5-0.4-0.7c-0.1,1.9,0.1,4,0.7,6.5
			c0.9,3.7,2.4,7.1,4.9,10c1.5,1.7,3.1,3.3,4.9,4.6c5.2,3.9,10.9,6.8,17.1,8.8c1.2,0.4,2.5,0.5,3.8,0.8
			C277.9,210.9,278.2,210.8,278.4,210.7z M257.4,108.9c0.4,0.8,1.1,1.2,1.7,1.5c2.2,1,4.5,1.7,7,1.2c0.8-0.2,1.4,0.5,1.1,1.3
			c-0.2,0.6-0.5,1.2-1,1.7c-0.7,0.9-1.5,1.7-2.3,2.5c-1.2,1.2-2.7,2-4.3,2.5c-1.2,0.3-2.3,0.6-3.5,0.9c-0.2,0-0.4,0.1-0.7,0.2
			c0.5,0.4,0.9,0.8,1.4,1.1c1,0.6,2.1,0.9,3.3,1.1c2,0.4,3.9,0.2,5.7-1.1c0.1-0.1,0.2-0.1,0.3-0.2c0.6-0.2,1.1,0.1,1.2,0.7
			c0,0.2,0,0.5,0,0.7c-0.1,1.4-0.4,2.7-1.1,3.9c-2.1,4-4.6,7.5-8.6,9.7c-0.2,0.1-0.3,0.2-0.5,0.3c-0.1,0.1-0.3,0.2-0.5,0.4
			c2.4,0.6,4.7,1,7,0.7c4.9-0.6,8.8-2.8,12-6.4c0.3-0.3,0.6-0.7,0.8-1.1c0.2-0.3,0.3-0.6,0.4-1c-0.4-0.2-0.8-0.3-1.1-0.4
			c-3.3-1.3-5.6-3.5-7-6.8c-0.8-2-1.3-4-1.5-6.1c-0.3-3.4,0.4-6.5,2.3-9.3c1.7-2.4,4-4.2,6.7-5.5c0.2-0.1,0.3-0.2,0.5-0.3
			c-0.1-0.1-0.1-0.1-0.2-0.1c-2-0.3-3.9-0.8-5.7-1.5c-0.5-0.2-0.8,0.1-1.1,0.3c-0.7,0.5-1.3,1-1.9,1.6c-1.2,1.1-2.4,2.2-3.7,3.3
			c-1.7,1.5-3.6,2.7-5.7,3.6C258.3,108.5,257.9,108.7,257.4,108.9z M253.9,151.7c-0.1,0-0.1-0.1-0.2-0.1c-0.7,0.9-1.5,1.7-2.2,2.6
			c-1.4,1.7-2.7,3.6-3.6,5.7c-1.6,4.1-2.3,8.4-1.9,12.8c0.3,2.9,1.1,5.6,2.6,8.1c1.1,1.8,2.5,3.3,4.3,4.4c0.7,0.4,0.9,0.4,1.2-0.4
			c0.4-0.9,0.7-1.8,1-2.7c1.5-5.1,2.9-10.2,4-15.4c0.2-1.1,0.5-2.2,0.7-3.4c-0.9,0-1.6-0.3-2.2-0.9c-0.3-0.3-0.6-0.6-0.8-0.9
			c-1.9-2.4-2.9-5.2-2.9-8.3C253.9,152.6,253.9,152.2,253.9,151.7z M327.2,91.5c-0.7-1.3-1.5-1.8-3-2c-2.3-0.3-4.5-0.6-6.8-0.8
			c-2.4-0.2-4.8-0.5-7.1-1.1c-3.3-0.8-6.6-1.7-9.8-2.6c-2.4-0.6-4.8-1.2-7.3-1.3c-1.7,0-3.4,0.4-4.9,1.3c-2.2,1.2-3.7,3.1-4.9,5.2
			c-0.1,0.2-0.2,0.5-0.3,0.8c0.2,0,0.3,0.1,0.3,0.1c1.6,0.2,3.2,0.3,4.8,0.6c2.2,0.4,4.2,1.2,6.2,2.4c0.4,0.3,0.9,0.4,1.4,0.3
			c3.5-0.3,7-0.4,10.4,0.8c0.5,0.2,0.9,0.1,1.4-0.1c2.5-1.1,5-1.8,7.7-2.1c3-0.4,6-0.7,9-1.1C325.3,91.8,326.2,91.7,327.2,91.5z
			 M347.2,196c-1.2-1-1.8-2.2-2.1-3.6c-0.3-1.3-0.6-2.6-1-4c-0.2-0.7-0.4-1.5-0.6-2.4c-0.4,0.7-0.8,1.2-1.1,1.7
			c-0.7,1-1.5,1.8-2.5,2.4c-0.6,0.4-1.3,0.6-2.1,0.4c-0.4-0.1-0.8-0.3-1.2-0.4c0,0-0.1,0.1-0.1,0.1c-0.9,3.8-2.2,7.5-3.9,11
			c-1.1,2.2-2.3,4.3-3.4,6.4c-0.7,1.3-1.4,2.6-1.8,4.1c-0.3,1.2,0,1.6,1.2,1.7c0.2,0,0.5,0,0.7,0c0.9-0.2,1.8-0.3,2.7-0.5
			c2.2-0.7,4.1-2,5.9-3.4c3.8-3.1,6.5-7.1,8.5-11.5C346.7,197.4,346.9,196.7,347.2,196z M271.6,172.6c-0.3,0.3-0.4,0.5-0.6,0.7
			c-0.7,0.8-1.4,1.7-2.2,2.5c-0.5,0.5-1.1,1-1.7,1.4c-0.8,0.5-1.5,0.3-2.1-0.4c-0.3-0.4-0.6-0.8-0.8-1.2c-1.8-3.5-2.9-7.1-2.9-11
			c0-0.5,0-0.9,0-1.4c-0.2,0.7-0.2,1.5-0.4,2.2c-0.8,4.2-1.7,8.4-2.9,12.5c-0.7,2.4-1.2,4.9-2.3,7.3c-0.1,0.3-0.1,0.6,0.1,0.8
			c1.7,3.7,4.1,6.7,7.7,8.8c0.6,0.3,1.2,0.6,1.8,0.8c0.7,0.2,1.2,0.1,1.6-0.6c0.2-0.4,0.5-0.9,0.6-1.3c0.4-1.6,0.8-3.3,1.1-5
			c0.8-5.2,1.7-10.3,2.9-15.5C271.6,173,271.6,172.9,271.6,172.6z M334.3,165c0.2,0.7,0.4,1.3,0.6,1.9c0.8,3.6,1.3,7.3,1.5,11.1
			c0.1,2.2,0.1,4.4,0.2,6.6c0,1.2,0.1,2.3,0.7,3.4c0.5,0.9,1,1.1,1.9,0.5c0.8-0.5,1.4-1.2,1.8-2c0.7-1.2,1.5-2.5,2.1-3.8
			c1.8-3.8,2.8-7.9,3.7-12.1c0.1-0.4,0-0.7-0.2-1c-0.4-0.9-0.8-1.8-1.2-2.7c-0.5-1.3-1-2.5-1.5-3.8c-1-2.2-2.2-4.2-3.8-6.1
			c-0.2-0.2-0.4-0.4-0.7-0.7c-0.1,0.3-0.1,0.5-0.2,0.7c-0.5,1.4-0.9,2.8-1.5,4.2C337,163,336,164.4,334.3,165z M339.5,141.7
			c1,4.4,0.7,8.9,0.1,13.4c1.1,0.7,2,1.7,2.7,2.7c0.7,1,1.4,2,2,3c1.1,1.9,1.8,3.9,2.6,5.8c0.4,1,0.9,2,1.4,2.9
			c0.2,0.3,0.5,0.6,0.7,0.9c0.5-0.2,0.8-0.6,1-1c0.3-0.6,0.6-1.3,0.8-1.9c1.1-3.4,1.2-7,0.8-10.5c-0.4-4.3-1.6-8.4-3.3-12.4
			c-0.6-1.4-1.3-2.8-2.3-4c-0.3-0.3-0.5-0.7-0.7-0.9C343.2,140.4,341.4,141,339.5,141.7z M273.7,139.8c-0.4-0.1-0.8-0.1-1.1-0.2
			c-0.8-0.2-1.5-0.4-2.2-0.8c-0.4-0.2-0.7-0.2-1.1-0.1c-1.9,0.8-3.9,1.3-6.1,1.4c-0.3,0-0.6,0.2-0.8,0.3c-0.7,0.6-1.3,1.1-2,1.7
			c-2.8,2.5-4.5,5.5-4.7,9.3c-0.2,3.1,0.5,6,2.2,8.6c0.3,0.4,0.6,0.8,0.9,1.1c0.6,0.6,1.1,0.6,1.8,0c0.4-0.4,0.8-0.9,1.2-1.4
			c1.4-1.9,2.8-3.8,4.1-5.8c1.5-2.2,3-4.3,4.4-6.5c1-1.6,1.8-3.3,2.7-5C273.3,141.6,273.6,140.7,273.7,139.8z M324.9,139.2
			c0.7,2,1.4,3.9,2,5.8c1.1,3.3,2.1,6.6,3.1,9.9c0.7,2.1,1.2,4.3,1.9,6.4c0.2,0.5,0.4,1,0.7,1.4c0.6,0.8,1.2,0.9,1.9,0.2
			c0.5-0.5,0.9-1.1,1.3-1.7c0.7-1.4,1.2-2.8,1.6-4.3c0.5-2.1,0.8-4.2,1-6.3c0.2-2.5,0.2-4.9-0.1-7.4c-0.1-0.5-0.2-1-0.3-1.4
			c-1.1-0.1-2-0.1-2.9-0.2c-2.6-0.4-4.9-1.2-7-2.8c-0.2-0.1-0.4-0.3-0.6-0.2C326.5,138.8,325.7,139,324.9,139.2z M353.8,159
			c-0.1,0-0.1,0-0.2,0c-0.1,1.2-0.1,2.3-0.2,3.5c-0.2,2.3-0.6,4.6-1.6,6.8c-0.3,0.6-0.6,1.2-1,1.7c-0.7,0.9-1.6,1.3-2.7,0.9
			c0,0-0.1,0-0.2,0.1c0,0.2-0.1,0.3-0.1,0.5c-0.6,3.9-1.7,7.6-3.2,11.2c-0.1,0.3-0.1,0.6,0,0.9c0.2,0.6,0.5,1.2,0.6,1.8
			c0.4,1.6,0.8,3.1,1.2,4.7c0.2,0.9,0.6,1.7,0.9,2.5c0.2,0.4,0.4,0.8,1,1c0.3-0.3,0.6-0.5,0.8-0.8c0.5-0.6,0.9-1.3,1.3-1.9
			c1.2-2.1,2-4.3,2.7-6.6c1.7-5.1,2.8-10.3,2.3-15.7c-0.3-2.5-0.5-5-1-7.5C354.4,161,354.1,160,353.8,159z M311.2,135.9
			c-2-1.2-3.8-2.7-5.1-4.8c-0.2,0.4-0.4,0.7-0.5,1c-0.5,1.1-1,2.2-1.6,3.3c-0.2,0.4-0.4,0.8-0.7,1.2c-0.6,0.7-1.4,0.6-1.8-0.2
			c-0.1-0.2-0.2-0.5-0.3-0.7c-0.6-1.4-1.1-2.9-1.7-4.3c-0.5-1.1-1-2.1-1.5-3.2c-0.1-0.2-0.2-0.3-0.4-0.5c-0.7,1.7-1.6,3.2-2.6,4.6
			c-1.1,1.4-2.4,2.5-3.8,3.6c0.2,0.1,0.3,0.2,0.4,0.2c3.3,1.9,6.2,4.2,8.5,7.2c0.8,1,1.5,2.1,2.2,3.2c0.1,0.2,0.3,0.4,0.5,0.7
			C304.8,142.7,307.7,139,311.2,135.9z M295.9,124.7c-0.1,0.2-0.3,0.3-0.4,0.4c-1.8,2.5-4.3,4.1-7.3,4.9c-2.9,0.7-5.8,0.7-8.7,0.2
			c-0.3-0.1-0.6-0.1-0.9-0.1c-1.3,3.4-4,5.4-6.8,7.4c0.2,0.1,0.4,0.1,0.5,0.2c3.5,0.8,7,0.9,10.5,0c5.3-1.3,9.6-4.2,12.5-8.9
			c0.5-0.7,0.8-1.6,1.2-2.3c0.1-0.2,0.1-0.5,0-0.6C296.3,125.4,296.1,125.1,295.9,124.7z M326,137.2c-0.7-1.2-1.4-2.2-2-3.4
			c-0.6-1.1-1-2.3-1.5-3.5c-5,0-9.3-1.4-12.9-5c-0.8,1-2.4,3.7-2.7,4.5c0.8,1.3,1.8,2.4,3,3.3c4.1,2.9,8.7,4.6,13.8,4.4
			C324.5,137.5,325.2,137.3,326,137.2z M289.7,136.7c1.6,1.8,3.1,3.6,4.4,5.6c1.3,2,2.6,4,3.8,6.1c1.2,2,2.2,4.2,3,6.4
			c0.8,2.2,1.6,4.4,2.4,6.8c0.1-0.4,0.1-0.7,0.2-1c0.4-2.1,0.8-4.1,1.2-6.2c1.5-6.5,4.8-11.9,9.4-16.7c0.1-0.1,0.1-0.2,0.2-0.3
			c-0.6-0.3-1.1-0.5-1.6-0.8c-0.5,0.6-1,1.1-1.4,1.6c-2.8,2.9-5.2,6-7.1,9.6c-0.1,0.2-0.2,0.5-0.4,0.7c-0.6,0.9-1.5,0.9-2.1,0
			c-0.4-0.6-0.8-1.3-1.2-2c-2.4-4-5.8-6.9-9.7-9.4c-0.2-0.2-0.5-0.3-0.7-0.4C289.9,136.7,289.8,136.7,289.7,136.7z M336.3,70.8
			C336.3,70.8,336.3,70.8,336.3,70.8c0.1,0.5,0.1,1,0.1,1.5c0.1,1.1,0.9,1.8,1.6,2.5c2.1,2,5.3,1.8,7.1-0.5c0.7-0.9,1-1.9,0.7-3
			c-0.5-1.8-1.5-3.2-3-4.4c-0.6-0.4-1.2-0.6-2-0.6c-1.6,0-2.9,0.8-3.9,1.9c-0.5,0.5-0.7,1.1-0.6,1.8
			C336.3,70.2,336.3,70.5,336.3,70.8z M307.4,112.1c-1,1.1-1.8,2.3-2.4,3.6c-0.3,0.6-0.6,1.3-0.9,1.9c-0.4,0.9-1.1,1-1.8,0.2
			c-0.4-0.5-0.7-1-1.1-1.5c-0.9-1.2-1.8-2.5-2.7-3.7c-0.1-0.2-0.3-0.3-0.5-0.5c0.8,3.7,0.4,7.1-1.1,10.4c1,0.3,1.9,0.5,2.9,0.6
			c2,0,3.9-0.2,5.8-0.6c0.7-0.2,1.4-0.4,2.1-0.7C307,118.5,306.7,115.3,307.4,112.1z M295,221.9c0.1,0,0.1,0,0.2-0.1
			c0.1-0.6-0.1-1.1-0.3-1.6c-0.7-1.9-1.3-3.9-2-5.8c-0.1-0.4-0.3-0.6-0.6-0.7c-1.2-0.7-2.4-1.5-3.7-2.3c-0.1-0.1-0.3-0.1-0.5-0.2
			c-0.1,0.5-0.2,1-0.4,1.4c-0.5,1.7-1.2,3.3-2,4.9c-0.7,1.4-1.3,2.8-1.6,4.3c-0.1,0.3-0.1,0.6-0.1,0.8c0,0.4,0.2,0.5,0.6,0.4
			c0.2-0.1,0.5-0.3,0.6-0.4c0.2-0.3,0.4-0.6,0.6-1c0.3-0.8,0.6-1.6,0.9-2.4c0.3-0.8,0.7-1.1,1.3-1c0.7,0.1,0.8,0.6,0.9,1.2
			c0.2,0.9,0.5,1.8,0.7,2.8c0.1,0.4,0.3,0.7,0.5,1.1c0.1,0,0.1,0,0.2,0c0.1-0.4,0.2-0.8,0.2-1.2c0.1-0.8,0.2-1.6,0.3-2.4
			c0.1-0.5,0.4-0.8,0.8-0.9c0.5-0.1,0.8,0.2,1,0.5c0.1,0.2,0.2,0.3,0.3,0.5C293.8,220.3,294.4,221.1,295,221.9z M305,223.6
			c0.2-0.7,0.5-1.2,0.6-1.8c0.3-1,0.5-2,0.8-3c0.3-1,1.3-1.3,2-0.4c0.3,0.3,0.5,0.7,0.7,1c0.7,1.4,1.3,2.7,2,4.1
			c0.3,0.5,0.5,1.1,1,1.7c0.1-0.5,0.1-0.8,0.1-1.2c0.1-1.5-0.3-2.9-0.7-4.3c-0.5-1.7-0.9-3.5-1.4-5.2c-0.1-0.2-0.1-0.5-0.2-0.8
			c-2.6,1-5.1,1.8-7.6,2.2c-0.4,1.1-0.7,2-1,3c-0.3,0.9-0.5,1.8-0.7,2.8c0,0.2,0,0.4,0,0.6c0.4-0.2,0.6-0.5,0.8-0.8
			c0.4-0.6,0.8-1.2,1.1-1.8c0.2-0.4,0.5-0.7,1-0.6c0.5,0.1,0.7,0.4,0.7,0.9c0,0.5,0.1,1.1,0.1,1.6
			C304.4,222.3,304.5,222.9,305,223.6z M308.7,123.8c-0.1-0.2-0.2-0.4-0.3-0.7c-3.4,1.4-6.9,1.5-10.6,1.4c0.2,0.3,0.3,0.6,0.5,0.8
			c1.2,1.7,2.1,3.4,2.9,5.4c0.4,1,0.8,2,1.2,3c0.1,0.1,0.2,0.3,0.3,0.5c0.3-0.6,0.5-1,0.7-1.5C304.8,129.6,306.3,126.5,308.7,123.8z
			 M296.8,95.6c1.6,1.5,3.1,3.1,4.1,5.1c0.5-0.6,0.8-1.2,1.3-1.7c0.4-0.5,0.9-1,1.4-1.4c0.5-0.4,1.1-0.8,1.7-1.3
			C302.4,95.5,299.6,95.5,296.8,95.6z"/>
		<path class="st53" d="M331.1,115.2c-0.1,2.4-0.8,4.9-2.7,6.8c-1.3,1.4-3,2.1-4.9,2.4c-2.2,0.3-4.3-0.3-6.1-1.4
			c-2.2-1.3-3.4-3.3-3.8-5.8c-0.5-3.4,0.3-6.4,2.9-8.9c0.4-0.4,0.8-0.8,1.2-1.1c1.7-1.5,3.7-1.9,5.9-1.5
			C327.8,106.4,331.1,110.4,331.1,115.2z M319.4,113.9c0.6,0,1.1-0.2,1.5-0.7c1.1-1.4,0.5-3.6-1.2-4c-0.7-0.2-1.3,0-1.7,0.6
			c-0.2,0.4-0.4,0.8-0.6,1.2C316.8,112.6,317.8,113.9,319.4,113.9z"/>
		<path class="st53" d="M283.9,123.5c-4.3,0-9.1-2.3-10-7.4c-0.2-1-0.2-2,0.1-3.1c0.4-1.6,1-3.2,2.2-4.4c2.1-2.2,4.6-3.1,7.6-2.4
			c3.9,0.8,6.1,3.4,7.1,7.2c0.7,2.8,0.2,5.3-1.8,7.5C287.5,122.7,285.4,123.4,283.9,123.5z M278.9,114.4c0.3,0,0.5-0.1,0.7-0.1
			c1.3-0.3,2.4-1.9,2.3-3.3c-0.1-1.3-1.5-2.3-2.7-2.1c-1.5,0.3-2.6,1.7-2.7,3.2c0,0.9,0.4,1.7,1.3,2.1
			C278.3,114.2,278.6,114.3,278.9,114.4z"/>
	</g>
	<g>
		<g>
			<path class="st53" d="M253.5,314.4c2.8,0.4,5.5,0.8,8.3,1.1c2.8,0.3,5.5,0.5,8.3,0.7c2.3,0.2,4.7,0.2,7,0.3c0.4,0,0.8,0,1.1-0.2
				c1.7-0.7,3.5-1.4,5.2-2.2c1.6-0.8,2.8-2,3.8-3.5c2.4-3.3,3.9-7,4.2-11.2c0.2-2.3-0.5-3.3-2.8-3.9c-2.9-0.8-5.6,0.5-6.6,3.2
				c0,0.1-0.1,0.2-0.1,0.5c0.3-0.3,0.6-0.5,0.8-0.7c1-0.8,2.5-0.9,3.6-0.2c1.1,0.7,1.6,2,1.3,3.3c-0.4,1.8-2,3.1-3.9,3.3
				c-3.6,0.4-5.8-2.9-5.3-5.9c0.6-3.3,3.3-6,6.8-6.6c1.9-0.3,3.8-0.2,5.6,0.6c2.9,1.3,4,3.2,3.7,6.1c-0.5,5.7-2.7,10.8-6.8,14.9
				c-0.7,0.7-1.6,1.2-2.3,1.8c-0.2,0.2-0.5,0.3-0.8,0.6c0.2,0,0.5,0,0.7,0c10.7-0.5,21.2-2.4,31.2-6.4c5.8-2.3,11.1-5.5,15.6-10
				c5.3-5.3,8.6-11.6,10.1-18.9c0.7-3.2,1-6.5,0.4-9.7c-1-6.3-4.6-10.5-10.6-12.6c-8.1-2.9-16.1,0.7-20.2,7.5
				c-1,1.6-1.5,3.4-1.7,5.3c-0.2,2.4,0.6,4.3,2.5,5.8c0.2,0.1,0.4,0.2,0.8,0.5c-0.2-0.4-0.3-0.5-0.3-0.7c-0.9-1.5-1-3-0.5-4.6
				c0.9-2.9,3.7-4.8,6.7-4.8c3.5,0,7.4,4.2,5.6,8.5c-1.6,3.7-4.6,5.8-8.7,6c-3.9,0.3-6.8-1.6-8.7-4.9c-1.5-2.5-1.8-5.3-1.1-8.2
				c1.4-5.9,5-10,10.2-12.8c5.9-3.2,12-3.1,18.2-0.7c0.8,0.3,1.6,0.7,2.3,1.1c5.4,2.9,8.4,7.4,9.5,13.3c0.8,4.4,0.4,8.7-0.7,12.9
				c-2.8,11.3-9.2,19.8-19,26c-4.9,3.1-10.2,5.2-15.7,6.8c-5.8,1.8-11.6,3-17.6,3.6c-5.7,0.6-11.5,0.9-17.3,0.6
				c-4.4-0.2-8.9-0.4-13.3-0.8c-3.9-0.4-7.8-0.9-11.7-1.6c-7-1.2-13.9-2.5-20.8-4c-5-1-10-2.4-14.9-3.5c-12.4-2.8-24.7-6.3-36.9-10
				c-0.3-0.1-0.6-0.2-1-0.1c0.2,0.2,0.5,0.4,0.7,0.6c5.5,4.4,10.1,9.5,13.3,15.8c2.4,4.6,3.6,9.6,3.4,14.8
				c-0.2,4.8-1.4,9.3-3.5,13.7c-3.4,7.1-8.7,12.4-15.3,16.4c-3.9,2.3-8.1,4.1-12.6,5c-5,0.9-10,1-14.8-0.8c-0.9-0.3-1.9-0.7-2.7-1.2
				c-5.5-3.2-9.5-7.8-11.8-13.8c-1.2-3.2-1.4-6.4-0.4-9.7c0.9-3.1,2.7-5.6,5.4-7.5c2.2-1.5,4.7-2.1,7.3-1.7c2.7,0.4,5,1.5,6.9,3.5
				c1.9,2,2.8,4.5,2.1,7.3c-0.9,3.3-4.6,6.2-8,6.2c-1.8,0-3.8-1.3-4.3-3.1c-0.1-0.4-0.1-0.7,0.2-1c0.3-0.3,0.7-0.4,1.1-0.2
				c0.4,0.2,0.8,0.5,1.1,0.7c0.9,0.7,1.8,0.9,2.9,0.5c1.6-0.6,2.8-1.6,3.6-3.1c0.9-1.7,0.4-3.3-0.6-4.7c-2.3-3.4-7.5-4.2-10.8-1.7
				c-2.4,1.8-3.9,4.3-4.1,7.4c-0.3,2.8,0.4,5.4,1.6,7.9c1.8,3.7,4.5,6.7,7.8,9.1c2.8,2,5.9,3,9.2,3.2c5.1,0.4,10-0.6,14.6-2.6
				c5.7-2.5,10.7-6,14.7-10.9c4-5,6.4-10.6,7.1-16.9c0.6-5.2-0.3-10.2-2.5-15c-2.2-4.7-5.3-8.7-8.9-12.4c-1.5-1.5-3-2.9-4.8-4.1
				c0.2,0.2,0.4,0.5,0.6,0.7c3.1,3.4,5.4,7.3,7.1,11.6c1.9,5.2,1.4,10.2-1.5,14.9c-3.9,6.3-10.2,7-15.3,4.8
				c-3.5-1.5-5.6-4.2-6.4-7.9c-1-4.7,1.7-9.8,5.9-11.5c4-1.6,8.4,0.5,9.4,4.5c0.8,3-1.3,6-4.2,6.3c-1.6,0.1-2.8-0.5-3.7-1.8
				c-0.8-1.3-0.9-2.7-0.2-4c0.4-0.8,1.1-1.4,1.7-2.1c-0.4-0.1-1-0.1-1.5,0.1c-1.5,0.4-2.5,1.3-3.3,2.6c-2.7,4.8-0.1,10.2,4.9,11.4
				c3.9,1,7.2-0.3,9.4-3.6c2.5-3.8,2.9-8,1.5-12.3c-1.7-5.1-4.6-9.5-8.5-13.3c-3.2-3.1-6.8-5.3-11-6.6c-1.6-0.5-3.3-0.9-5-1.1
				c-4.1-0.5-8.1-1-12.2-1.3c-3.3-0.2-6.7-0.2-10-0.1c-7.4,0.2-14.6,1.5-21.6,3.8c-4.5,1.5-8.7,3.5-12.7,5.9
				c-0.2,0.1-0.4,0.2-0.6,0.4c1.2-0.1,2.2-0.3,3.3-0.4c3.4-0.3,6.7,0.1,9.9,1.4c5.9,2.4,9.3,6.8,10.4,13c0.5,2.8,0,5.5-1.4,8
				c-2.7,4.6-8.8,5.9-13.3,2.1c-2.6-2.1-3.3-6-2-8.9c1.2-2.6,3.8-4,6.5-3.5c2.2,0.4,3.7,1.7,4.3,3.9c0.7,2.3-1,4.7-3.5,5.2
				c-1.6,0.3-2.9-0.2-4-1.4c-0.2-0.2-0.3-0.4-0.5-0.5c0.2,1.6,0.8,2.8,2.3,3.6c3.4,1.8,6.3,0,7.4-2.5c1.4-3.3,1.2-6.5-0.3-9.6
				c-2.1-4.1-5.5-6.6-9.9-7.7c-4.2-1-8.2-0.6-12.2,0.9c-2.5,0.9-4.7,2.4-6.5,4.4c-4.4,4.9-7.8,10.3-9.7,16.6
				c-1.3,4.4-1.6,8.9-1,13.4c0.4,3.2,1,6.3,2.2,9.3c1.8,4.6,4.2,8.7,8.1,11.9c0.2,0.2,0.5,0.4,0.7,0.7c0.1,0.2,0.3,0.6,0.2,0.8
				c-0.1,0.2-0.5,0.4-0.8,0.4c-0.6,0.1-1.2-0.1-1.7-0.5c-1.1-0.9-2.3-1.7-3.3-2.7c-3-3-5-6.7-6.4-10.6c-1.4-3.8-2-7.7-2.4-11.6
				c-0.5-5.7,0.4-11.1,2.5-16.4c2.4-6,6.1-11.1,10.6-15.6c3.8-3.8,8.2-6.7,12.9-9.3c5.7-3.2,11.8-5.2,18.1-6.5
				c7.8-1.6,15.7-2.2,23.7-1.8c6.7,0.3,13.3,1.1,19.9,2.5c5.8,1.2,11.5,2.9,17.1,4.6c11.1,3.4,22.3,6.6,33.6,9.2
				c7.7,1.8,15.5,3.6,23.3,5.4c3.3,0.7,6.7,1.3,10.1,1.9c0.7,0.1,1.4,0,2.1-0.1c5.7-1,10.5-3.5,14.5-7.7c2.7-2.9,5.2-6,6.9-9.6
				c1.1-2.3,1.9-4.6,1.8-7.2c-0.1-1.7-0.4-3.3-1.4-4.7c-1.8-2.7-4.5-3.7-7.7-3.8c-2.1,0-4,0.6-5.7,2c-2.3,1.8-3.5,5.2-2.7,7.8
				c0.4,1.4,1.2,2.7,2.7,3.2c0.5,0.2,1,0.2,1.5,0.1c1.6-0.6,2.8-1.7,3.2-3.4c0.3-1.5-0.6-2.7-2.1-2.8c-0.4,0-0.7,0-1.1-0.1
				c-0.6-0.1-1-0.5-1.1-1c-0.1-0.5,0.2-1,0.7-1.2c0.8-0.4,1.7-0.5,2.6-0.3c2.7,0.6,4.3,3.1,3.9,5.9c-0.5,3-4,6.3-7.5,5.9
				c-1.8-0.2-3.2-1-4.4-2.3c-2-2.4-2.5-5.1-1.7-8.1c1.4-5.3,6-7.9,10-8.4c2.3-0.3,4.5,0,6.7,0.8c4.1,1.7,6.4,4.8,7,9.1
				c0.5,3.4-0.5,6.6-2,9.6c-1.3,2.6-3,5-4.9,7.2c-2.2,2.6-4.6,5.1-7.5,7c-1.8,1.2-3.7,2.2-5.7,2.9c-0.4,0.1-0.7,0.3-1.1,0.4
				C253.5,314.3,253.5,314.4,253.5,314.4z"/>
		</g>
		<g>
			<g>
				<path class="st53" d="M208,173.2c-1.1,0.9-2,1.6-3.1,2.2c-2.1,1.2-4.4,1.8-6.7,2.1c-0.8,0.1-1.7,0.2-2.5,0.2
					c-1.7,0.1-2.4,1-2,2.7c0.5,2,1.7,3.5,3.2,4.8c1.5,1.4,3.3,2.4,5.3,3c1.2,0.4,2.5,0.7,3.8,1c-0.2,0.2-0.3,0.5-0.5,0.6
					c-0.5,0.4-1.1,0.9-1.7,1.3c-3.1,1.7-6.3,3.1-9.8,3.5c-1.8,0.2-3.5-0.1-5.2-0.4c-2.5-0.6-4.8-1.7-6.8-3.4
					c-0.5-0.4-0.9-0.9-1.4-1.4c-1.5-1.8-2.6-3.8-3.5-5.9c-0.1-0.3-0.2-0.7-0.3-1.1c0.4-0.1,0.6-0.2,0.9-0.2c2.7-0.6,5.4-1.4,7.8-2.9
					c4.5-2.6,7.3-6.4,8.2-11.5c1.1-6.1-0.1-11.9-3.2-17.3c-1.1-1.8-2.5-3.4-4.2-4.7c-0.1-0.1-0.2-0.2-0.4-0.3c0,0,0-0.1-0.1-0.2
					c0.3-0.1,0.5-0.1,0.8-0.2c1.2-0.2,2.3-0.4,3.5-0.7c0.8-0.2,1.5,0,2.1,0.6c0.6,0.6,1.3,1.2,1.9,1.9c1.2,1.3,2.4,2.7,3.6,4
					c2.3,2.5,5.1,4.3,8.4,5.1c0.5,0.1,1.1,0.2,1.6,0.4c-0.1,0.6-0.5,0.9-0.8,1.2c-1,0.8-2,1.7-3.1,2.4c-1.8,1.1-3.8,2-5.9,2.5
					c-1.9,0.5-2.4,1.5-1.4,3.2c2,3.3,4.8,5.6,8.5,6.6C205.9,172.8,206.9,172.9,208,173.2z"/>
				<path class="st53" d="M93.9,156.2c0.6-0.3,1-0.5,1.5-0.7c2.6-1.1,4.9-2.6,7-4.4c1.6-1.3,3.1-2.7,4.6-4.1c0.8-0.7,1.5-1.3,2.4-2
					c0.4-0.3,0.8-0.6,1.4-0.4c2.3,0.9,4.7,1.5,7.1,1.8c0.1,0,0.1,0.1,0.2,0.2c-0.2,0.1-0.4,0.3-0.6,0.4c-3.3,1.6-6.2,3.7-8.3,6.8
					c-2.4,3.5-3.3,7.3-2.9,11.5c0.3,2.6,0.9,5.2,1.9,7.6c1.7,4.1,4.6,6.8,8.7,8.5c0.4,0.2,0.9,0.3,1.4,0.6c-0.2,0.4-0.3,0.9-0.6,1.2
					c-0.3,0.5-0.6,1-1,1.4c-4,4.5-8.9,7.3-15,8c-2.9,0.3-5.8-0.2-8.8-0.9c0.3-0.2,0.4-0.4,0.6-0.5c0.2-0.1,0.4-0.3,0.6-0.4
					c5-2.8,8.1-7.2,10.7-12.1c0.8-1.5,1.2-3.2,1.3-4.9c0-0.3,0-0.6,0-0.9c-0.1-0.7-0.8-1.1-1.5-0.9c-0.1,0.1-0.3,0.1-0.4,0.2
					c-2.1,1.6-4.5,1.8-7,1.3c-1.4-0.3-2.8-0.7-4-1.4c-0.6-0.3-1-0.8-1.7-1.3c0.4-0.1,0.7-0.2,0.9-0.3c1.5-0.4,2.9-0.7,4.4-1.2
					c2-0.6,3.8-1.6,5.4-3.1c1-1,2-2,2.9-3.1c0.5-0.6,0.9-1.4,1.2-2.2c0.4-1-0.3-1.8-1.4-1.6c-3.1,0.7-5.9-0.3-8.7-1.5
					C95.2,157.7,94.4,157.1,93.9,156.2z"/>
			</g>
			<g>
				<path class="st53" d="M205.5,264.4c-0.3,0.9-0.5,1.8-0.9,2.6c-2.5,5.5-5.9,10.4-10.6,14.3c-2.2,1.8-4.6,3.4-7.3,4.3
					c-1.1,0.3-2.2,0.5-3.4,0.7c-0.3,0-0.6,0-0.9,0c-1.5-0.1-1.9-0.7-1.5-2.2c0.5-1.8,1.4-3.4,2.3-5.1c1.4-2.7,2.9-5.3,4.2-8
					c2.1-4.4,3.8-9,4.9-13.7c0-0.1,0.1-0.1,0.1-0.1c0.5,0.2,1,0.4,1.5,0.5c0.9,0.2,1.8-0.1,2.6-0.5c1.3-0.7,2.3-1.8,3.1-3
					c0.4-0.6,0.8-1.3,1.4-2.1c0.3,1.1,0.5,2,0.7,2.9c0.4,1.6,0.8,3.3,1.2,4.9C203.3,261.6,203.9,263.2,205.5,264.4z"/>
				<path class="st53" d="M111.5,235.4c0,0.3,0,0.5-0.1,0.6c-1.5,6.3-2.7,12.8-3.6,19.2c-0.3,2.1-0.8,4.1-1.3,6.2
					c-0.1,0.6-0.4,1.1-0.7,1.7c-0.5,0.8-1.1,1-2,0.7c-0.8-0.3-1.6-0.6-2.3-1c-4.4-2.5-7.5-6.3-9.6-10.9c-0.1-0.3-0.2-0.6-0.1-1
					c1.3-2.9,1.9-6,2.8-9.1c1.5-5.1,2.7-10.3,3.6-15.5c0.2-0.9,0.3-1.8,0.5-2.7c0,0.6,0,1.1,0,1.7c0,4.9,1.4,9.4,3.6,13.7
					c0.3,0.5,0.6,1,1,1.5c0.7,0.9,1.6,1.1,2.6,0.5c0.8-0.5,1.5-1,2.1-1.7c1-1,1.8-2.1,2.7-3.1C111,236,111.2,235.7,111.5,235.4z"/>
				<path class="st53" d="M189.4,225.9c2.2-0.8,3.4-2.5,4.2-4.5c0.7-1.7,1.2-3.5,1.8-5.2c0.1-0.2,0.1-0.5,0.2-0.9
					c0.3,0.4,0.6,0.6,0.8,0.9c1.9,2.3,3.5,4.8,4.7,7.6c0.7,1.5,1.3,3.1,1.9,4.7c0.5,1.1,1,2.2,1.5,3.3c0.2,0.4,0.3,0.8,0.2,1.3
					c-1.1,5.1-2.4,10.2-4.6,15c-0.8,1.6-1.7,3.2-2.6,4.7c-0.6,1-1.3,1.8-2.3,2.4c-1.1,0.7-1.7,0.5-2.3-0.6c-0.7-1.3-0.8-2.8-0.8-4.2
					c-0.1-2.7-0.1-5.5-0.3-8.2c-0.3-4.6-0.9-9.2-1.9-13.8C190,227.6,189.7,226.8,189.4,225.9z"/>
				<path class="st53" d="M114.1,194.5c-0.1,1.2-0.5,2.2-0.9,3.2c-1.1,2.1-2.1,4.2-3.3,6.3c-1.7,2.8-3.6,5.4-5.4,8.1
					c-1.7,2.4-3.4,4.8-5.1,7.2c-0.4,0.6-0.9,1.2-1.5,1.8c-0.8,0.8-1.4,0.8-2.2,0c-0.4-0.4-0.8-0.9-1.2-1.4c-2.2-3.2-3-6.8-2.8-10.7
					c0.3-4.7,2.4-8.5,5.9-11.6c0.8-0.7,1.6-1.5,2.5-2.2c0.3-0.2,0.7-0.4,1-0.4c2.6-0.1,5.1-0.8,7.5-1.7c0.5-0.2,0.9-0.2,1.4,0.1
					c0.9,0.4,1.8,0.7,2.8,1C113.1,194.3,113.6,194.4,114.1,194.5z"/>
				<path class="st53" d="M177.7,193.8c1-0.2,2-0.5,3.1-0.8c0.2,0,0.5,0.1,0.8,0.3c2.6,2,5.6,3,8.7,3.4c1.2,0.2,2.3,0.2,3.7,0.2
					c0.1,0.5,0.2,1.1,0.3,1.8c0.4,3.1,0.3,6.1,0.1,9.2c-0.2,2.6-0.6,5.3-1.2,7.9c-0.5,1.9-1,3.7-2,5.4c-0.4,0.8-0.9,1.5-1.6,2.2
					c-0.8,0.9-1.6,0.8-2.3-0.2c-0.4-0.5-0.7-1.2-0.9-1.8c-0.8-2.7-1.5-5.3-2.4-8c-1.3-4.1-2.5-8.2-3.8-12.4
					C179.5,198.7,178.6,196.3,177.7,193.8z"/>
			</g>
			<g>
				<path class="st54" d="M125.2,194.4c2.4-0.9,4.7-1.7,7.1-2.6c0.2,0.2,0.4,0.4,0.6,0.7c5.8,7,10.5,14.6,13.5,23.3
					c1.1,3.2,2.3,6.3,3,9.6c0.2,0.9,0.3,1.8,0.5,2.7c0,0.2,0.1,0.5,0.2,0.7c0.2,0.5,0.6,0.7,1.1,0.7c0.5,0,0.9-0.2,1.1-0.7
					c0.1-0.2,0.1-0.4,0.2-0.6c0.4-2.7,0.8-5.3,1.2-8c0.5-3.3,1.2-6.5,2.2-9.7c2-6.5,5.7-12.1,10.3-17.1c0.2-0.3,0.5-0.5,0.8-0.8
					c1.4,0.3,3,0.7,4.5,1c1.5,0.2,3.1,0.3,4.8,0.4c0.3,0.9,0.7,1.9,1,2.9c1.3,4.2,2.7,8.5,3.9,12.7c0.9,3.2,1.7,6.5,2.6,9.7
					c0.3,1.1,0.7,2.3,1.1,3.4c0.5,1.2,1.2,2.3,2.4,2.9c0.3,0.2,0.4,0.4,0.5,0.8c0.4,1.9,0.8,3.8,1.1,5.7c0.9,5.8,1.2,11.7,1.2,17.6
					c0,0.9,0.1,1.7,0.2,2.6c0.1,0.5,0,1-0.2,1.4c-0.6,1.2-1.1,2.4-1.7,3.5c-4,6.6-8.8,12.4-14.5,17.6c-3.3,3-7,5.3-10.9,7.4
					c-3.6,1.9-7.4,3.4-11.3,4.5c-2.9,0.7-5.8,0.9-8.6,0.1c-1.2-0.4-2.4-0.8-3.6-1.4c-4.2-2-8-4.6-11.3-7.9c-2.2-2.1-4.2-4.4-6.3-6.6
					c-3.9-4.3-6.5-9.2-8.2-14.7c-1.1-3.8-1.3-3.7-0.9-8.3c0.3-3.6,0.8-7.3,1.2-10.9c0.2-1.6,0.4-3.2,0.6-4.8
					c0.1-0.8,0.3-1.5,0.8-2.2c2.1-3.1,3.5-6.5,4.8-9.9c2.3-6,3.7-12.3,4.5-18.7c0.2-1.8,0.3-3.6,0.4-5.5
					C125.4,195.3,125.2,194.8,125.2,194.4z"/>
				<path class="st54" d="M115.5,194.7c2.6,0,5.2,0,7.9,0c-0.1,1-0.1,2-0.2,3.1c-0.7,7-2.3,13.9-4.6,20.5
					c-2.3,6.8-6.1,12.7-10.7,18.1c-0.5,0.6-1,1.2-1.5,1.7c-0.4,0.4-0.9,0.8-1.3,1.3c-0.5-0.4-0.8-0.9-1-1.3c-1.2-2.2-2-4.5-2.7-6.9
					c-0.9-3.1-1.1-6.3-0.9-9.5c0-0.6,0.3-1,0.6-1.5c3.2-4.8,6.7-9.4,9.7-14.3c0.6-1,1.2-1.9,1.7-2.9c0.7-1.3,1.3-2.6,1.9-4
					C114.9,197.7,115.3,196.3,115.5,194.7z"/>
				<path class="st54" d="M120,282.8c-0.3,0.1-0.6,0.2-0.9,0.1c-1.6-0.3-3.2-0.5-4.7-0.9c-7.7-2.4-14.8-6.1-21.2-10.9
					c-2.2-1.7-4.2-3.6-6.1-5.7c-3.1-3.6-4.9-7.8-6.1-12.4c-0.8-3.1-1.1-5.7-0.9-8c0.2,0.3,0.3,0.6,0.5,0.8c1.4,2.6,3.3,4.8,5.8,6.5
					c0.2,0.2,0.5,0.3,0.7,0.5c1.5,0.9,2.2,0.9,3.7,0c0.1,0.3,0.3,0.6,0.4,0.9c1.9,4.3,4.8,7.8,8.8,10.2c0.9,0.6,2,1.1,3,1.4
					c2,0.7,3.5,0.1,4.5-1.7c0.8-1.4,1.2-2.9,1.5-4.4c0.5-2.4,0.9-4.8,1.4-7.3c0-0.1,0-0.2,0.2-0.3c0,0.5,0,0.9,0,1.4
					c0,2.8,0,5.6,0.2,8.3c0.3,4.9,2,9.4,4.3,13.6c1.1,2,2.5,3.9,3.8,5.9C119.4,281.4,119.9,281.9,120,282.8z"/>
				<path class="st54" d="M89.4,209.4c0,0.6,0,1.1,0,1.7c0.1,3.8,1.3,7.3,3.6,10.3c0.3,0.4,0.7,0.8,1,1.1c0.8,0.7,1.6,1.1,2.8,1.1
					c-0.3,1.5-0.6,2.9-0.9,4.3c-1.4,6.5-3.2,12.8-5,19.2c-0.3,1.2-0.8,2.3-1.3,3.4c-0.4,0.9-0.7,1-1.5,0.5c-2.3-1.4-4-3.3-5.4-5.5
					c-1.8-3.1-2.9-6.5-3.2-10.1c-0.5-5.5,0.4-10.8,2.4-15.9c1-2.6,2.7-4.9,4.4-7c0.9-1.1,1.8-2.1,2.8-3.2
					C89.3,209.3,89.4,209.4,89.4,209.4z"/>
				<path class="st54" d="M195.9,196.9c2.4-0.8,4.7-1.6,7.1-2.4c0.2,0.3,0.6,0.7,0.9,1.1c1.2,1.5,2.1,3.2,2.8,5
					c2.2,4.9,3.6,10,4.1,15.4c0.5,4.4,0.3,8.8-1,13.1c-0.3,0.8-0.6,1.6-1,2.4c-0.2,0.5-0.5,0.9-1.2,1.2c-0.3-0.4-0.7-0.7-0.9-1.1
					c-0.6-1.2-1.3-2.4-1.8-3.6c-1-2.5-1.9-5-3.2-7.3c-0.7-1.3-1.6-2.6-2.4-3.8c-0.9-1.3-2-2.5-3.4-3.4
					C196.8,208,197.1,202.4,195.9,196.9z"/>
				<path class="st54" d="M213.8,218.4c0.3,1.2,0.6,2.4,0.9,3.7c0.7,3.1,0.9,6.2,1.2,9.3c0.7,6.7-0.7,13.2-2.8,19.5
					c-0.9,2.8-1.9,5.6-3.4,8.2c-0.5,0.8-1,1.6-1.6,2.4c-0.3,0.4-0.7,0.7-1,1c-0.7-0.3-1-0.8-1.2-1.3c-0.4-1-0.8-2.1-1.1-3.2
					c-0.5-1.9-1-3.9-1.5-5.8c-0.2-0.8-0.5-1.5-0.8-2.3c-0.1-0.4-0.1-0.7,0-1.1c2-4.4,3.3-9.1,4-13.9c0-0.2,0.1-0.4,0.2-0.6
					c0.1,0,0.2-0.1,0.2-0.1c1.4,0.5,2.5,0,3.4-1.1c0.5-0.6,0.9-1.3,1.2-2.1c1.2-2.7,1.7-5.5,2-8.5c0.1-1.4,0.1-2.9,0.2-4.3
					C213.6,218.5,213.7,218.5,213.8,218.4z"/>
			</g>
			<g>
				<path class="st56" d="M97,125.4c0.1,0.1,0.2,0.2,0.3,0.4c2.8,3.6,6.4,6.3,10.6,8.2c2,0.9,4.2,1.4,6.4,1.5
					c3.3,0.2,6.6,0.4,10,0.6c2.7,0.2,5.4,0.3,8.1,0.8c6.4,1.2,11.3,4.8,14.6,10.5c0.2,0.3,0.4,0.6,0.6,0.9c0.5,0.5,0.9,0.5,1.2-0.1
					c0,0,0-0.1,0-0.1c1.4-3.2,4-5.2,7-6.7c3.1-1.6,6.5-2.5,10-3c3.5-0.4,7.1-0.8,10.6-1.2c6.1-0.7,12.2-1.8,18.1-3.8
					c5-1.8,9.5-4.4,13.1-8.4c0,0,0.1-0.1,0.2-0.1c0,0.1,0,0.2,0,0.3c-1.3,4.9-3.7,9.2-7.7,12.5c-3,2.5-6.3,4.1-10.1,4.7
					c-2.1,0.3-4.2,0.7-6.3,1c-1.2,0.2-2.5,0.2-3.7,0c-2.1-0.3-4.2-0.1-6.3,0.3c-2.4,0.5-4.7,1.3-6.9,2.3c-2.6,1.2-4.6,3.1-6.3,5.4
					c-1.2,1.6-2.5,3.2-3.9,4.7c-2.3,2.3-3.9,5-5.4,7.9c-0.1,0.3-0.3,0.5-0.5,0.9c-0.3-0.5-0.6-0.9-0.9-1.3c-1.2-2-2.5-3.9-4.1-5.6
					c-1.4-1.5-2.9-3.1-4.3-4.7c-1.7-2-3.7-3.6-6-4.9c-2.5-1.5-5.2-2.6-8.1-3c-0.3,0-0.6-0.1-1-0.1c-3.2-0.2-6.3-0.6-9.4-1.2
					c-4.2-0.8-8.2-2.3-11.7-4.8c-4.9-3.4-7.4-8.1-8.4-13.8C96.9,125.4,96.9,125.4,97,125.4z"/>
				<path class="st56" d="M141.6,175.8c0.3,0.5,0.6,0.9,0.8,1.4c0.1,0.2,0.1,0.6,0,0.8c-0.5,1-0.9,2-1.4,2.9
					c-3.6,5.9-8.9,9.4-15.5,11.1c-4.4,1.1-8.7,0.9-13.1,0c-0.2,0-0.4-0.1-0.6-0.2c3.5-2.5,6.9-4.9,8.5-9.2c0.3,0.1,0.7,0.1,1.1,0.2
					c3.6,0.6,7.3,0.7,10.9-0.2c3.7-0.9,6.8-3,9.1-6.1C141.3,176.2,141.5,176,141.6,175.8z"/>
				<path class="st56" d="M179.1,191.4c-0.9,0.1-1.9,0.3-2.8,0.4c-6.4,0.3-12.1-1.9-17.2-5.5c-1.5-1.1-2.8-2.4-3.7-4.1
					c0.3-1,2.3-4.3,3.4-5.6c4.4,4.5,9.8,6.3,16,6.3c0.6,1.4,1.1,2.9,1.9,4.3C177.3,188.6,178.2,189.9,179.1,191.4z"/>
			</g>
			<g>
				<path class="st53" d="M179.4,130.2c-1.4-0.2-2.8-0.5-4.3-0.7c-2.7-0.3-5.4-0.7-8.1-0.9c-3.4-0.3-6.7-0.9-10-1.7
					c-2.5-0.6-4.9-1.2-7.3-1.9c-2.7-0.8-5.5-1.4-8.3-1.8c-0.1,0-0.2-0.1-0.4-0.1c0.1-0.2,0.1-0.3,0.2-0.4c2.6-2.7,5.3-5.3,8.4-7.4
					c5-3.5,10.6-5.8,16.7-6.7c3.5-0.5,7-0.9,10.6-1c3.1-0.1,6.1-0.1,9.2-0.1c0.7,0,1.4,0.1,2.1,0.2c0.6,0.1,1,0.4,1.2,1
					c0.2,0.7,0.3,1.4,0,2.1c-0.4,1-0.8,2.1-1.4,3c-1.7,2.9-3.6,5.7-5.3,8.5c-0.8,1.4-1.5,2.8-2.3,4.2c-0.5,1-0.8,2.1-0.9,3.2
					C179.5,129.9,179.5,130.1,179.4,130.2z"/>
				<path class="st26" d="M180.7,134.5c-1.2,0.2-2.4,0.4-3.5,0.5c-3.7,0.5-7.5,0.9-11.2,1.3c-3.3,0.4-6.5,1.3-9.6,2.7
					c-0.6,0.3-1.2,0.3-1.8,0.1c-4.2-1.4-8.6-1.4-12.9-1c-0.6,0.1-1.2,0-1.7-0.4c-2.4-1.4-4.9-2.5-7.7-2.9c-2-0.3-4-0.5-6-0.7
					c-0.1,0-0.2,0-0.4-0.1c0.1-0.4,0.2-0.7,0.4-1c1.5-2.7,3.4-4.9,6.1-6.5c1.9-1.1,3.9-1.6,6-1.6c3.1,0,6.1,0.8,9,1.6
					c4.1,1.1,8.1,2.2,12.2,3.2c2.9,0.7,5.9,1,8.8,1.3c2.8,0.3,5.7,0.6,8.5,1C178.8,132.3,179.7,132.9,180.7,134.5z"/>
				<path class="st26" d="M192,108.8c0-0.4,0-0.8,0-1.2c0-0.8,0.2-1.6,0.8-2.2c1.3-1.4,2.9-2.3,4.9-2.4c0.9,0,1.7,0.2,2.4,0.8
					c1.8,1.4,3.1,3.2,3.7,5.4c0.4,1.4,0,2.7-0.8,3.8c-2.2,2.9-6.1,3.2-8.8,0.7c-0.9-0.9-1.9-1.7-2-3
					C192.1,110.1,192.1,109.5,192,108.8C192,108.8,192,108.8,192,108.8z"/>
			</g>
			<g>
				<path class="st57" d="M134,190.7c0.1,0,0.3,0,0.4,0.1c0.3,0.2,0.6,0.3,0.9,0.5c4.8,3.1,9.1,6.8,12.1,11.7c0.5,0.8,1,1.6,1.5,2.4
					c0.8,1.2,1.8,1.1,2.6,0c0.2-0.3,0.3-0.5,0.5-0.8c2.2-4.5,5.3-8.4,8.8-11.9c0.6-0.6,1.2-1.3,1.8-2c0.6,0.3,1.3,0.6,2,0.9
					c-0.1,0.2-0.2,0.3-0.2,0.3c-5.7,5.9-9.8,12.7-11.7,20.7c-0.6,2.5-1,5.1-1.5,7.7c-0.1,0.3-0.1,0.7-0.2,1.2c-1-3-2-5.7-3-8.5
					c-1-2.8-2.2-5.5-3.7-8c-1.5-2.6-3.1-5.1-4.7-7.6C137.8,195.2,136,192.9,134,190.7z"/>
				<path class="st57" d="M156.1,160.1c-0.9,4-0.6,8,0.5,12c-0.9,0.3-1.8,0.6-2.6,0.8c-2.4,0.6-4.8,0.9-7.2,0.8
					c-1.2,0-2.3-0.4-3.6-0.7c1.9-4.1,2.3-8.3,1.3-12.9c0.3,0.3,0.5,0.5,0.7,0.7c1.1,1.5,2.2,3,3.3,4.6c0.4,0.6,0.8,1.3,1.3,1.9
					c0.8,1,1.7,0.9,2.2-0.2c0.4-0.8,0.7-1.6,1.1-2.3C153.8,162.9,154.8,161.4,156.1,160.1z"/>
			</g>
			<path class="st13" d="M157.6,174.7c-3,3.3-4.8,7.3-6.7,11.1c-0.3,0.6-0.6,1.1-0.9,1.8c-0.2-0.3-0.3-0.4-0.4-0.6
				c-0.5-1.2-1-2.5-1.5-3.7c-0.9-2.4-2.1-4.6-3.6-6.7c-0.2-0.3-0.4-0.6-0.6-1c4.5,0.1,8.9,0.1,13.2-1.7
				C157.3,174.1,157.4,174.4,157.6,174.7z"/>
			<g>
				<path class="st24" d="M160.8,189.7c-4.4,3.9-8,8.4-10.6,13.8c-0.2-0.3-0.4-0.6-0.6-0.8c-0.9-1.3-1.7-2.7-2.7-4
					c-2.9-3.8-6.5-6.6-10.6-9c-0.1-0.1-0.3-0.2-0.5-0.3c1.7-1.4,3.4-2.8,4.7-4.5c1.3-1.7,2.4-3.5,3.2-5.7c0.2,0.3,0.4,0.4,0.5,0.6
					c0.6,1.3,1.3,2.6,1.9,4c0.8,1.8,1.4,3.6,2.2,5.3c0.1,0.3,0.2,0.6,0.4,0.9c0.5,1,1.5,1.1,2.3,0.3c0.4-0.4,0.7-0.9,0.9-1.5
					c0.7-1.3,1.3-2.7,2-4c0.2-0.4,0.4-0.7,0.6-1.2C156.1,186.3,158.3,188.1,160.8,189.7z"/>
				<path class="st24" d="M142.8,139.7c3.5-0.1,7-0.2,10.5,0.8c-0.7,0.6-1.4,1.1-2.1,1.6c-0.6,0.5-1.2,1.1-1.8,1.8
					c-0.6,0.6-1,1.4-1.6,2.2C146.6,143.5,144.8,141.6,142.8,139.7z"/>
			</g>
			<g>
				<path class="st13" d="M140.5,296.7c-0.7-1-1.4-2-2.1-2.9c-0.1-0.2-0.2-0.4-0.3-0.6c-0.3-0.5-0.7-0.7-1.3-0.7
					c-0.5,0.1-0.9,0.4-1,1.1c-0.2,1-0.3,2-0.4,3c-0.1,0.5-0.2,1-0.3,1.5c-0.1,0-0.2,0-0.2,0c-0.2-0.4-0.5-0.9-0.6-1.3
					c-0.3-1.1-0.6-2.3-0.9-3.4c-0.2-0.7-0.3-1.3-1.2-1.4c-0.7-0.1-1.2,0.3-1.6,1.2c-0.4,1-0.7,2-1.1,3c-0.2,0.4-0.4,0.9-0.7,1.2
					c-0.2,0.2-0.5,0.4-0.8,0.6c-0.5,0.2-0.8,0-0.8-0.5c0-0.3,0-0.7,0.1-1c0.3-1.9,1.1-3.6,1.9-5.3c0.9-2,1.8-3.9,2.4-6
					c0.2-0.5,0.3-1.1,0.5-1.7c0.2,0.1,0.4,0.2,0.6,0.3c1.5,0.9,3,1.9,4.6,2.8c0.4,0.2,0.6,0.5,0.7,0.9c0.8,2.4,1.6,4.8,2.4,7.3
					c0.2,0.7,0.5,1.3,0.4,2C140.7,296.6,140.6,296.7,140.5,296.7z"/>
				<path class="st13" d="M153,298.8c-0.6-0.9-0.8-1.6-0.8-2.5c0-0.7-0.1-1.3-0.1-2c0-0.6-0.4-1-0.9-1.1c-0.6-0.1-1,0.2-1.2,0.7
					c-0.5,0.8-0.9,1.5-1.4,2.3c-0.2,0.4-0.5,0.7-1,0.9c0-0.3-0.1-0.5,0-0.8c0.3-1.1,0.6-2.3,0.9-3.4c0.4-1.2,0.8-2.4,1.2-3.8
					c3.2-0.5,6.3-1.6,9.5-2.8c0.1,0.4,0.1,0.7,0.2,1c0.6,2.2,1.2,4.3,1.8,6.5c0.5,1.8,0.9,3.5,0.8,5.4c0,0.4-0.1,0.9-0.2,1.5
					c-0.7-0.7-1-1.4-1.3-2.1c-0.8-1.7-1.7-3.4-2.5-5.1c-0.2-0.5-0.5-0.9-0.8-1.3c-0.9-1-2.1-0.7-2.5,0.6c-0.3,1.2-0.6,2.5-0.9,3.7
					C153.6,297.2,153.3,297.9,153,298.8z"/>
			</g>
			<g>
				<g>
					<path class="st54" d="M173.4,180.3c-4.3-0.3-8-1.5-11.2-4c-1.2-0.9-2-2.1-2.6-3.5c-2.1-5.3-2-10.5,0.7-15.6
						c2.3-4.3,5.5-7.7,10.1-9.6c2.2-1,4.5-1.6,7-1.6c3.3-0.1,6.1,1.1,8.4,3.4c1.7,1.7,2.9,3.6,3.8,5.8c1.1,3,1.8,6,1.7,9.2
						c0,2-0.4,3.9-1,5.7c-0.8,2.4-2.2,4.3-4.2,5.8c-2.7,2.1-5.8,3.3-9.2,4C175.7,180,174.4,180.2,173.4,180.3z"/>
					<path class="st54" d="M109,163.3c0.1-3.5,1.5-7.4,4.9-10.6c4.1-3.8,8.9-5,14.3-3.8c3.9,0.9,7.3,2.7,9.9,5.7
						c4.1,4.7,5.2,10.1,3,16c-0.8,2-1.8,3.9-3.3,5.5c-2.4,2.5-5.3,3.7-8.6,4.2c-3.7,0.5-7.3,0.1-10.8-1.1c-1.7-0.6-3.1-1.4-4.5-2.5
						c-1.2-0.9-2-2.1-2.6-3.4C109.8,170.5,109,167.5,109,163.3z"/>
				</g>
				<g>
					<circle class="st95" cx="125.1" cy="164.3" r="12.6"/>
					<circle class="st95" cx="174.7" cy="164.3" r="12.6"/>
				</g>
				<g>
					<path class="st25" d="M121.2,162.2c-0.4-0.1-0.9-0.2-1.3-0.3c-1.1-0.4-1.7-1.4-1.6-2.6c0.1-1.9,1.5-3.5,3.4-3.9
						c1.5-0.3,3.2,1,3.3,2.6c0.1,1.7-1.2,3.6-2.9,4.1C121.8,162.1,121.5,162.1,121.2,162.2z"/>
					<path class="st25" d="M170.1,162.2c-0.4-0.1-0.9-0.2-1.3-0.3c-1.1-0.4-1.7-1.4-1.6-2.6c0.1-1.9,1.5-3.5,3.4-3.9
						c1.5-0.3,3.2,1,3.3,2.6c0.1,1.7-1.2,3.6-2.9,4.1C170.8,162.1,170.5,162.1,170.1,162.2z"/>
				</g>
			</g>
		</g>
	</g>
</g>
</svg>
