<?xml version="1.0" encoding="iso-8859-1"?>
<!-- Generator: Adobe Illustrator 21.1.0, SVG Export Plug-In . SVG Version: 6.00 Build 0)  -->
<svg version="1.1" id="Calque_1" xmlns="http://www.w3.org/2000/svg" xmlns:xlink="http://www.w3.org/1999/xlink" x="0px" y="0px"
	 width="432px" height="432px" viewBox="0 0 432 432" enable-background="new 0 0 432 432" xml:space="preserve">
<g>
	<g>
		<path fill="#F39200" d="M188.441,339.579l-17.491-2.588c0,0-10.561,26.456-4.993,27.607s7.381-6.614,7.381-6.614
			s-1.105,9.49,3.861,9.202c4.966-0.288,4.287-7.764,4.287-7.764s0.68,8.065,4.705,7.771
			C190.217,366.898,191.554,352.52,188.441,339.579z"/>
		<path fill="#F39200" d="M243.559,339.579l17.491-2.588c0,0,10.561,26.456,4.993,27.607c-5.568,1.15-7.381-6.614-7.381-6.614
			s1.105,9.49-3.861,9.202c-4.966-0.288-4.287-7.764-4.287-7.764s-0.68,8.065-4.705,7.771
			C241.783,366.898,240.446,352.52,243.559,339.579z"/>
	</g>
	<g>
		<path fill="#634E42" d="M341.03,122.045c-5.181,2.142-10.112,7.419-10.814,6.019c1.026-1.152,42.599-63.57,31.387-63.263
			c-7.2,0.197-23.892,32.47-25.055,33.192c-0.414-1.15-1.425-25.571-5.753-25.458c-13.375,0.35,3.844,32.21-14.828,57.258
			c-8.722,11.7-20.562,23.677-17.353,8.804c2.923-13.555-8.744-27.809-11.829,4.263c-2.096,21.778-10.303,22.919-25.315,20.158
			c2.832,2.985,6.293,5.51,9.432,7.824c2.488,1.834,4.917,3.513,7.422,4.992c0.114-0.672,0.888-1.311,2.56-2.383
			c3.504-2.245,12.307-10.618,25.196-17.202c26.456-13.516,48.494-25.632,44.963-33.548
			C350.151,120.702,347.06,119.553,341.03,122.045z"/>
		<path fill="#634E42" d="M90.97,122.045c5.181,2.142,10.112,7.419,10.814,6.019c-1.026-1.152-42.599-63.57-31.387-63.263
			c7.2,0.197,23.892,32.47,25.055,33.192c0.414-1.15,1.424-25.571,5.753-25.458c13.375,0.35-3.844,32.21,14.828,57.258
			c8.722,11.7,20.562,23.677,17.353,8.804c-2.923-13.555,8.744-27.809,11.829,4.263c2.096,21.778,10.303,22.919,25.315,20.158
			c-2.832,2.985-6.293,5.51-9.432,7.824c-2.488,1.834-4.917,3.513-7.422,4.992c-0.114-0.672-0.888-1.311-2.56-2.383
			c-3.504-2.245-12.307-10.618-25.196-17.202c-26.456-13.516-48.494-25.632-44.963-33.548
			C81.849,120.702,84.94,119.553,90.97,122.045z"/>
	</g>
	<g>
		<path d="M216,151.829c-45.771,0-82.876,0-82.876,98.764s0,98.764,82.876,98.764s82.876,0,82.876-98.764
			S261.771,151.829,216,151.829z"/>
	</g>
	<path fill="#FFFFFF" d="M280.128,236.243c-2.27-43.173-15.205-60.41-34.438-60.41C216,175.833,216,211.014,216,211.014
		s0-34.924-30.738-34.924c-18.762,0-31.18,17.716-33.391,60.152c56.308,28.412,34.565,47.614-0.333,29.632
		c0.304,61.553,4.574,61.566,64.461,61.566s64.157-0.013,64.461-61.566C245.565,283.856,223.821,264.655,280.128,236.243z"/>
	<g>
		<path d="M184.91,194.357c-6.194,0-11.215,6.18-11.215,13.803c0,11.291,5.021,13.803,11.215,13.803
			c8.148,0,10.637-6.202,11.215-13.803C196.796,199.342,191.104,194.357,184.91,194.357z M186.009,214.138
			c-0.592,0-1.072-0.48-1.072-1.072s0.48-1.072,1.072-1.072s1.072,0.48,1.072,1.072S186.6,214.138,186.009,214.138z M185.15,209.598
			c-2.25,0-4.074-2.146-4.074-4.793s1.824-4.793,4.074-4.793c2.25,0,4.074,2.146,4.074,4.793S187.4,209.598,185.15,209.598z"/>
		<path d="M247.036,194.357c-6.194,0-11.215,6.18-11.215,13.803c0,11.291,5.021,13.803,11.215,13.803
			c8.148,0,10.637-6.202,11.215-13.803C258.922,199.342,253.23,194.357,247.036,194.357z M248.135,214.138
			c-0.592,0-1.072-0.48-1.072-1.072s0.48-1.072,1.072-1.072s1.072,0.48,1.072,1.072S248.727,214.138,248.135,214.138z
			 M247.276,209.598c-2.25,0-4.074-2.146-4.074-4.793s1.824-4.793,4.074-4.793s4.074,2.146,4.074,4.793
			S249.526,209.598,247.276,209.598z"/>
	</g>
	<path fill="#F39200" d="M221.019,218.705c-0.496,0-9.15,0-9.15,0c-6.71,0,2.673,16.794,4.373,16.794
		C218.079,235.499,224.814,218.705,221.019,218.705z"/>
</g>
<g>
</g>
<g>
</g>
<g>
</g>
<g>
</g>
<g>
</g>
<g>
</g>
</svg>
