<?xml version="1.0" encoding="utf-8"?>
<!-- Generator: Adobe Illustrator 21.1.0, SVG Export Plug-In . SVG Version: 6.00 Build 0)  -->
<svg version="1.1" id="Calque_1" xmlns="http://www.w3.org/2000/svg" xmlns:xlink="http://www.w3.org/1999/xlink" x="0px" y="0px"
	 viewBox="0 0 432 432" style="enable-background:new 0 0 432 432;" xml:space="preserve">
<style type="text/css">
	.st0{fill:#AE3034;}
	.st1{fill:#3E904D;}
	.st2{fill:#F7EB5B;}
	.st3{fill:#221F20;}
	.st4{fill:#BC9A72;}
	.st5{fill:#FFFFFF;}
	.st6{fill:#E9963E;}
	.st7{fill:#EFB156;}
	.st8{fill:#5EB057;}
	.st9{fill:#A27D56;}
	.st10{fill:#BD8346;}
	.st11{fill:#DD658D;}
	.st12{fill:#404041;}
	.st13{fill:#81BF8E;}
	.st14{fill:#ED7E87;}
	.st15{fill:#B0202B;}
	.st16{fill:#BA9453;}
	.st17{fill:#B99352;}
	.st18{fill:#45A49C;}
	.st19{fill:#59B178;}
	.st20{fill:#C9A25F;}
	.st21{fill:#BCBDBF;}
	.st22{fill:#C7345D;}
	.st23{fill:#2E3192;}
	.st24{fill:#8CC63F;}
	.st25{fill:#22B573;}
	.st26{fill:#333333;}
	.st27{fill:#B1A097;}
	.st28{fill:#574B43;}
	.st29{fill:#85328A;}
	.st30{fill:#53A7DB;}
	.st31{fill:#912D61;}
	.st32{fill:#835F41;}
	.st33{fill:#929496;}
	.st34{fill:#808080;}
	.st35{fill:#6F4E2F;}
	.st36{fill:#A6A8AA;}
	.st37{fill:#DF643A;}
	.st38{fill:#98C355;}
	.st39{fill:#D35998;}
	.st40{fill:#6F665A;}
	.st41{fill:#BFB49D;}
	.st42{fill:#AE82B3;}
	.st43{fill:#B3B3B3;}
	.st44{fill:#5E328B;}
	.st45{fill:#DA404D;}
	.st46{fill:#A994C1;}
	.st47{fill:#8B575B;}
	.st48{fill:#C9C0AF;}
	.st49{fill:#A67C52;}
	.st50{fill:#86A391;}
	.st51{fill:#6595A9;}
	.st52{fill:#483E49;}
	.st53{fill:#F6BA00;}
	.st54{fill:#FC8080;}
	.st55{fill:#1A1A1A;}
	.st56{fill:#749FA8;}
	.st57{fill:#ABC337;}
	.st58{fill:#F67E20;}
	.st59{fill:#52A9B2;}
	.st60{fill:#925A8B;}
	.st61{fill:#DD8383;}
	.st62{fill:#929C3B;}
	.st63{fill:#4D4D4D;}
	.st64{fill:#C69C6D;}
	.st65{fill:#DBB753;}
	.st66{fill:#9EB9B4;}
	.st67{fill:#F2F2F2;}
	.st68{fill:#E2C87F;}
	.st69{fill:#E8BDC4;}
	.st70{fill:#D86D29;}
	.st71{fill:#E0CDAD;}
	.st72{fill:#E6E6E6;}
	.st73{fill:#CCD6CE;}
	.st74{fill:#9FD3C7;}
	.st75{fill-rule:evenodd;clip-rule:evenodd;}
	.st76{fill:#E5BE51;}
	.st77{fill:#B3A693;}
	.st78{fill:#717370;}
	.st79{fill:#9FB14D;}
	.st80{fill:#736357;}
	.st81{fill:#51642D;}
	.st82{fill:#743315;}
	.st83{fill:#0071BC;}
	.st84{fill:#9C1B20;}
	.st85{fill:#009245;}
	.st86{fill:#F6E6CC;}
	.st87{fill:#84CBCB;}
	.st88{fill:#7D9B39;}
	.st89{fill:#3C4E5C;}
	.st90{fill:#998675;}
	.st91{fill:#C7B299;}
	.st92{fill:#9B2F10;}
	.st93{fill:#E7A136;}
	.st94{fill:#978E43;}
	.st95{fill:#7D5E18;}
	.st96{fill:#F2C545;}
	.st97{fill:#E07D28;}
	.st98{fill:#E0D2BE;}
	.st99{fill:#C4A18D;}
	.st100{fill:#BCBD84;}
	.st101{fill:#5F645E;}
	.st102{fill:#CAC2C2;}
	.st103{fill:#959736;}
	.st104{fill:#B0D24A;}
	.st105{fill:#754C24;}
	.st106{fill:#603813;}
	.st107{fill:#8C4A33;}
	.st108{fill:#0B493A;}
	.st109{fill:#C17953;}
	.st110{fill:#F7C64D;}
	.st111{fill:#005371;}
	.st112{fill:#D3E2DC;}
	.st113{fill:#3E8A64;}
	.st114{fill:#299798;}
	.st115{fill:#731115;}
	.st116{fill:#4F4544;}
	.st117{fill:#4C6047;}
	.st118{fill:#4C301C;}
	.st119{fill:#867274;}
	.st120{fill:#C13F47;}
	.st121{fill:#BC8AA8;}
	.st122{fill:#634E42;}
	.st123{fill:#E1B8D7;}
	.st124{fill:#6D866B;}
	.st125{fill:#422918;}
	.st126{fill:#925F36;}
	.st127{fill:#1D1D1B;}
	.st128{fill:#00A099;}
	.st129{fill:#F8B133;}
	.st130{fill:#006633;}
	.st131{fill:#683B11;}
	.st132{fill:#B17F49;}
	.st133{fill:#A3897A;}
	.st134{fill:#E488B5;}
	.st135{fill:#93C01F;}
	.st136{fill:#EDE287;}
	.st137{fill:#E9CB9A;}
	.st138{fill:#EAB8CC;}
	.st139{fill:#7E4E24;}
	.st140{fill:#E5332A;}
	.st141{fill:#F29100;}
</style>
<g>
	<path class="st1" d="M286.2,279.3c0.3,0.2,0.6,0.4,0.8,0.5c-0.4-0.7-0.9-1.3-1.5-1.9c-0.5-0.4-1-0.8-1.5-1.3
		c-0.2,0.3-0.4,0.5-0.7,0.8C284.3,278.1,285.2,278.7,286.2,279.3z"/>
	<g>
		<path class="st21" d="M210.7,137.7c27.6-0.1,40.8,3.4,51.7,13c12,10.5,37.2,78.8,7.4,52.7c-4.2-3.7-7-9.2-9.7-14.6
			c5.6,38,36.9,87.9-49.3,88.7c-86.2,0.1-54.9-50.7-49.3-88.7c-2.8,5.4-5.5,11-9.7,14.6c-29.7,26.1-4.5-42.1,7.4-52.7
			C170.2,141.1,182.2,137.4,210.7,137.7z"/>
		<g>
			<path class="st42" d="M286.2,279.3c-1-0.5-1.9-1.2-2.8-1.8c1.5-1.9,2.9-3.6,4.1-5.4c1.2-1.8,2.1-3.8,2.3-6
				c0.5-6.9-3.5-12.9-10-14.6c-3.7-0.9-7.3-0.7-10.8,0.3c-4.1,14.9-19,25.4-58.2,25.7c-36.7,0-52.1-9.2-57.2-22.6
				c-1.5,0.1-2.8,0.1-4.1,0.3c-2.9,0.4-5.8,1.2-8.2,3.1c-3.9,3.1-6.6,7.1-8.1,11.9c-0.9,2.8-0.5,5.3,1.2,7.7
				c0.4,0.6,0.9,1.2,1.3,1.8c-0.4,0.3-0.8,0.6-1.1,0.9c-3.4,3-6.1,6.6-7.5,11.1c-2.1,6.6,0.8,12.5,7.1,14.4c0.8,0.2,1.6,0.5,2.5,0.7
				c-0.2,0.6-0.3,0.9-0.4,1.2c-1.2,2.9-1.8,6-2.2,9.2c-0.5,4.2,0.5,8.1,2.8,11.5c1.7,2.4,3.8,4.3,6.8,4.7c2.3,0.3,4.5-0.4,6.7-1.2
				c0.8-0.3,1.5-0.6,2.4-1c0.3,1.1,0.6,1.9,0.8,2.8c0.9,3.7,3.1,6.2,6.3,7.8c2.8,1.4,5.6,1.6,8.6,1.1c3.3-0.6,6.3-1.9,9.2-4.3
				c0.6,0.9,1,1.6,1.5,2.4c2.1,3.3,4.9,5.8,8.4,7c9.1,3.2,17.4,2,24.5-5.2c1-1,1.8-2.1,2.8-3.1c0.4-0.4,0.8-0.8,1.3-1.2
				c3.7,3.6,8.1,4.8,12.7,5c4.8,0.3,9-1.4,12.2-5.2c9.5,7.1,21,3.1,24-8.6c2.4,1.1,5,1.1,7.6,0.9c5.4-0.6,9.3-3.3,11-8.9
				c0.3-1.1,0.6-2.2,0.9-3.3c0.3-1.2,0.5-2.3,0.8-3.4c4.1-1.3,5.1-1.8,6.7-4.2C298.6,301.1,298.2,285.9,286.2,279.3z"/>
			<path class="st42" d="M270,133.1c-1.7-0.7-3.5-1.1-5.3-1.4c-1.5-0.3-3.1-0.4-4.9-0.6c0.5-0.6,1-1.1,1.3-1.6c0.9-1.5,2-3,2.7-4.5
				c1-2.2,0.8-4.5-0.5-6.5c-3-4.7-7.6-7.9-13.5-9.1c-6.2-1.3-12.2-0.1-17.8,2.4c-0.5,0.2-1,0.4-1.7,0.7c0.1-0.7,0.2-1.1,0.2-1.6
				c0.7-7.8-2.8-13-11.2-15.4c-3.4-1-6.7-0.5-10.1,0.2c-6.5,1.3-11.7,4.3-15.3,9.3c-1.5,2.1-2.8,4.3-4.2,6.5
				c-0.3,0.4-0.5,0.9-0.9,1.5c-0.7-0.7-1.2-1.3-1.8-1.9c-1.1-1-2.3-2-3.6-2.8c-1.9-1.2-4-1.5-6.3-1.2c-4.1,0.5-7,2.8-9.4,5.6
				c-2.2,2.5-2.9,5.4-2.3,8.6c0.1,0.5,0.1,1,0.2,1.7c-0.8-0.4-1.4-0.6-2-0.9c-2.6-1-5.2-1.4-8-0.7c-2.2,0.6-4.2,1.5-5.9,2.9
				c-3.1,2.4-4.2,5.4-3.5,9c0.6,2.8,2.1,5.2,4.5,7.2c1.4,1.1,2.9,2.2,4.6,3.4c-5.7,1.4-9.4,4.5-11.6,9.1c-2.2,4.6-0.7,9.4,3.7,12.4
				c2,1.3,4.1,2.3,6.5,3c3.6,0.9,7.2,1.3,10.9,1.1c0.8,0,1.5-0.1,2.7-0.1c-0.6,0.7-1,1.1-1.3,1.5c-5.3,5.7-4.7,12.6-0.8,18.1
				c1.5,2.1,3.8,3.5,6.6,4.1c2.8,0.6,5.6,0.6,8.3,0.1c5.4-1,10.5-2.5,15.3-5c0.3-0.2,0.7-0.3,1.1-0.4c0.2,0.7,0.3,1.3,0.5,1.8
				c1.7,5.7,5.4,9.6,11.9,11.1c1.3,0.3,2.7,0.6,4.1,0.7c6.3,0.7,11.5-0.9,15.1-5.7c1.4-1.9,2.4-3.9,3.6-5.9c0.4-0.7,0.7-1.4,1-1.9
				c1.2,0.9,2.2,1.7,3.2,2.5c2.2,1.8,4.8,2.9,7.7,2.9c1.9,0,3.9-0.2,5.7-0.7c6.8-1.7,12.4-8.3,12-14.4c-0.2-4-1.3-7.7-3-11.4
				c-0.4-0.8-0.8-1.6-1.2-2.6c1.2-0.2,2.1-0.3,3.1-0.4c5.6-0.8,10.6-2.7,14.8-6.1c2.4-2,4.2-4.3,4.7-7.3
				C281.7,143.2,277.3,136,270,133.1z"/>
		</g>
		<g>
			<g>
				<path class="st43" d="M261.4,343.9c-0.1-0.2-0.2-0.4-0.2-0.6c-2.2-5.5-3.8-11.2-5-17c-3.3-16.2,0.2-15.6-2.6-17.7
					c-3-2.1-6.7-4.8-18-3.5c-2.7,0.3-5.2,1.4-7.7,2.5c-2.2,1.1-2.5,1.7-2.2,4.1c0.8,5.7,1.6,11.3,2.3,17c0.7,6.1,1.9,12,3.4,17.9
					c5.7-0.1,10.9,0.1,16.1-0.4C252.3,345.8,256.9,344.7,261.4,343.9z"/>
				<path d="M235.7,359.9c2.4,6.1,37.4,3.5,31-5.8c-2.2-3.2-3.9-6.6-5.4-10.2c-4.5,0.9-9.1,1.9-13.8,2.4c-5.2,0.5-10.4,0.3-16.1,0.4
					c0.5,2,1.1,4.1,1.7,6.1C233.9,355.1,234.8,357.5,235.7,359.9z"/>
			</g>
			<g>
				<path class="st43" d="M174.1,343.9c0.1-0.2,0.2-0.4,0.2-0.6c2.2-5.5,3.8-11.2,5-17c3.3-16.2-0.2-15.6,2.6-17.7
					c3-2.1,6.7-4.8,18-3.5c2.7,0.3,5.2,1.4,7.7,2.5c2.2,1.1,2.5,1.7,2.2,4.1c-0.8,5.7-1.6,11.3-2.3,17c-0.7,6.1-1.9,12-3.4,17.9
					c-5.7-0.1-10.9,0.1-16.1-0.4C183.2,345.8,178.6,344.7,174.1,343.9z"/>
				<path d="M199.8,359.9c-2.4,6.1-37.4,3.5-31-5.8c2.2-3.2,3.9-6.6,5.4-10.2c4.5,0.9,9.1,1.9,13.8,2.4c5.2,0.5,10.4,0.3,16.1,0.4
					c-0.5,2-1.1,4.1-1.7,6.1C201.6,355.1,200.7,357.5,199.8,359.9z"/>
			</g>
			<g>
				<path d="M300.8,352.5c4.7-5.4,8.4-11.5,11.3-18.1c1.5-3.4,1-4.1-2.5-5c-2.1-0.5-4.1-1.1-6.1-1.9c-6.9,11.3-15.2,21.3-27.2,28.2
					c0.5,0.9,1,1.7,1.5,2.6C282.4,366.2,295.7,358.5,300.8,352.5z"/>
				<path class="st43" d="M297.5,324.6c-4.2-2.7-8-6-10.8-10.2c-0.4,0.1-0.8,0.3-1.3,0.4c-0.2,1.1-0.5,2.2-0.8,3.4
					c-0.3,1.1-0.5,2.2-0.9,3.3c-1.7,5.6-5.6,8.3-11,8.9c-2.6,0.3-5.1,0.2-7.6-0.9c-0.3,1.1-0.7,2.1-1.1,3.1c0.2,0.4,0.4,0.9,0.6,1.3
					c3.4,7.5,7.5,14.7,11.6,21.8c12-6.8,20.3-16.8,27.2-28.2C301.4,326.8,299.4,325.8,297.5,324.6z"/>
			</g>
			<g>
				<path d="M132.2,358.1c-4.7-5.4-8.4-11.5-11.3-18.1c-1.5-3.4-1-4.1,2.5-5c2.1-0.5,4.1-1.1,6.1-1.9c6.9,11.3,15.2,21.3,27.2,28.2
					c-0.5,0.9-1,1.7-1.5,2.6C150.6,371.8,137.3,364,132.2,358.1z"/>
				<path class="st43" d="M160,341.7c-3.2-1.6-5.4-4.1-6.3-7.8c-0.2-0.9-0.5-1.7-0.8-2.8c-0.9,0.4-1.6,0.7-2.4,1
					c-2.2,0.8-4.3,1.6-6.7,1.2c-2.9-0.4-4.9-2.1-6.6-4.4c-0.6,0.4-1.2,0.8-1.8,1.2c-1.9,1.2-3.9,2.2-6,2.9
					c6.9,11.3,15.2,21.3,27.2,28.2c3.4-6,6.8-12,9.9-18.2C164.3,343.1,162.1,342.8,160,341.7z"/>
			</g>
		</g>
		<g>
			<path d="M215,254.3c0.4-0.1,0.9-0.2,1.3-0.5c0.8-0.6,1.6-1.3,2.1-2.1c0.7-1.1,1.3-2.3,1.9-3.6c0.5-1.2,1.4-1.8,2.4-1.5
				c1.1,0.3,1.8,1.4,1.6,2.5c0,0.2-0.1,0.4-0.1,0.6c-7.7,16.5-7.5-2.4-7.3,21.1c0,0.5,0,1-0.2,1.4c-0.3,0.8-0.9,1.2-1.6,1.2
				c-0.7-0.1-1.4-0.5-1.6-1.2c-0.2-0.4-0.2-0.9-0.2-1.4c0.1-23.5,0.5-4.2-7.3-21.1c-0.1-0.2-0.1-0.4-0.1-0.6
				c-0.1-1.2,0.6-2.3,1.6-2.5c1-0.3,1.9,0.4,2.4,1.5c0.5,1.2,1.1,2.4,1.9,3.6c0.5,0.8,1.3,1.5,2.1,2.1
				C214.1,254.1,214.6,254.3,215,254.3z"/>
			<g>
				<path d="M251.7,217c-3.2-1.2-6.6-0.8-9.1,1.5c-2,1.8-3.4,4-4.3,6.5c-0.7,2.1-0.7,4.1-0.1,6.2c2.2,7.5,21.1,11.3,20.2-6
					C257.9,222.1,257.7,219.2,251.7,217z"/>
				<path class="st5" d="M257.2,225.9c0-1.4-1.2-2.6-2.6-2.6c-1.3,0-2.3,0.9-2.5,2.1c-0.2,0-0.3,0-0.5,0c-1.9,0-3.5,1.6-3.5,3.5
					c0,1.9,1.6,3.5,3.5,3.5c1.9,0,3.5-1.6,3.5-3.5c0-0.2,0-0.3,0-0.5C256.2,228.2,257.2,227.2,257.2,225.9z"/>
			</g>
			<g>
				<path d="M178,217c3.2-1.2,6.6-0.8,9.1,1.5c2,1.8,3.4,4,4.3,6.5c0.7,2.1,0.7,4.1,0.1,6.2c-2.2,7.5-21.1,11.3-20.2-6
					C171.8,222.1,172,219.2,178,217z"/>
				<path class="st5" d="M173.6,227c0-1.4,1.2-2.6,2.6-2.6c1.3,0,2.3,0.9,2.5,2.1c0.2,0,0.3,0,0.5,0c1.9,0,3.5,1.6,3.5,3.5
					c0,1.9-1.6,3.5-3.5,3.5c-1.9,0-3.5-1.6-3.5-3.5c0-0.2,0-0.3,0-0.5C174.5,229.3,173.6,228.3,173.6,227z"/>
			</g>
		</g>
		<g>
			<path class="st44" d="M290.8,69.3c-1.8-3.6-4.7-5.3-9-4.2c-1.5,0.4-2.9,1.2-4.1,2.1c-3.5,2.6-5.7,6.2-7.1,10.3
				c-0.1,0.3-0.2,0.6-0.3,0.9c-0.6-1.2-1.1-2.3-1.7-3.3c-1.6-2.7-3.6-4.9-6.4-6.3c-2.5-1.3-6.8-1.4-9.3,1.7c-2.8,3.5-3.5,8.3,0,12.4
				c1.8,2.1,3.9,3.6,6.5,4.5c0.3,0.1,0.5,0.2,0.9,0.3c-1.3,0.4-2.5,0.9-3.7,1.2c-2.6,0.8-4.7,2.3-6.6,4.2c-0.4,0.4-0.8,1-1.1,1.5
				c-0.7,1.2-0.6,2.3,0.1,3.5c0.8,1.3,2,1.9,3.4,2.2c1.9,0.3,3.8,0.2,5.7-0.3c1.9-0.5,3.7-1.2,5.5-1.7c0.4-0.1,0.8-0.3,1.3-0.4
				c-0.1,1.2-0.3,2.4-0.3,3.5c0,2.8,1.2,5.1,2.8,7.3c1,1.3,2.1,2.4,3.5,3.2c3.1,1.7,6.7,0.6,8.3-2.6c0.5-1.1,0.7-2.2,0.8-3.4
				c0.1-1.9-0.3-3.8-1-5.5c-0.3-0.7-0.5-1.4-0.8-2.3c0.5,0.3,0.9,0.6,1.2,0.8c1.9,1.2,4,1.9,6.2,1.4c3.4-0.7,5.7-2.8,6.6-6.3
				c0.8-3.5-0.3-6.2-3.1-8.4c-1.2-0.9-2.6-1.6-4.1-2c-0.3-0.1-0.6-0.2-1.1-0.4c0.3-0.2,0.5-0.2,0.6-0.3c1.9-0.8,3.5-1.9,4.9-3.4
				C291.9,76.6,292.6,72.8,290.8,69.3z"/>
			<path class="st1" d="M273.2,115.4c-0.5,0.2-1.1,0.5-1.6,0.9c-4.6,3-9.3,5.8-13.8,8.9c-2.5,1.8-4.7,4-7,6
				c-0.4,0.4-0.7,0.8-1.4,1.5c2.6-7.9,9.9-20.1,15.7-27.8c-0.4-1.1-0.7-2.3-0.7-3.6c0-1.1,0.2-2.2,0.3-3.5c-0.4,0.1-0.8,0.3-1.3,0.4
				c-0.6,0.2-1.1,0.4-1.7,0.6c-3.7,4.7-7.2,9.7-10.3,14.9c-0.3,0.5-0.6,0.9-1.2,1.7c-0.2-2.4-0.4-4.4-0.6-6.3
				c-0.4-3.6-1.1-7.2-2.9-10.3c-0.8-1.5-1.9-2.9-3.2-4c-1.6-1.3-3.2-1-4.6,0.5c-0.4,0.5-0.8,1.1-1.1,1.7c-2.7,6.6-4.7,13.3-4.9,20.5
				c-0.3,9.7,3.7,16.3,7.5,25.2c0.3,0.7-1.9,4.2-1.9,4.9c-0.1,1.6,0.3,2.9,1.6,4c1.2,1,2.9-1.6,4.7-2.7c0.2-0.1,3.2,0.4,4.5,0.6
				c6.9,0.7,8.6,1.1,13.6-3.5c5.3-4.8,9.4-10.6,12.6-16.9c1.1-2.2,1.8-4.6,2.4-7c0.3-1.3,0.3-2.9,0.1-4.2
				C277.6,115.3,275.6,114.3,273.2,115.4z"/>
		</g>
		<path class="st1" d="M287.7,280.8c-0.2-0.3-0.4-0.6-0.6-1c-0.3-0.2-0.5-0.4-0.8-0.5c-1-0.5-1.9-1.2-2.8-1.8
			c0.2-0.3,0.4-0.6,0.7-0.8c-2.4-2-5-3.6-7.9-4.8c-3.3-1.3-6.6-2.3-10.6-2c0.5-0.6,0.7-0.9,0.9-1.1c2.2-2.7,4.1-5.7,5.5-9
			c0.7-1.6,1.5-3.3,2.2-5c0.2-0.6,0.3-1.3,0.3-2c0-0.8-0.3-1.4-0.7-1.9c-1.2,0.1-2.5,0.3-3.7,0.5c-0.1,0.1-0.1,0.2-0.2,0.3
			c-0.3,0.7-0.6,1.5-0.8,2.2c-1.8,5.3-4.5,10-8.4,14c-1.6,1.6-3.3,3-5.6,3.7c-1.3,0.4-2.6,1.1-3.9,1.6c-24,10.3-68,5.1-76.3,4.4
			c-4.4-0.8-8.8-2.1-12.5-5.7c-2.6-2.6-4.9-5.4-6.6-8.7c-1.2-2.4-2.5-4.8-3.8-7.2c-0.2-0.4-0.5-0.8-0.8-1.1c-0.5,0-1.1,0.1-1.6,0.2
			c-0.7,0.1-1.4,0.2-2,0.4c-0.4,0.7-0.3,1.6,0.2,2.6c1.2,2.4,2.4,4.7,3.6,7.1c1.9,3.7,4.4,6.9,7.3,9.8c2.4,2.3,5.1,4.1,8.3,5.1
			c1.1,0.3,2.1,0.7,3.3,1.1c-0.4,0.5-0.7,0.8-1,1.1c-3.1,3.4-6.1,6.8-8.4,10.7c-1.6,2.7-3,5.5-3.5,8.6c-0.4,2.6-0.1,5.1,1.5,7.3
			c1.4,1.9,3.3,2.9,5.6,2.4c1.3-0.3,2.6-0.8,3.8-1.5c3.5-1.9,5.7-5,7.7-8.4c0.3-0.5,0.5-0.9,0.9-1.5c0.4,1.3,0.7,2.5,1.1,3.5
			c0.7,1.9,1.7,3.6,3.3,4.9c3.2,2.7,7.2,2.1,9.4-1.6c0.9-1.5,1.5-3.2,1.7-5c1.2-8.5-1.6-13.6-6-19.2c0.2,0,39.5,7.1,65.9-4.5
			c0.4-0.2,0.9-0.3,1.4-0.5c0,0.7,0,1.2,0,1.7c-0.2,3.9-0.1,7.8,0.4,11.7c0.3,2.6,0.7,5.2,1.7,7.6c1.7,4.1,4.5,7.2,8.8,8.7
			c4.1,1.4,7.9-0.5,9-4.4c0.4-1.3,0.5-2.7,0.4-4c-0.3-4.2-1.7-8.1-3.8-11.7c-0.2-0.3-0.3-0.6-0.6-1.3c0.9,0.4,1.5,0.7,2.1,1
			c2.9,1.5,5.9,2.1,9.2,1.9c2-0.1,3.9-0.8,5.5-2C288.3,285.3,288.8,283,287.7,280.8z M174.8,291.3c-1,4.1-2.7,7.8-5.3,11.2
			c-1.3,1.6-2.7,2.9-4.6,3.8c-1.7,0.9-2.6,0.4-2.9-1.5c-0.3-1.5-0.1-2.9,0.5-4.2c1-2.2,2-4.5,3.3-6.5c2.4-3.6,5.2-6.9,8.3-9.9
			c0.4-0.4,0.8-0.7,1.4-1.2C175.6,286,175.5,288.7,174.8,291.3z M187.2,302.5c-0.2,0.8-0.7,1.6-1.1,2.4c-0.4,0.6-1,0.7-1.6,0.2
			c-1-0.8-1.7-1.8-2.1-3c-0.6-2-1.2-3.9-1.4-6c-0.4-3.2-0.5-6.5-0.7-9.8c-0.1-0.8,0.1-1.6,0.2-2.7
			C187.2,289.2,188.8,297,187.2,302.5z M265.7,302.7c-1.3-0.6-2.5-1.5-3.6-2.5c-1.6-1.6-2.3-3.6-2.7-5.8c-0.9-4.6-1.2-9.2-1-13.9
			c0-0.3,0.1-0.7,0.1-1.4c0.4,0.6,0.7,0.8,0.9,1.1c1.9,2.6,3.7,5.3,5.5,7.9c2.3,3.4,3.7,7.1,4.1,11.2c0,0.4,0,0.8,0,1.2
			C268.9,302.7,267.7,303.6,265.7,302.7z M278.1,284c-1.9-0.3-3.6-0.9-5.2-1.9c-3.5-2.2-7-4.5-10.5-6.8c0,0,0-0.1,0-0.2
			c5.3-2.5,18.2,2.3,21,7.8C281.6,284.2,279.9,284.3,278.1,284z"/>
		<path class="st44" d="M242,277.6c-1.2-2.1-2.9-2.9-5.4-2.1c-0.9,0.3-1.6,0.8-2.3,1.4c-2,1.6-3.2,3.8-3.8,6.2
			c0,0.2-0.1,0.3-0.2,0.6c-0.4-0.7-0.7-1.3-1.1-1.9c-1-1.5-2.3-2.7-3.9-3.5c-1.5-0.7-4-0.6-5.4,1.3c-1.5,2.1-1.8,5,0.4,7.2
			c1.1,1.1,2.4,1.9,3.9,2.4c0.2,0,0.3,0.1,0.5,0.2c-0.8,0.3-1.4,0.6-2.1,0.8c-1.5,0.5-2.7,1.5-3.7,2.7c-0.2,0.3-0.4,0.6-0.6,0.9
			c-0.4,0.7-0.3,1.4,0.2,2c0.5,0.7,1.2,1,2,1.2c1.1,0.1,2.2,0,3.3-0.3c1.1-0.3,2.1-0.8,3.1-1.2c0.2-0.1,0.5-0.2,0.7-0.3
			c0,0.7-0.1,1.4-0.1,2c0.1,1.6,0.8,2.9,1.9,4.2c0.6,0.7,1.3,1.3,2.1,1.7c1.9,0.9,3.9,0.1,4.7-1.8c0.3-0.6,0.4-1.3,0.3-2
			c0-1.1-0.3-2.2-0.7-3.2c-0.2-0.4-0.4-0.8-0.6-1.3c0.3,0.2,0.5,0.3,0.7,0.4c1.2,0.6,2.4,1,3.7,0.6c2-0.5,3.2-1.8,3.6-3.9
			c0.4-2-0.4-3.6-2.1-4.8c-0.7-0.5-1.6-0.8-2.4-1.1c-0.2,0-0.3-0.1-0.6-0.2c0.2-0.1,0.3-0.1,0.3-0.2c1.1-0.5,2-1.2,2.8-2.1
			C242.9,281.8,243.2,279.6,242,277.6z"/>
		<path class="st44" d="M216.5,285.9c0.3-2.3-0.5-4.1-3-5c-0.9-0.3-1.8-0.4-2.7-0.3c-2.6,0.1-4.8,1.1-6.8,2.6
			c-0.1,0.1-0.3,0.2-0.5,0.3c0.1-0.8,0.2-1.4,0.3-2.1c0.1-1.8-0.1-3.5-1-5.2c-0.8-1.5-2.8-2.9-5-2.2c-2.5,0.8-4.4,2.9-4.1,6
			c0.2,1.6,0.7,3,1.6,4.3c0.1,0.1,0.2,0.3,0.3,0.5c-0.8-0.2-1.5-0.4-2.2-0.6c-1.5-0.5-3-0.5-4.6-0.1c-0.4,0.1-0.7,0.2-1,0.4
			c-0.7,0.3-1,0.9-1.1,1.7c-0.1,0.9,0.3,1.6,0.9,2.2c0.8,0.8,1.8,1.4,2.8,1.7c1.1,0.4,2.1,0.6,3.2,1c0.2,0.1,0.5,0.1,0.7,0.2
			c-0.5,0.6-0.9,1-1.3,1.6c-0.9,1.3-1.1,2.9-1,4.4c0,0.9,0.2,1.8,0.6,2.7c0.9,1.8,3,2.5,4.8,1.5c0.6-0.3,1.1-0.8,1.5-1.4
			c0.7-0.9,1.1-1.9,1.4-3c0.1-0.4,0.2-0.9,0.4-1.4c0.1,0.3,0.2,0.6,0.3,0.8c0.5,1.2,1.3,2.2,2.5,2.7c1.9,0.8,3.7,0.5,5.2-0.9
			c1.5-1.4,1.9-3.1,1.3-5.1c-0.3-0.9-0.7-1.6-1.3-2.3c-0.1-0.1-0.2-0.3-0.4-0.5c0.2,0,0.3,0,0.4,0.1c1.2,0.2,2.3,0.2,3.5,0
			C214.6,289.8,216.1,288.2,216.5,285.9z"/>
	</g>
	<g>
		<path class="st1" d="M329.7,205.1c0,0,4.5,11.5,17,14.7c12.5,3.2,20.7-0.5,20.7-0.5s-10.1-14.5-21.6-16.3
			C334.4,201.1,329.7,205.1,329.7,205.1z"/>
		<path class="st1" d="M324.6,209.8c0,0-9.4,8-8.4,20.8c1,12.9,7.1,19.5,7.1,19.5s10.4-14.2,8.5-25.7S324.6,209.8,324.6,209.8z"/>
		<path class="st42" d="M324.1,188.5c-3.1-0.5-5.4,0.5-6.7,3.7c-0.5,1.1-0.5,2.3-0.5,3.5c0,3.4,1.2,6.4,3.1,9.1
			c0.1,0.2,0.3,0.4,0.4,0.6c-1-0.2-1.9-0.4-2.8-0.5c-2.4-0.2-4.7,0-6.9,1.1c-2,1-4,3.6-3.2,6.6c0.9,3.3,3.6,6,7.7,5.7
			c2.1-0.1,4-0.8,5.7-2c0.2-0.1,0.4-0.2,0.6-0.4c-0.3,1-0.6,2-0.9,2.9c-0.7,2-0.7,4-0.4,6c0.1,0.5,0.2,0.9,0.4,1.4
			c0.4,1,1.2,1.4,2.2,1.5c1.2,0.1,2.1-0.4,2.9-1.1c1.1-1,1.9-2.3,2.4-3.7c0.5-1.4,1-2.8,1.4-4.2c0.1-0.3,0.2-0.6,0.3-1
			c0.7,0.6,1.3,1.3,2,1.8c1.7,1.2,3.7,1.6,5.8,1.6c1.2,0,2.4-0.2,3.6-0.7c2.5-1.2,3.4-3.9,2.2-6.3c-0.4-0.8-1-1.5-1.7-2
			c-1.2-0.9-2.5-1.5-3.9-1.9c-0.6-0.2-1.1-0.3-1.8-0.5c0.4-0.2,0.8-0.3,1.1-0.4c1.6-0.7,3-1.6,3.7-3.2c1.1-2.5,0.9-4.8-0.9-6.9
			c-1.8-2.1-4-2.7-6.6-1.9c-1.1,0.3-2.2,0.9-3.1,1.6c-0.2,0.1-0.4,0.3-0.7,0.5c0.1-0.3,0.1-0.4,0.1-0.5c0.3-1.5,0.4-3.1,0.1-4.6
			C329.2,191.2,327.1,189.1,324.1,188.5z"/>
	</g>
	<g>
		<path class="st1" d="M95.7,239c0,0-3.9,11.7,3.7,22.2s16.2,12.9,16.2,12.9s1.5-17.6-6.1-26.4C101.8,239,95.7,239,95.7,239z"/>
		<path class="st1" d="M99.7,239.2c0,0-2.7-12.1-14.6-17.1s-20.6-2.7-20.6-2.7s7.8,15.8,18.9,19.4C94.5,242.4,99.7,239.2,99.7,239.2
			z"/>
		<path class="st42" d="M116.3,249.1c1.9-2.5,2.1-5-0.2-7.7c-0.8-0.9-1.8-1.6-2.9-2.1c-3-1.5-6.2-1.9-9.6-1.5c-0.2,0-0.5,0-0.8,0.1
			c0.6-0.8,1.2-1.5,1.7-2.3c1.3-2,2.2-4.2,2.2-6.6c0.1-2.2-1.4-5.2-4.4-5.9c-3.4-0.7-6.9,0.4-8.6,4.2c-0.8,1.9-1.1,3.9-0.9,6
			c0,0.2,0,0.4,0.1,0.7c-0.8-0.8-1.5-1.4-2.1-2.1c-1.4-1.5-3.2-2.5-5.2-3.1c-0.5-0.1-0.9-0.2-1.4-0.3c-1-0.1-1.8,0.4-2.4,1.3
			c-0.6,1-0.6,2-0.3,3.1c0.4,1.4,1.2,2.7,2.1,3.9c1,1.1,2,2.1,3.1,3.2c0.2,0.2,0.5,0.5,0.7,0.7c-0.9,0.3-1.8,0.6-2.5,0.9
			c-1.9,1-3.2,2.6-4.1,4.4c-0.6,1.1-1,2.3-1,3.5c-0.1,2.7,1.9,4.8,4.6,4.8c0.9,0,1.8-0.2,2.6-0.6c1.3-0.6,2.5-1.5,3.5-2.6
			c0.4-0.4,0.8-0.9,1.3-1.4c-0.1,0.5-0.1,0.8-0.1,1.1c-0.2,1.7,0.1,3.4,1.2,4.8c1.7,2.2,3.9,3,6.6,2.4c2.7-0.6,4.2-2.3,4.8-5
			c0.2-1.2,0.2-2.3,0-3.5c0-0.2-0.1-0.5-0.1-0.9c0.2,0.2,0.3,0.3,0.4,0.3c1.2,1,2.5,1.8,4.1,2.3
			C111.7,252.4,114.5,251.6,116.3,249.1z"/>
	</g>
</g>
</svg>
