<?xml version="1.0" encoding="utf-8"?>
<!-- Generator: Adobe Illustrator 20.1.0, SVG Export Plug-In . SVG Version: 6.00 Build 0)  -->
<svg version="1.1" id="Layer_1" xmlns="http://www.w3.org/2000/svg" xmlns:xlink="http://www.w3.org/1999/xlink" x="0px" y="0px"
	 viewBox="0 0 750 750" style="enable-background:new 0 0 750 750;" xml:space="preserve">
<style type="text/css">
	.st0{fill:#8BBDE6;}
	.st1{fill:#B7D669;}
	.st2{fill:#F05675;}
	.st3{fill:#009795;}
	.st4{fill:#FFCE40;}
	.st5{fill:#F1697B;}
	.st6{fill:#BC91C2;}
	.st7{fill:#86B1DF;}
	.st8{fill:#6CB467;}
	.st9{fill:#5B97C4;}
	.st10{fill:#FFFFFF;}
	.st11{fill:#EF4065;}
	.st12{fill:#F26722;}
	.st13{fill:#FDB515;}
	.st14{fill:#EBD3D2;}
	.st15{fill:#84AF40;}
	.st16{fill:#05A5A9;}
	.st17{fill:#0A5FA8;}
	.st18{fill:#7A5DA7;}
	.st19{fill:#3C211A;}
	.st20{fill:#F7921E;}
	.st21{fill:#F04E23;}
	.st22{fill:#905940;}
</style>
<g>
	<path class="st6" d="M520.2,430c-0.1,28.1-23.1,50.9-51.2,50.7c-28.1-0.1-50.9-23.1-50.7-51.2c0.1-28.1,23.1-50.9,51.2-50.7
		C497.6,378.9,520.3,401.8,520.2,430z M417.5,577.5c4.2,6.5,3.4,15.3-2.3,21c-5.7,5.7-14.4,6.5-21,2.4c-1.7,7.5-8.4,13.2-16.4,13.2
		c-8.1,0-14.8-5.6-16.5-13.2c-6.5,4.2-15.3,3.4-21-2.3c-5.7-5.7-6.5-14.4-2.4-21c-7.5-1.7-13.2-8.4-13.2-16.4
		c0-8.1,5.6-14.8,13.2-16.5c-4.2-6.5-3.4-15.3,2.3-21c5.7-5.7,14.4-6.5,21-2.4c1.7-7.5,8.4-13.2,16.4-13.2c8.1,0,14.8,5.6,16.5,13.2
		c6.5-4.2,15.3-3.4,21,2.3c5.7,5.7,6.5,14.4,2.4,21c7.5,1.7,13.2,8.4,13.2,16.4C430.7,569.1,425.1,575.8,417.5,577.5z M398.8,548.5
		c-11.2-11.4-21,7.8-21,7.8s-9.9-19.2-21.1-7.7c-16.5,17,21.1,36.9,21.1,36.9S415.4,565.5,398.8,548.5z"/>
	<path class="st20" d="M248.9,88.9c-7.7,6.3-14.9,13.2-21.4,20.8c1.6,1.8,3.2,3.7,4.8,5.7c7.1,8.5,14,17.3,20.5,26.3
		c11.1,15.1,21.4,30.8,30.9,47c9.4,4.7,18.3,10.4,26.4,17c0.8,0.7,1.7,1.4,2.5,2C299.2,164.4,277.5,124,248.9,88.9z"/>
	<path class="st21" d="M273.6,184c-19.1-7.6-39.8-10.5-60-7c-5.3,0.9-12.3,1.4-14.3-3.5c-0.7-1.7-0.5-3.7-0.2-5.5
		c2.9-19.7,11.9-37.7,24.3-53.4c2,2.3,4,4.7,6,7.1c7.2,8.8,14.1,17.8,20.8,26.9C258.4,160.1,266.3,171.9,273.6,184z M352.5,226.6
		C347.4,166,323,105.7,277.4,65.4c-4.3,6.1-11,10.5-17.1,14.9c-2.1,1.5-4.2,3.1-6.3,4.7c31.2,38.4,54.4,83,67.8,130.7
		c13.2,12.4,23.3,25.1,32,40.1C353.7,245.9,353.3,236.2,352.5,226.6z"/>
	<path class="st22" d="M450.4,263.5c13.4-9,30.3-13.5,46-9.8c0.5,0.7,1.1,1.5,1.9,2.5c8.7,10.1,30-0.2,7.6-6.2c0,0-0.1,0-0.1,0
		c-18.4-7.4-39-3.8-55.8,6.2c-18.2,10.8-30.9,28.5-41.6,46.5c-1.6,0-3.4,0.2-5.5,0.6c-7.2,1.6-10.5,13.1-10.5,13.1
		S364.7,333,357,340.6c-9.1,9-15.5,21.9-12.9,34.5c0.2,1.2,0.6,2.5,1.7,3.2c1.6,1,3.7-0.1,5.1-1.3c7.8-6.9,9.1-19,16.3-26.5
		c4.9-5.1,12-7.4,18.4-10.5c6.4-3.1,12.8-7.9,14-14.9c10.6,2,17.4-4.8,18.6-11.4c8.8-8.6,19.2-15.5,30.8-20
		c14.5-5.6,33.4-9.3,47.2-0.3c0.2,0.9,0.6,2.1,1.3,3.5c5.6,12.1,28.9,7.9,9-3.9c-0.5-0.3-1.4-0.8-2.5-1.4c-0.2-0.4-0.5-0.8-0.9-1.1
		c-14.7-12.2-35.5-10-52.5-4.2c-12.6,4.3-24.1,11.2-33.9,20c-0.5-0.7-1.2-1.3-2-1.9C424.1,288.8,435.1,273.7,450.4,263.5z"/>
	<path class="st12" d="M379.6,57.9c-10.5-17.2-24-34.1-43-41c-19-6.9-44.2,0.2-50.9,19.2c-2.7,7.6-2.3,16-5.1,23.5
		c7.1,6.2,13.8,12.8,19.9,19.9c45,51.8,61.4,120.3,59.4,187.6c3.4,6.8,6.7,14.2,9.9,22.2c15.4,38.3,39.6-2.3,44.9-28.8
		C428.4,191.7,416.3,117.9,379.6,57.9z M324.2,63.5c-9.4-2.3-15.1-11.7-12.8-21.1c2.3-9.4,11.7-15.1,21.1-12.8
		c9.4,2.3,15.1,11.7,12.8,21.1C343,60,333.6,65.8,324.2,63.5z M344.9,71.8c-0.2-0.9-0.1-2.1,0.7-2.4c0.3-0.1,0.7-0.1,1-0.1
		c6,0.6,12,5,17.5,8.4c1,0.6,2.2-0.2,2.1-1.3c-0.4-3.6-0.4-8.5-0.1-11.1c0.1-0.5,0.2-1.1,0.5-1.5c0.7-0.8,2.1-0.5,2.8,0.3
		c0.7,0.8,0.9,1.9,1,3c0.5,3.9,3.2,24.3-1.4,25.8c-3.7,1.3-16.2-12.3-18.8-14.4C348,76.7,345.6,74.6,344.9,71.8z M357.8,106.6
		c3.1-2.5,12.7,4.1,17.9,8.2c1.6,1.2,3.5,2.3,3.8,0.4c1.2-6,1.4-16.8,6.1-16c5.3,0.8,2.6,24.6-0.5,33.9c-0.6,1.8-2.9,2.4-4.3,1.1
		C373.5,127.6,354.4,109.4,357.8,106.6z M364,147.5c1.4-4.6,14.3,5,19.5,9.5c1.2,1,3.1,0.5,3.6-1c2.1-5.7,5.5-17.4,9-17
		c3.8,0.3-2.1,26.3-4.8,35.2c-0.5,1.5-2.4,2.1-3.6,1C381,169.5,362.6,152.3,364,147.5z M366.1,184.9c0.5-7.3,16.6,8.2,22.5,15.1
		c1.2,1.4,3.5,1,4.1-0.8c2.3-7.3,4.4-22.3,9.7-20.2c5.9,2.3-5.2,29-9.8,37.9c-0.8,1.5-2.7,1.7-3.8,0.5
		C382.8,210.9,365.6,192.5,366.1,184.9z M393.5,266.5c-1.3,2.7-5,2.9-6.7,0.4c-7.7-11.8-24.5-38.6-19.5-41.5
		c4.4-2.5,14.5,10.9,19.1,17.5c1.7,2.3,5.2,2.1,6.5-0.5c3.6-6.9,7.4-21.1,10.1-21.3C414.6,220.6,400.1,252.9,393.5,266.5z"/>
	<path class="st2" d="M542.6,459C542.7,459,542.7,459,542.6,459c16.1,0,29.2-12.8,29.3-28.9C572,414.1,559,401,543,401c0,0,0,0,0,0
		c-1.2,0-1.8-1.5-1-2.3c0,0,0,0,0,0c11.4-11.3,11.5-29.7,0.2-41.1s-29.7-11.5-41.1-0.2c0,0,0.1,0,0.1,0c-0.9,0.9-2.2,0.3-2.2-1
		c0,0,0,0,0,0c0-16.1-13.3-29.2-29.4-29.2C453.6,327,440,339.9,440,356c0,0,0,0,0,0c0,1.2-1.2,1.8-2.1,1c0,0,0.1,0,0.1,0
		c-11.3-11.4-29.7-11.5-41.1-0.2c-11.4,11.3-11.5,29.7-0.2,41.1c0,0,0-0.1,0-0.1c0.9,0.9,0.3,2.2-1,2.2c0,0,0,0,0,0
		c-16.1,0-29.2,12.8-29.2,28.9c-0.1,16.1,12.9,29.1,28.9,29.1c0,0,0,0,0,0c1.2,0,1.8,1.7,1,2.6c0,0,0,0.1,0,0.1
		c-11.4,11.3-11.5,29.8-0.2,41.2c11.3,11.4,29.7,11.5,41.1,0.2c0,0,0.1,0,0.1,0c0.9-0.9,2.4-0.2,2.4,1c0,0,0,0,0,0
		c0,16.1,12.8,29.2,28.9,29.2c16.1,0.1,29.1-12.9,29.1-28.9c0,0,0,0,0,0c0-1.2,1.5-1.8,2.3-1c0,0,0,0,0,0
		c11.3,11.4,29.7,11.5,41.1,0.2c11.4-11.3,11.5-29.7,0.2-41.1c0,0,0-0.1,0-0.1C540.8,460.5,541.4,459,542.6,459z M519.4,367
		c3.4-3.4,8.9-3.4,12.3,0c3.4,3.4,3.4,8.9,0,12.3c-3.4,3.4-8.9,3.4-12.3,0C516,375.9,516,370.4,519.4,367z M469,341.2
		c4.8,0,8.7,3.9,8.7,8.7c0,4.8-3.9,8.7-8.7,8.7c-4.8,0-8.7-3.9-8.7-8.7C460.4,345.1,464.2,341.2,469,341.2z M389.5,438.6
		c-4.8,0-8.7-3.9-8.7-8.7c0-4.8,3.9-8.7,8.7-8.7s8.7,3.9,8.7,8.7C398.1,434.7,394.3,438.6,389.5,438.6z M406.5,367.3
		c3.4-3.4,8.9-3.4,12.3,0c3.4,3.4,3.4,8.9,0,12.3c-3.4,3.4-8.9,3.4-12.3,0C403.2,376.2,403.1,370.7,406.5,367.3z M419.1,492.4
		c-3.4,3.4-8.9,3.4-12.3,0c-3.4-3.4-3.4-8.9,0-12.3c3.4-3.4,8.9-3.4,12.3,0C422.5,483.5,422.5,489,419.1,492.4z M469.4,518.2
		c-4.8,0-8.7-3.9-8.7-8.7c0-4.8,3.9-8.7,8.7-8.7c4.8,0,8.7,3.9,8.7,8.7C478.1,514.3,474.2,518.2,469.4,518.2z M468.9,493.1
		c-35-0.2-63.2-28.7-63-63.7c0.2-35,28.7-63.2,63.7-63c35,0.2,63.2,28.7,63,63.7C532.4,465,503.9,493.3,468.9,493.1z M532,492.2
		c-3.4,3.4-8.9,3.4-12.3,0c-3.4-3.4-3.4-8.9,0-12.3c3.4-3.4,8.9-3.4,12.3,0C535.3,483.3,535.3,488.8,532,492.2z M540.4,429.6
		c0-4.8,3.9-8.7,8.7-8.7c4.8,0,8.7,3.9,8.7,8.7c0,4.8-3.9,8.7-8.7,8.7C544.3,438.2,540.4,434.4,540.4,429.6z M246.3,234.9
		c-1.3,5.5-6.9,8.9-12.4,7.5c-5.5-1.3-8.9-6.9-7.5-12.4s6.9-8.9,12.4-7.5C244.2,223.8,247.6,229.4,246.3,234.9z M198.8,342.4
		c-1.7,6.9-8.6,11.1-15.5,9.4c-6.9-1.7-11.1-8.6-9.4-15.5c1.7-6.9,8.6-11.1,15.5-9.4C196.3,328.6,200.5,335.6,198.8,342.4z
		 M226,285.1c-1.7,6.9-8.6,11.1-15.5,9.4c-6.9-1.7-11.1-8.6-9.4-15.5c1.7-6.9,8.6-11.1,15.5-9.4C223.5,271.3,227.7,278.2,226,285.1z
		"/>
	<path class="st13" d="M561.4,578c1.8,13.2,3.7,49.8-32,49.9c-35.7,0.1-34.1-36.5-32.3-49.7c0.3-2.1,2.7-3.1,4.4-1.8l12.4,10.1
		c1.2,1,3,0.7,3.9-0.5l9.3-13.3c1.1-1.5,3.4-1.5,4.4,0l9.2,13.2c0.9,1.3,2.7,1.5,3.9,0.5l12.4-10.1C558.6,575,561.1,576,561.4,578z
		 M275.8,374.6c-40.7,5-81.8,7.1-122.8,6.3c-6.8-0.1-13.9-0.4-19.8-3.9c-9.4-5.6-12.7-18.1-10.7-28.9c2-10.8,8.3-20.2,14.4-29.2
		c8.7-12.9,17.4-25.8,26-38.7c5.3-7.9,10.7-16.1,12.2-25.5c1.2-7.5-0.2-15.2,1.2-22.6c3.4-18,22-29.2,40-32.5
		c57.8-10.6,112.9,36,137.7,84.7C382.2,339.2,322.3,368.9,275.8,374.6z M232.1,249.4c9.4,2.3,18.8-3.4,21.1-12.8
		c2.3-9.4-3.4-18.8-12.8-21.1c-9.4-2.3-18.8,3.4-21.1,12.8C217,237.7,222.8,247.1,232.1,249.4z M191.5,318.3
		c-11.7-2.8-23.4,4.3-26.3,16c-2.8,11.7,4.3,23.4,16,26.3c11.7,2.8,23.4-4.3,26.3-16C210.3,332.9,203.2,321.1,191.5,318.3z
		 M234.7,287.2c2.8-11.7-4.3-23.4-16-26.3c-11.7-2.8-23.4,4.3-26.3,16c-2.8,11.7,4.3,23.4,16,26.3
		C220.1,306,231.8,298.9,234.7,287.2z M339.6,313.4c-5.3-23-40.2-78.5-70-69.5c-23.6,7.1,7.7,36.5,21.8,48.4
		c2.6,2.2,1.8,6.3-1.4,7.3c-18.1,5.8-61.8,22.7-56.1,47.4C241,378.2,344.3,334,339.6,313.4z"/>
	<path class="st1" d="M476.1,732.4c0,1.7-1.4,3.1-3.1,3.1l-6.2,0c-1.7,0-3.1-1.4-3.1-3.1l-0.2-70.3c-17.1,3-44.3,1.2-59.4-33.2
		c-1.8-4,0.4-8.6,4.7-9.8c11.7-3.2,35-5.8,54.7,15l-0.2-86.6c0-1.7,1.4-3.1,3.1-3.1l6.2,0c1.7,0,3.1,1.4,3.1,3.1L476.1,732.4z
		 M575.5,646.6c-22.3-1.4-34.2,8.7-40.5,19.4l-0.1-28.9c0-1.6-1.3-2.8-2.8-2.8l-5.6,0c-1.6,0-2.8,1.3-2.8,2.8l0.2,95.4
		c0,1.6,1.3,2.8,2.8,2.8l5.6,0c1.6,0,2.8-1.3,2.8-2.8l-0.1-43.4c34.2-1.4,43.3-24.4,45.7-35.7C581.5,650,579,646.8,575.5,646.6z
		 M383.5,625c0-1.6-1.3-2.8-2.8-2.8l-5.6,0c-1.6,0-2.8,1.3-2.8,2.8l0.1,41c-6.4-10.6-18.3-20.4-40.4-19c-3.5,0.2-6,3.5-5.2,6.9
		c2.4,11.3,11.6,34.2,45.7,35.5l0.1,43.4c0,1.6,1.3,2.8,2.8,2.8l5.6,0c1.6,0,2.8-1.3,2.8-2.8L383.5,625z M341.7,506.6
		c-4.2-8.9-21.4-42.5-45.1-46.7c-1-0.2-1.9,0.5-2.1,1.5c-0.9,6.5-2.7,29.4,12.5,43.8c1.3,1.2,0.2,3.3-1.5,3
		c-8.7-1.5-22.6-1.6-33.9,8.8c-0.9,0.8-0.7,2.2,0.3,2.8c5.8,3.5,24.3,12.9,49.3,9c0.7-0.1,1.3-0.7,1.5-1.4
		c0.7-3.9,3.9-16.1,17.7-18.5C341.6,508.8,342.2,507.6,341.7,506.6z"/>
	<path class="st3" d="M338.3,49c-1.3,5.5-6.9,8.9-12.4,7.5c-5.5-1.3-8.9-6.9-7.5-12.4s6.9-8.9,12.4-7.5
		C336.3,37.9,339.7,43.5,338.3,49z M591,523.4c-11.5-7.2-18.6,11.5-18.6,11.5s-7.1-18.7-18.6-11.5C535.3,535,572.4,559,572.4,559
		S609.4,535,591,523.4z M345.3,405.4c-11.5-7.2-18.6,11.5-18.6,11.5s-7.1-18.7-18.6-11.5c-18.4,11.6,18.6,35.6,18.6,35.6
		S363.7,416.9,345.3,405.4z M622.9,469.2c-11.5-7.2-18.6,11.5-18.6,11.5s-7.1-18.7-18.6-11.5c-18.4,11.6,18.6,35.6,18.6,35.6
		S641.3,480.7,622.9,469.2z"/>
</g>
</svg>
