<?xml version="1.0" encoding="utf-8"?>
<!-- Generator: Adobe Illustrator 22.0.0, SVG Export Plug-In . SVG Version: 6.00 Build 0)  -->
<svg version="1.1" id="Calque_1" xmlns="http://www.w3.org/2000/svg" xmlns:xlink="http://www.w3.org/1999/xlink" x="0px" y="0px"
	 viewBox="0 0 432 432" style="enable-background:new 0 0 432 432;" xml:space="preserve">
<style type="text/css">
	.st0{fill:#066938;}
	.st1{fill:#9F1E29;}
	.st2{fill:#571419;}
	.st3{fill:none;}
	.st4{fill:#C68448;}
	.st5{fill:#8C633A;}
	.st6{fill:#D79A5D;}
	.st7{fill:#A5C0DF;}
	.st8{fill:#36502D;}
	.st9{fill:#C8261D;}
	.st10{fill:#808181;}
	.st11{fill:#519C37;}
	.st12{fill:#FCEE69;}
	.st13{fill:#EC8C37;}
	.st14{fill:#5877B1;}
	.st15{fill:#7B1523;}
	.st16{fill:#4F0D1C;}
	.st17{fill:#BF333D;}
	.st18{fill:#E7373D;}
	.st19{fill:#972021;}
	.st20{fill:#F2F2F2;}
	.st21{fill:#F3D4AA;}
	.st22{fill:#A67D52;}
	.st23{fill:#B59063;}
	.st24{fill:#020203;}
	.st25{fill:#FFFFFF;}
	.st26{fill:#E7E6E6;}
	.st27{fill:#9A9999;}
	.st28{fill:#B4B4B4;}
	.st29{fill:#C9913E;}
	.st30{fill:#D6A14D;}
	.st31{fill:#E2A1BC;}
	.st32{fill:#C1292E;}
	.st33{fill:#82171C;}
	.st34{fill:#CDCCCC;}
	.st35{fill:#D06C5D;}
	.st36{fill:#79986F;}
	.st37{fill:#DAA405;}
	.st38{fill:#EDCBA9;}
	.st39{fill:#405045;}
	.st40{fill:#8B2F2F;}
	.st41{fill:#1D2E1C;}
	.st42{fill:#D4BB78;}
	.st43{fill:#3C1014;}
	.st44{fill:#731633;}
	.st45{fill:#3F0D26;}
	.st46{fill:#E3EBF8;}
	.st47{fill:#D2DFEF;}
	.st48{fill:#B88E5C;}
	.st49{fill:#A81735;}
	.st50{fill:#4AA8A8;}
	.st51{fill:#94B947;}
	.st52{fill:#A8C4D3;}
	.st53{fill:#9F1A18;}
	.st54{fill:#4F6325;}
	.st55{fill:#BAC463;}
	.st56{fill:#8C694B;}
	.st57{fill:#8A9A66;}
	.st58{fill:#DDDDC3;}
	.st59{fill:#3F668A;}
	.st60{fill:#1B1B1B;}
	.st61{fill:#FFF0BA;}
	.st62{fill:#C69C6C;}
	.st63{fill:#603914;}
	.st64{fill:#114923;}
	.st65{fill:#961F27;}
	.st66{fill:#BB870E;}
	.st67{fill:#C51720;}
	.st68{fill:#449494;}
	.st69{fill:#417675;}
	.st70{fill:#ABCFAF;}
	.st71{fill:#66B2B0;}
	.st72{fill:#F9B03D;}
	.st73{fill:#754D24;}
	.st74{fill:#F6F6F6;}
	.st75{fill:#BA181A;}
	.st76{fill:#AD191C;}
	.st77{fill:#161515;}
	.st78{fill:#1E1E1C;}
	.st79{fill:#0E472B;}
	.st80{fill:#D3C29D;}
	.st81{fill:#CC2717;}
	.st82{fill:#A81916;}
	.st83{fill:#805129;}
	.st84{fill:#F39323;}
	.st85{fill:#B56B20;}
	.st86{fill:#E52629;}
	.st87{fill:#7B9EC7;}
	.st88{fill:#48515A;}
	.st89{fill:#DED3C6;}
	.st90{fill:#3B444E;}
	.st91{fill:#6189B1;}
	.st92{fill:#97B8D7;}
	.st93{fill:#715038;}
	.st94{fill:#A3282E;}
	.st95{fill:#110506;}
	.st96{fill:#F3E4D4;}
	.st97{fill:#F4DCC9;}
	.st98{fill:#676767;}
	.st99{fill:#E0EDF3;}
	.st100{fill:#90443F;}
	.st101{fill:#989389;}
	.st102{fill:#F0DABE;}
	.st103{fill:#4F382A;}
	.st104{fill:#009245;}
	.st105{fill:#064928;}
</style>
<g>
	<g>
		<g>
			<path class="st24" d="M307.1,86.7c0.6-13.7,14.5-35.4,42.9-10.7s9.6,34.6-1.5,41.4C339.9,107.9,307.1,86.7,307.1,86.7z"/>
			<path class="st24" d="M219.2,104.1c-5.9-12.3-27.2-26.9-43.7,7s4.7,35.6,17.6,37.5C197.2,136.5,219.2,104.1,219.2,104.1z"/>
		</g>
		<g>
			<ellipse class="st24" cx="210.7" cy="247.3" rx="31.9" ry="10.4"/>
			<ellipse transform="matrix(0.866 -0.5 0.5 0.866 -117.9539 142.1349)" class="st24" cx="206.3" cy="291.2" rx="22.6" ry="9.3"/>
		</g>
		<path class="st26" d="M362.2,148.4c0.3,16.3-5.9,32.1-16.8,45.2c-12.8,15.5-32.2,27.2-55.2,31.7c-7.9,1.5-15.7,2.1-23.3,1.8
			c8.6,11.2,10.7,28.7,4,45.6c-9.1,23.2-31.4,36.2-49.7,29c-18.3-7.2-25.7-31.9-16.6-55.1c5.4-13.6,15.2-23.7,26.2-28.3
			c-20.1-9.7-34.8-26.7-38.9-48c-7.6-39.4,24.1-78.6,70.8-87.6c46.7-9,90.7,15.7,98.3,55C361.8,141.3,362.2,144.8,362.2,148.4z"/>
		<g>
			<path class="st24" d="M273.3,146.4c-10.6-7.7-38.9,1-44.7,20.7c-5.8,19.7-5.8,37,13.4,43.6c19.2,6.6,32.3-21.6,36.8-29.3
				S290.8,159,273.3,146.4z M262.9,178.4c-7.6,0-13.7-5.6-13.7-12.4c0-6.9,6.1-12.4,13.7-12.4c7.6,0,13.7,5.6,13.7,12.4
				C276.6,172.8,270.4,178.4,262.9,178.4z"/>
			<path class="st24" d="M349.4,137.7c-19.1-9.6-36.9-10.4-42.3,1.1c-5.1,10.9-2.2,22.1,9.8,33.8c7.9,7.6,19,19.9,28.6,21
				c10.9-13.1,17-28.9,16.8-45.2C359.7,144.3,355.5,140.8,349.4,137.7z M337.5,163.7c-6.2,4.3-14.5,3.3-18.4-2.4
				c-3.9-5.6-2-13.7,4.2-18c6.2-4.3,14.4-3.3,18.4,2.4C345.6,151.3,343.7,159.4,337.5,163.7z"/>
			<g>
				<g>
					<path class="st24" d="M255.1,166.4l-2.4-1.4c1.6-2.8,4.6-4.4,8.6-4.7c3.8-0.2,8,0.9,11.9,3.1l-1.4,2.4
						c-3.4-1.9-7.1-2.9-10.3-2.7C258.4,163.3,256.2,164.5,255.1,166.4z"/>
				</g>
				<g>
					<path class="st24" d="M324.6,158.5l-2.8,0c0.1-7,8-12.6,17.6-12.5l0,2.8C331.3,148.7,324.7,153,324.6,158.5z"/>
				</g>
			</g>
		</g>
		<g>
			<ellipse class="st24" cx="291.3" cy="259.5" rx="31.9" ry="10.4"/>
			<ellipse class="st24" cx="237.9" cy="306.2" rx="9.3" ry="22.6"/>
		</g>
		<g>
			<path class="st8" d="M278,224c-10.4,1.8-48.6-13.3-60.3-15.9c-2.4-0.5-4.5-0.2-6.2,0.8c-12.5-11.3-36.8-34.8-38.8-38.7
				c-2.1-4.3-23.5,7.7-17.6,17c5.2,8.2,34.8,23.4,51.3,29c-0.2,0.8-0.4,1.6-0.5,2.4c-11.5-1.9-50.5-11.8-58.2-15.5
				c-8.4-4-19.6,16.7-7.4,22.4c11.6,5.4,41,6.9,66.3-0.1c0.6,1.2,1.5,2,2.6,2.2c6.6,1.1,66,17.7,72.6,17.1
				C288.6,243.9,288.4,222.2,278,224z"/>
			<g>
				<g>
					<g>
						<path class="st27" d="M283.6,341.8c0.3-2.3-0.6-4.5-2.4-5.7l-1.6,2.5c0.8,0.5,1.2,1.6,1,2.8c-0.3,1.8-1.9,4.2-5.7,5.3
							c-2.1,0.6-8.6,0.9-16.5,1l-0.3-8.7l-3,0.1l0.3,8.7c-4.5,0-9.3,0-14-0.1l-0.7-9l-3,0.2l0.6,8.8c-7.5-0.1-14.5-0.3-19-0.4
							l-0.1,3c2,0.1,49,1.6,56.4-0.6C280.9,348,283.2,344.6,283.6,341.8z"/>
						<path class="st8" d="M251.9,313.5c-6.8-0.7-23.3,0-25.6-0.1c-1.2,8.5-5.3,28.4,6.1,27.8s39.4-1.3,41.5-2
							c2.1-0.7-2.9-9.8-17.1-8.9C253.4,330.7,251.9,315,251.9,313.5z"/>
					</g>
				</g>
				<g>
					<g>
						<path class="st27" d="M186.6,346.5c2.3-0.4,4.1-2,4.6-4.1l-2.9-0.7c-0.2,1-1.1,1.7-2.3,1.9c-1.8,0.3-4.6-0.4-6.9-3.6
							c-1.3-1.8-3.7-7.8-6.4-15.3l8.2-3.1l-1.1-2.8l-8.1,3.1c-1.5-4.2-3.1-8.8-4.6-13.2l8.3-3.6l-1.2-2.7l-8.1,3.5
							c-2.4-7.1-4.5-13.8-5.8-18l-2.8,0.9c0.6,1.9,14.7,46.8,19.2,53C179.9,346.1,183.9,347.1,186.6,346.5z"/>
						<path class="st8" d="M203,307.2c-1.5-6.6-7.6-22-8.4-24.2c-8.5,1.7-28.6,4.4-24.3,14.9c4.3,10.5,14.3,36.8,15.6,38.6
							s8.3-5.9,2.7-19.1C187.2,314.3,201.5,307.7,203,307.2z"/>
					</g>
				</g>
			</g>
		</g>
		<g>
			<path class="st1" d="M324.3,197.1c-3.4,4.9-7.9,8.6-13,10.9c-0.5-2.8-1-5.7-1.4-8.5c-0.3-1.8-3-1-2.7,0.7c0.5,2.9,1,5.9,1.5,8.8
				c-6.2,2.1-13.1,2.3-19.8,0.2c-1.7-0.5-2.5,2.2-0.7,2.7c14.6,4.5,29.9-0.8,38.6-13.4C327.7,197,325.3,195.6,324.3,197.1z"/>
			
				<ellipse transform="matrix(0.9202 -0.3914 0.3914 0.9202 -50.745 135.5297)" class="st24" cx="307.1" cy="192.2" rx="10.6" ry="8"/>
		</g>
	</g>
	<g>
		<path class="st28" d="M73.5,257.6c0,9.1,2.6,17.4,7,25.2c5.6,10,13.6,17.3,23.9,22.2c4.6,2.2,9.4,4.1,14.1,6.1
			c3.5,1.5,6.9,3.1,10.2,5c2.3,1.3,4.2,3,6,4.8c0.6,0.6,0.7,1.2,0.2,1.8c-0.4,0.5-1.1,0.6-1.8,0.3c-0.1,0-0.2-0.1-0.3-0.2
			c-3-2.4-6.5-3.9-10-5.2c-3.8-1.4-7.8-2.6-11.6-3.9c-4.8-1.6-9.5-3.3-14-5.6c-9.6-5.1-17-12.4-22.1-22.1c-3.3-6.3-5.8-13-7.2-20
			c-0.8-3.9-0.9-7.9-0.6-11.9c0.4-6.3,1.6-12.4,4.3-18.1c4.2-9,11.1-15,20.7-17.6c8.3-2.3,15.8-0.4,22.5,4.8c4,3.1,6.8,7.1,8.2,12
			c1.2,4.2,1,8.4-1,12.4c-0.8,1.6-1.9,3-3.4,4.1c-2.6,2-5.4,3.4-8.7,3.7c-6.9,0.7-13.3-3.5-15-10c-1-3.8,0.1-7,2.5-9.9
			c0.4-0.4,1-0.8,1.5-1c1-0.3,1.9-0.1,2.6,0.7c0.7,0.7,0.8,1.6,0.5,2.5c-0.3,0.9-0.7,1.8-1,2.7c-0.5,1.5-0.5,3,0.3,4.4
			c0.2,0.4,0.4,0.8,0.6,1.1c1.9,3.2,5.3,4.4,8.8,3.3c5.8-1.8,7.4-6.9,6.8-11.2c-0.5-3.7-2.3-6.7-5-9.2c-3.3-2.9-7.1-4.9-11.5-5.5
			c-3.5-0.5-6.8,0.1-10,1.5c-5.3,2.3-9.1,6.1-12,11c-2.7,4.7-4.3,9.8-5,15.2C73.8,253.4,73.7,255.5,73.5,257.6z"/>
		<path class="st28" d="M156.9,122.1c-0.1,6.8-1.6,13.3-4.1,19.7c-3.3,8.3-8.2,15.4-14.5,21.8c-4.4,4.5-9.2,8.6-14.2,12.3
			c-6.8,5.1-13.8,10.1-20.6,15.2c-5.7,4.3-11.3,8.8-16.3,13.9c-4,4.1-7.5,8.7-10.5,13.6c-0.5,0.7-0.8,1.5-1.2,2.3
			c-0.1,0.2-0.2,0.5-0.4,0.7c-0.4,0.7-0.9,0.9-1.5,0.7c-0.6-0.2-0.9-0.8-0.8-1.5c0.1-0.6,0.2-1.1,0.5-1.7c0.8-1.7,1.5-3.4,2.4-5
			c4.1-7.4,9.7-13.6,15.8-19.3c7.3-6.8,15.2-12.7,23.3-18.4c5.8-4,11.4-8.3,16.5-13.1c4.1-3.9,7.9-8,11.1-12.7
			c4.3-6.5,7-13.7,7.8-21.5c0.7-6.9-0.1-13.6-3-20c-1.4-3.1-3.4-5.9-6.1-7.9c-4.6-3.4-8.7-3.4-13.4,0.1c-3.4,2.5-5.4,6-6.3,10.1
			c-0.2,0.8-0.2,1.7-0.1,2.6c0.2,2,1.7,3.8,3.5,4.3c0.9,0.3,1.8,0.2,2.7-0.1c0.7-0.3,1.4-0.6,2.1-0.9c0.4-0.2,0.8-0.3,1.3-0.3
			c0.7,0,1.3,0.4,1.5,1c0.3,0.7,0.2,1.4-0.4,1.8c-1.5,1.2-3,2.5-4.9,3c-1.8,0.4-3.6,0.2-5.3-0.4c-4.2-1.6-6.7-5.1-6.8-9.6
			c-0.1-3.7,0.9-7.2,2.8-10.4c1.7-2.9,3.9-5.3,6.6-7.3c3.5-2.6,7.4-3.9,11.8-3.7c5,0.3,9.1,2.4,12.5,6.1c3,3.3,5,7.3,6.3,11.6
			C156.3,113.3,156.9,117.6,156.9,122.1z"/>
		<path class="st28" d="M206.5,367.2c-7.2,0.1-14.1-1.3-20.9-3.4c-7.1-2.1-13.9-5.2-20.6-8.5c-11.6-5.7-22.9-12.1-34-18.7
			c-4-2.3-8-4.6-12.2-6.5c-5-2.3-10.3-4-15.8-4.7c-5.7-0.7-11.3-0.4-16.7,1.9c-1.2,0.5-2.3,1.2-3.4,1.9c-1.8,1.3-2.8,3.1-3.3,5.2
			c-0.6,2.6,0.7,5.6,3.1,7c2.8,1.7,5.9,2.1,8.9,0.5c2.3-1.2,3.6-3.1,3.9-5.7c0.1-0.5,0.1-1.1,0.1-1.6c0.2-1.1,0.8-1.7,1.8-1.8
			c1-0.1,1.9,0.3,2.3,1.3c0.6,1.5,0.9,3.1,0.4,4.8c-1.3,4.9-5.8,9.8-12.7,10c-4.4,0.1-8.3-1.1-11.3-4.6c-3.2-3.9-4-8.2-2.3-12.9
			c1.4-4.1,4.3-7,8.1-9c3.5-1.9,7.2-2.8,11.1-3.2c7.1-0.7,13.9,0.4,20.5,2.7c6,2.1,11.6,5,17,8.2c7.4,4.3,14.7,8.7,22.1,12.9
			c8.2,4.7,16.4,9.2,25,12.9c6.1,2.6,12.4,4.8,18.9,6.1c4.9,0.9,9.8,1.2,14.7,0.8c4.9-0.3,9.7-0.9,14.4-2c2.2-0.5,4.4-1.4,6.6-2.1
			c0.9-0.3,1.6-0.7,2.3-1.4c0.8-0.8,2.1-0.4,2.3,0.8c0.2,0.7,0,1.4-0.5,1.9c-0.6,0.6-1.3,1.1-2,1.5c-3.3,1.6-6.8,2.7-10.4,3.5
			C218.4,366.4,212.5,367.1,206.5,367.2z"/>
	</g>
</g>
</svg>
