<?xml version="1.0" encoding="utf-8"?>
<!-- Generator: Adobe Illustrator 22.0.0, SVG Export Plug-In . SVG Version: 6.00 Build 0)  -->
<svg version="1.1" id="Calque_1" xmlns="http://www.w3.org/2000/svg" xmlns:xlink="http://www.w3.org/1999/xlink" x="0px" y="0px"
	 viewBox="0 0 432 432" style="enable-background:new 0 0 432 432;" xml:space="preserve">
<style type="text/css">
	.st0{fill:#066938;}
	.st1{fill:#9F1E29;}
	.st2{fill:#571419;}
	.st3{fill:none;}
	.st4{fill:#C68448;}
	.st5{fill:#8C633A;}
	.st6{fill:#D79A5D;}
	.st7{fill:#A5C0DF;}
	.st8{fill:#36502D;}
	.st9{fill:#C8261D;}
	.st10{fill:#808181;}
	.st11{fill:#519C37;}
	.st12{fill:#FCEE69;}
	.st13{fill:#EC8C37;}
	.st14{fill:#5877B1;}
	.st15{fill:#7B1523;}
	.st16{fill:#4F0D1C;}
	.st17{fill:#BF333D;}
	.st18{fill:#E7373D;}
	.st19{fill:#972021;}
	.st20{fill:#F2F2F2;}
	.st21{fill:#F3D4AA;}
	.st22{fill:#A67D52;}
	.st23{fill:#B59063;}
	.st24{fill:#020203;}
	.st25{fill:#FFFFFF;}
	.st26{fill:#E7E6E6;}
	.st27{fill:#9A9999;}
	.st28{fill:#B4B4B4;}
	.st29{fill:#C9913E;}
	.st30{fill:#D6A14D;}
	.st31{fill:#E2A1BC;}
	.st32{fill:#C1292E;}
	.st33{fill:#82171C;}
	.st34{fill:#CDCCCC;}
	.st35{fill:#D06C5D;}
	.st36{fill:#79986F;}
	.st37{fill:#DAA405;}
	.st38{fill:#EDCBA9;}
	.st39{fill:#405045;}
	.st40{fill:#8B2F2F;}
	.st41{fill:#1D2E1C;}
	.st42{fill:#D4BB78;}
	.st43{fill:#3C1014;}
	.st44{fill:#731633;}
	.st45{fill:#3F0D26;}
	.st46{fill:#E3EBF8;}
	.st47{fill:#D2DFEF;}
	.st48{fill:#B88E5C;}
	.st49{fill:#A81735;}
	.st50{fill:#4AA8A8;}
	.st51{fill:#94B947;}
	.st52{fill:#A8C4D3;}
	.st53{fill:#9F1A18;}
	.st54{fill:#4F6325;}
	.st55{fill:#BAC463;}
	.st56{fill:#8C694B;}
	.st57{fill:#8A9A66;}
	.st58{fill:#DDDDC3;}
	.st59{fill:#3F668A;}
	.st60{fill:#1B1B1B;}
	.st61{fill:#FFF0BA;}
	.st62{fill:#C69C6C;}
	.st63{fill:#603914;}
	.st64{fill:#114923;}
	.st65{fill:#961F27;}
	.st66{fill:#BB870E;}
	.st67{fill:#C51720;}
	.st68{fill:#449494;}
	.st69{fill:#417675;}
	.st70{fill:#ABCFAF;}
	.st71{fill:#66B2B0;}
	.st72{fill:#F9B03D;}
	.st73{fill:#754D24;}
	.st74{fill:#F6F6F6;}
	.st75{fill:#BA181A;}
	.st76{fill:#AD191C;}
	.st77{fill:#161515;}
	.st78{fill:#1E1E1C;}
	.st79{fill:#0E472B;}
	.st80{fill:#D3C29D;}
	.st81{fill:#CC2717;}
	.st82{fill:#A81916;}
	.st83{fill:#805129;}
	.st84{fill:#F39323;}
	.st85{fill:#B56B20;}
	.st86{fill:#E52629;}
	.st87{fill:#7B9EC7;}
	.st88{fill:#48515A;}
	.st89{fill:#DED3C6;}
	.st90{fill:#3B444E;}
	.st91{fill:#6189B1;}
	.st92{fill:#97B8D7;}
	.st93{fill:#715038;}
	.st94{fill:#A3282E;}
	.st95{fill:#110506;}
	.st96{fill:#F3E4D4;}
	.st97{fill:#F4DCC9;}
	.st98{fill:#676767;}
	.st99{fill:#E0EDF3;}
	.st100{fill:#90443F;}
	.st101{fill:#989389;}
	.st102{fill:#F0DABE;}
	.st103{fill:#4F382A;}
	.st104{fill:#009245;}
	.st105{fill:#064928;}
</style>
<g>
	<g>
		<path class="st20" d="M223.1,349.8c102.5-0.8,191.9,11,139.3-42.6s-95.1-98.3-142.1-98.3s-108.4,69.5-127,94.3
			C56.2,353.9,76.1,350.9,223.1,349.8z"/>
		<g>
			<circle class="st26" cx="123.1" cy="155.6" r="5.3"/>
			<circle class="st26" cx="159" cy="86.9" r="5.3"/>
			<circle class="st26" cx="103.9" cy="245.6" r="7.7"/>
			<circle class="st26" cx="332.2" cy="181.7" r="7.7"/>
			<circle class="st26" cx="295.1" cy="136" r="7.7"/>
			<circle class="st26" cx="334.4" cy="94.4" r="5.5"/>
			<circle class="st26" cx="57.9" cy="141.9" r="3.9"/>
		</g>
	</g>
	<g>
		<path class="st1" d="M251.3,160.3c4-0.8,7.5-2.4,11.4-2.8c4.7-0.5,9.3-0.4,13.9,0.7c0.1,0,0.2,0.1,0.3,0.3c-1.1,0-2.1,0-3.2,0
			c-3.8,0.2-7.4,0.9-10.9,2.5c-2.1,1-3.9,2.3-5.4,4.1c-2.4,2.9-3.2,6.2-2.5,9.9c0.4,2,1,4,2.3,5.7c0.1,0.1,0.2,0.3,0.2,0.4
			c0.3,1.3,0.6,2.6,0.9,4c-1.1,0.7-2.2,1.5-3.3,2.3c-0.7,0.5-1.4,1.1-2,1.8c-1.3,1.4-1.4,2.6-0.2,4.2c0.5,0.8,1.2,1.5,1.9,2
			c1.2,1,2.7,1.2,4,0.3c1.6-1,3.1-2.1,4.6-3.2c0.4-0.3,0.7-0.6,1.1-0.9c0.6,0.3,1.2,0.5,1.8,0.8c0.2,0.1,0.4,0.3,0.6,0.5
			c0.3,0.6,0.7,1.3,1,2c1.6,4.7,2.4,9.5,2.8,14.4c0.3,3.5,0.4,6.9,0.6,10.4c0,1.2-0.1,2.4-0.2,3.6c-0.2,1.8-1.2,3-2.9,3.5
			c-1.4,0.4-2.9,0.8-4.3,1c-5.7,0.9-11.4,1.8-17.1,2.7c-4.7,0.8-9.4,1.6-14.1,2.4c-3,0.5-6,1-9,1.5c-7.9,1.4-15.8,2.7-23.8,4
			c-3.8,0.6-7.6,1.1-11.4,1.7c-2.8,0.4-5.6,0.7-8.3,1c-2.5,0.3-5,0.3-7.5-0.1c-2.4-0.4-4-1.7-4.7-4.1c-0.6-1.9-1.2-3.9-1.5-5.9
			c-0.6-4.3-1.1-8.6-1.7-13.1c0.4,0.1,0.7,0.2,0.9,0.3c1.2,0.5,2.4,1,3.7,1.5c1.3,0.5,2.3,0.2,3.2-0.8c1-1.1,1.6-2.4,2-3.8
			c0.3-1.1-0.2-2-0.9-2.8c-1.1-1.2-2.6-1.8-4-2.5c-0.2-0.1-0.5-0.2-0.8-0.3c0-0.2-0.1-0.5-0.1-0.7c0.1-3.4-0.3-6.7-1.3-9.9
			c-0.5-1.8-1.3-3.6-2.4-5.2c-0.3-0.4-0.5-0.8-0.6-1.4c-0.2-1.7-1-3.3-2-4.7c-1-1.3-2.2-2.1-3.8-2.6c-2.9-0.8-5.7-0.8-8.6-0.1
			c-2.1,0.5-4.1,1.2-6,1.7c3.4-3.8,13.3-7.1,19.3-6.6c0,0.3,0.1,0.7,0.1,1c0.1,3.2,0.4,6.3,1.8,9.2c0.8,1.6,1.7,3.1,2.7,4.5
			c0.9,1.3,1.8,2.6,2.8,3.9c1.8,2.4,4.1,4.2,6.6,5.7c1.9,1.1,4,2,6.1,2.7c4.8,1.5,9.7,2.5,14.7,2.9c8.5,0.7,16.7-0.9,24.4-4.4
			c4.5-2.1,8.9-4.3,13.1-6.9c4.2-2.5,7.8-5.7,11.2-9.2c1.8-1.8,3-4,4.3-6.1c1.1-1.8,1.8-3.7,2.5-5.8c1.4-4.6,1.2-9.1-0.6-13.5
			c-0.4-1-0.9-2-1.3-3.1C251.6,160.9,251.5,160.7,251.3,160.3z M215.6,226.5c0.1,0.9,0.6,1.9,1.1,2.6c1,1.3,2.5,1.6,4,0.8
			c1.6-0.9,2.5-3.1,1.8-4.9c-0.6-1.8-2.4-2.7-4.3-2.2C216.3,223.2,215.3,224.7,215.6,226.5z M219.1,214.4c-0.3-1.6-1.7-2.9-3.3-2.8
			c-0.4,0-1,0.1-1.3,0.4c-0.8,0.7-1.5,1.6-1.7,2.7c-0.1,0.4,0,0.9,0.1,1.3c0.4,1.5,2.4,2.6,3.9,2.2
			C218.3,217.8,219.4,216.1,219.1,214.4z"/>
		<path class="st26" d="M201.9,180.7c0.3,0.2,0.5,0.4,0.7,0.6c2.3,1.8,4.9,2.8,7.8,2.7c3.6-0.1,6.2-2,7.9-5.2
			c0.1-0.2,0.1-0.3,0.2-0.5c0.1-0.2,0.1-0.3,0.2-0.5c0.3,0,0.6,0.1,0.9,0.1c3.7,0.7,7.4,0.4,11-0.6c1.5-0.4,2.9-0.9,4.3-1.4
			c2.8-1.1,5.2-2.7,7.1-5.1c0.9-1.1,1.6-2.3,1.7-3.8c0-0.6-0.1-1.1-0.5-1.5c-0.5-0.4-1-0.5-1.6-0.3c-0.4,0.2-0.7,0.4-1.1,0.6
			c-1.9,1.2-3.9,2.2-6,2.8c-1.3,0.3-2.5,0.4-3.8,0.4c-2.3-0.1-4.6-0.5-6.8-1.4c-1.2-0.5-2.3-0.9-3.5-1.4c-1.7-0.7-3.5-1.2-5.5-1.1
			c-0.5-1.4-1.2-2.6-2.5-3.3c0-0.1,0-0.1,0.1-0.2c0.3,0,0.7-0.1,1,0c2.3,0.4,4.7,0.7,7,1.1c2.3,0.4,4.5,0.9,6.7,1.3
			c2.2,0.4,4.3,0.2,6.4-0.6c3.2-1.2,5.1-3.5,5.9-6.8c0.6-2.7,0.4-5.4-0.2-8c-0.2-0.7-0.2-0.7,0.6-1.1c2.1,3.2,4.1,6.4,6.2,9.6
			c1.4,2.2,2.6,4.5,3.7,6.9c2.5,5.4,2.2,10.8-0.2,16.2c-1.7,3.8-4.1,7-7.1,9.8c-4.7,4.4-10,7.8-15.7,10.6c-3.2,1.6-6.4,3.2-9.8,4.4
			c-4.9,1.8-9.9,2.7-15.1,2.6c-6.6,0-13.1-1.2-19.3-3.6c-7.9-3-12.9-8.8-15.6-16.6c-1-2.8-1-5.8-0.8-8.7c0.2-3.7,1.2-7.2,2.3-10.8
			c0.6-2,1.3-4,1.5-6.2c0.1-0.9,0-1.9,0.1-3c0.7-0.1,1.4-0.1,2.2-0.2c0.1,0.8,0.2,1.6,0.4,2.3c0.3,1.4,0.7,2.8,1.1,4.1
			c0.8,2.5,2.6,4.1,5.1,5c1.9,0.7,4,0.8,6,0.8c3.3,0.1,6.5-0.6,9.7-1.5c2.9-0.7,5.6-1.9,8-3.6c0.1-0.1,0.2-0.1,0.4-0.2
			c0.1,0.8,0.2,1.5,0.4,2.2c-2,0.2-3.6,1.3-5.3,2.3c-3.7,2.1-7.7,3.4-12,3.8c-1.6,0.2-3.3-0.1-4.9-0.2c-0.4,0-0.9-0.1-1.3-0.1
			c-1.5-0.1-2.4,0.7-2.6,2.2c-0.1,1.2,0.2,2.2,0.7,3.2c1.2,2.4,3.3,4,5.8,5c2.5,1,5.1,1.1,7.8,1
			C195.3,184.8,198.8,183.4,201.9,180.7z"/>
		<path class="st1" d="M271.5,238.8c1.4,3.4,2.9,6.5,3.6,10c0.8,3.4,1.2,6.8,1.2,10.3c0,2-0.4,2.3-2.2,2.7
			c-4.2,0.9-8.4,1.8-12.6,2.6c-3.9,0.8-7.9,1.6-11.8,2.4c-3,0.7-6,1.1-9.1,1.4c-1.2,0.1-2.5,0.1-3.7,0.1c-1,0-1.8-0.5-2.3-1.2
			c-0.6-0.8-1.2-1.7-1.7-2.5c-1.2-1.8-2.4-3.5-4-4.9c-0.7-0.6-1.4-1.1-2.2-1.5c-1.5-0.7-2.9-0.5-4.3,0.5c-1.3,1-2.3,2.2-3.1,3.6
			c-1,1.8-1.9,3.7-2.9,5.5c-0.5,1-1.1,2-1.7,2.9c-1,1.5-2.3,2.4-4.2,2.5c-2.1,0.1-4.1,0.3-6.2,0.5c-2.4,0.2-4.8,0.3-7.3,0.4
			c-4.7,0.2-9.4,0.4-14.1-0.2c-0.9-0.1-1.8-0.3-2.7-0.5c-1.6-0.4-2.8-1.4-3.4-2.9c-0.6-1.5-1.1-3.1-1.5-4.7c-1-3.9-1.6-7.9-2.2-11.8
			c0-0.2,0-0.5,0-0.7c0-0.1,0.1-0.1,0.1-0.2c2,0.6,4.2,0.6,6.3,0.7c2.9,0,5.7-0.2,8.6-0.6c5.1-0.7,10.2-1.4,15.2-2.1
			c4.2-0.6,8.5-1.2,12.7-1.8c5.1-0.7,10.3-1.5,15.4-2.2c2.5-0.4,5.1-0.8,7.6-1.2c6.6-1,13.3-2,19.9-3.1c3-0.5,5.9-1.3,8.8-2
			C269.2,240.4,270.4,239.8,271.5,238.8z"/>
		<path class="st1" d="M256.7,121.2c-2.6,1.1-4.8,2.4-6.7,4.2c-0.5-0.2-1-0.4-1.5-0.6c-3.2-1.1-6.4-2.2-9.7-3.3
			c-1.6-0.5-3.3-0.7-4.9-1.1c-0.3-0.1-0.7-0.2-0.9-0.4c-3.8-4.5-8.8-6.4-14.5-6.8c-3.5-0.3-7-0.1-10.5,0.5c-6.4,1-12.9,1.9-19.3,3
			c-4.7,0.8-9.3,1.9-13.9,3.2c-1.4,0.4-2.7,0.7-4.2,1.1c0.2-0.3,0.2-0.4,0.3-0.5c5.4-7,11.5-13.3,18.7-18.4
			c3.2-2.3,6.6-4.2,10.4-5.4c7.1-2.3,14.1-2.3,21.2,0c4.2,1.4,8.1,3.5,11.6,6.1c3.3,2.4,6.5,4.8,9.7,7.3c4.3,3.5,8.8,6.9,13.3,10.3
			C256.1,120.6,256.3,120.8,256.7,121.2z"/>
		<path class="st8" d="M301.8,240.4c0.1,0.8,0.1,1.4,0.1,2.1c0,1.4,0.7,2.2,2,2.6c1.2,0.3,2.5,0.7,3.8,1c-0.2,0.3-0.5,0.7-0.7,1
			c-5.1,6.8-10.8,13.2-16.4,19.6c-5.3,6-10.5,12-15.9,18c-4.2,4.7-8.5,9.4-12.9,14c-2.7,2.8-5.6,5.3-8.4,7.9
			c-4.3,4.2-8.6,8.4-12.9,12.5c-0.1,0.1-0.2,0.2-0.5,0.4c-3.6-3.7-7.3-7.2-10.8-11c4.3-5,7.7-10.7,12-16c0.1,0.5,0.1,0.7,0.2,1
			c0.5,3,2.6,5.1,5.5,5.8c2.6,0.6,5.2,0.1,7.6-0.8c5.4-2.2,10-5.6,13.8-10c1.6-1.9,3.1-3.9,4.2-6.2c1-1.9,1.8-3.9,2-6.1
			c0.2-1.7-0.3-3.3-1.3-4.8c-0.9-1.3-2.1-2-3.7-2.2c-0.4,0-0.7-0.1-1.2-0.1c0.1-0.3,0.2-0.5,0.3-0.6c1.2-1.1,2.3-2.3,3.5-3.4
			c0.2-0.2,0.5-0.3,0.8-0.4c0.9-0.2,1.8-0.4,2.7-0.6c1.8-0.4,2.9-1.5,3.3-3.3c0.1-0.4,0.2-0.7,0.5-1c4.8-4.3,9.5-8.6,14.3-12.8
			c2.4-2.1,4.9-4.1,7.4-6.1C301.4,240.7,301.5,240.6,301.8,240.4z"/>
		<path class="st8" d="M218,299.8c0.3,0.4,0.6,0.6,0.8,0.8c5.6,6.5,11.4,12.8,17.6,18.8c0.6,0.6,0.8,1.1,0.7,1.9
			c-0.1,1.3-0.2,2.6-0.4,3.9c0,0.4-0.2,0.8-0.3,1.3c-0.9,0.1-1.7,0.1-2.5,0.2c-1.3,0.1-2.6,0.1-3.9,0.7c-0.4,0.2-0.7-0.1-1-0.3
			c-1.7-1.1-3.4-2.3-5-3.4c-8.3-5.8-16.5-11.7-24.3-18.3c-6.5-5.5-12.9-11.3-18.9-17.4c-1.6-1.7-3.3-3.3-5.1-4.8
			c-3.9-3.4-7.6-7.1-11.1-10.9c-0.6-0.6-1.2-1.3-1.8-1.9c-0.2-0.2-0.3-0.4-0.5-0.7c0.9-0.1,1.7-0.1,2.5-0.2c1.1,0,1.8-0.6,2-1.6
			c0.2-1,0.4-2,0.6-3.1c0-0.3,0.1-0.5,0.2-0.9c1.7,1.2,3.4,2.4,5.1,3.5c0.9,0.6,1.4,1.3,1.6,2.3c0.1,0.4,0.3,0.8,0.4,1.2
			c0.9,2.7,2.8,4.4,5.6,5.1c2.4,0.6,4.8,0.8,7.2,0.9c0.3,0,0.7,0,1.1,0.1c0.3,1.6,0.7,3.2,1,5c-0.3,0-0.5,0-0.8-0.1
			c-0.8-0.1-1.6-0.3-2.4-0.3c-2.2,0-3.6,1.6-3.2,3.8c0.1,0.9,0.5,1.8,0.9,2.6c1.1,2.2,2.7,4.1,4.5,5.7c4.8,4.1,10.1,7.2,16.1,9.2
			c2.4,0.8,5,1.4,7.5,1.4c0.8,0,1.6-0.1,2.3-0.3C216.3,303.1,217.5,301.9,218,299.8z"/>
		<path class="st24" d="M165.4,202.9c0.4,2.5,0.6,4.7,0.4,6.8c-0.2,2.8-1.5,4.8-4,6c-3.5,1.7-7.2,2.7-11.1,2.9
			c-1.3,0.1-2.6,0.1-3.9,0c-1.2-0.1-2.3-0.4-3.4-0.7c-1.5-0.4-2.6-1.5-3.6-2.7c-0.9-1.1-1.4-2.4-1.7-3.7c-0.6-2.5-1-5.1-0.8-7.7
			c0.2-3.2,1.7-5.6,4.1-7.6c1.7-1.4,3.7-2.3,5.7-3c3-1.1,6-1.7,9.2-1.4c3.3,0.3,5.7,1.9,7.2,5C164.5,198.8,165.2,201,165.4,202.9z"
			/>
		<path class="st24" d="M271.5,165.7c3.6-0.5,6.5-0.5,9.3,0.3c2.5,0.7,4.7,2,6.2,4.3c1.9,2.8,3.1,5.7,2.9,9.2
			c-0.2,2-0.9,3.8-2.2,5.3c-2.3,2.7-5.2,4.2-8.5,5.2c-2,0.6-4,1-6,1.3c-4.5,0.6-9.9-1.9-12.4-6.8c-0.9-1.7-1.3-3.5-1.3-5.4
			c-0.1-3.1,0.6-5.9,2.7-8.4c1.6-1.9,3.6-3.1,5.9-4C269.3,166.3,270.7,165.9,271.5,165.7z"/>
		<path class="st26" d="M238,140.8c-0.4,0.2-0.8,0.5-1.2,0.8c-0.2-0.4-0.4-0.8-0.6-1.2c-1.4-2.9-3-5.6-5.3-7.8
			c-2.3-2.2-5-3.2-8.1-3.1c-2.1,0.1-4,0.6-5.9,1.3c-3,1.1-5.8,2.8-8.5,4.5c-1.7,1.1-3.5,2.1-5.4,2.8c-3.5,1.3-7.1,1.6-10.8,1.2
			c-1.7-0.2-3.5-0.5-5.2-0.8c-1.7-0.3-3.4-0.4-5.1-0.1c-4.3,0.7-7.3,3.1-8.9,7.1c-0.8,1.9-1,3.8-1.1,5.8c0,0.4,0,0.8-0.1,1.2
			c-1.4,0-2.7,0-4,0c-0.6-1.7-1.1-3.4-1-5.3c0-1.1,0.2-2.1,0.3-3.2c0.4-2.7,1.9-4.7,3.7-6.6c2.4-2.4,5.3-4,8.4-5.2
			c2.9-1,5.8-1.9,8.8-2.6c6.9-1.8,13.8-3.1,20.9-4c5-0.7,10.1-0.9,15.1-0.6c2.3,0.1,4.5,0.7,6.7,1.6c1.6,0.7,3,1.8,4.1,3.2
			c1.5,2.1,2.5,4.3,2.8,6.9C237.7,138.1,237.9,139.5,238,140.8z"/>
		<path class="st34" d="M166.5,140.5c-0.2-0.5-0.4-0.8-0.6-1.2c-1.5-3.9-1.6-7.8-0.8-11.8c0.2-0.9,0.7-1.7,1.5-2.2
			c0.9-0.5,1.8-1.1,2.8-1.4c2.3-0.7,4.6-1.4,6.9-1.9c3.4-0.9,6.9-1.7,10.3-2.5c3.2-0.7,6.5-1.2,9.8-1.7c3.2-0.5,6.3-1,9.5-1.4
			c3.7-0.5,7.4-1,11.2-0.9c2.8,0.1,5.5,0.5,8.1,1.6c3.7,1.5,6.3,4.2,8,7.8c0,0.1,0,0.2,0.1,0.4c-0.2,0-0.3-0.1-0.4-0.1
			c-3.1-1.6-6.5-2.3-10-2.4c-6.5-0.2-13,0.2-19.3,1.5c-3.2,0.6-6.5,1.2-9.8,1.9c-4.3,0.9-8.6,2.1-12.8,3.4c-2.5,0.8-4.9,1.8-7.1,3.1
			c-2.9,1.8-5.2,4-6.9,7C166.9,139.9,166.7,140.1,166.5,140.5z"/>
		<path class="st8" d="M174.3,158.5c-0.7-4.3-0.7-7.6,0.3-10.9c1.1-3.8,4.2-6.2,8.1-6.6c1.8-0.2,3.5,0.1,5.2,0.3
			c2.8,0.5,5.5,0.8,8.4,0.7c4.2-0.2,8.1-1.2,11.7-3.3c2.3-1.3,4.7-2.7,7-4c2.3-1.2,4.8-2.2,7.5-2.4c2.5-0.2,4.7,0.6,6.5,2.3
			c1.2,1.1,2.1,2.3,2.8,3.7c2,3.7,3.7,7.5,4.7,11.6c0.5,2,0.6,3.9,0.3,5.9c-0.6,3.5-2.8,5.5-6.7,5.8c-1.5,0.1-3-0.2-4.5-0.5
			c-2.7-0.6-5.4-1.1-8-1.7c-4.7-1.1-9-0.3-13,2.1c-1,0.6-2.1,1.2-3.1,1.9c-2.1,1.5-4.3,2.7-6.8,3.4c-1.8,0.5-3.5,1-5.3,1.3
			c-2.2,0.5-4.5,0.4-6.8,0.3c-0.5,0-0.9-0.1-1.4-0.2c-2.7-0.5-4.6-2-5.4-4.7C175.1,161.4,174.6,159.5,174.3,158.5z M188.3,165.6
			c4.3-0.7,8-2.1,11.4-4.2c2.2-1.4,4.5-2.7,7-3.6c2.2-0.9,4.5-1.3,6.9-1.3c2.4,0,4.8,0.5,7.1,1.2c2.4,0.7,4.8,0.9,7.2,0.5
			c4.1-0.7,6.8-4.1,6.5-8.3c-0.2-2.6-0.9-5.1-2.1-7.5c-2.2-4.4-6.4-6.3-11.3-5.1c-2.4,0.6-4.5,1.7-6.6,2.9c-2.3,1.3-4.5,2.6-6.8,3.8
			c-3.5,1.7-7.2,2.5-11.1,2c-2.3-0.3-4.6-0.8-7-1.2c-1.4-0.2-2.9-0.5-4.3-0.6c-2.9-0.2-5,1.2-6.2,3.8c-0.5,1.2-0.9,2.4-1.1,3.7
			c-0.3,2.2-0.4,4.4-0.4,6.6c0,1,0.1,2,0.3,3c0.4,2,1.6,3.4,3.5,4.1c0.7,0.3,1.4,0.4,2,0.5C185.2,166,186.9,165.9,188.3,165.6z"/>
		<path class="st37" d="M270.4,228.8c0,2.2,0.1,4.4-0.3,6.6c-0.3,1.5-1.2,2.4-2.7,2.7c-2.4,0.6-4.8,1.2-7.2,1.6
			c-6.2,1.1-12.5,2-18.7,3c-2.8,0.4-5.6,0.8-8.4,1.2c-0.3,0-0.7,0.1-1.1,0.1c-0.5-2.6-1.1-5.2-1.6-7.8c0.4-0.1,0.7-0.2,1.1-0.2
			c7.6-1.2,15.2-2.4,22.8-3.7c4.1-0.7,8.2-1.5,12.3-2.3C267.9,229.7,269.1,229.2,270.4,228.8z"/>
		<path class="st37" d="M170.1,243.3c0.2,0,0.3,0,0.4,0c2.8,1,5.8,1,8.7,0.7c4.3-0.5,8.5-1,12.8-1.6c5.3-0.8,10.7-1.6,16-2.5
			c0.3,0,0.5-0.1,0.8-0.1c0.5,2.4,0.9,4.9,1.4,7.4c-0.3,0.1-0.6,0.1-0.9,0.2c-5,0.8-10,1.6-15,2.4c-3,0.5-6,0.9-9,1.3
			c-2.9,0.3-5.9,0.5-8.9,0.3c-0.7-0.1-1.4-0.2-2.1-0.3c-1.6-0.4-2.7-1.4-3.2-2.9C170.5,246.5,170.3,245,170.1,243.3z"/>
		<path class="st24" d="M251.7,269.3c4.2-0.9,8.2-1.8,12.4-2.7c0.2,0.6,0.3,1.2,0.5,1.8c0.7,2.8,1,5.7,0.7,8.6
			c-0.2,2.1-1,3.8-2.6,5.2c-1.5,1.3-2.9,2.7-4.5,4c-1.8,1.5-3.9,2.6-6.4,2.9c-0.8,0.1-1.5,0-2.3-0.2c-0.9-0.3-1.5-1-1.4-2
			c0.1-1,0.2-1.9,0.5-2.9c0.2-0.9,0.7-1.7,1.1-2.5c0.5-1,1-2,1.4-3c1-2.3,1.3-4.7,0.9-7.2C252,270.6,251.9,270,251.7,269.3z"/>
		<path class="st24" d="M190.2,276.9c4.7-0.2,9.3-0.3,13.9-0.5c0,0,0.1,0.1,0.1,0.2c0,3.6,1.3,6.8,3.4,9.6c0.5,0.7,1.1,1.3,1.5,2
			c0.4,0.7,0.7,1.4,0.9,2.1c0.4,1.8-0.4,3.2-2.1,3.8c-1.6,0.6-3.3,1-5,1c-2.6,0.1-4.9-0.9-7-2.2c-0.8-0.5-1.3-1.3-1.8-2.2
			c-0.9-1.7-1.5-3.6-1.9-5.4c-0.5-2.3-1-4.6-1.5-6.9C190.5,277.9,190.3,277.5,190.2,276.9z"/>
		<path class="st19" d="M268.3,271.3c2.6,0.1,4.1,1.8,3.9,4.4c-0.1,0.9-0.2,1.8-0.6,2.5c-0.6,1.5-1.3,2.9-2.1,4.2
			c-3.9,6.1-8.9,10.8-15.6,13.7c-2,0.9-4.1,1.4-6.3,1c-2.6-0.5-4.4-2.6-4.3-5.2c0-3.1,0.9-5.9,2.5-8.5c0.4-0.7,0.9-1.4,1.5-2
			c-0.1,0.3-0.3,0.7-0.4,1c-0.6,1.3-0.9,2.7-1,4.1c-0.1,2.2,0.9,3.7,2.9,4.5c2,0.8,4,0.6,6-0.1c2.1-0.7,4.1-1.7,5.8-3.2
			c1.3-1.1,2.6-2.3,3.9-3.4c2.7-2.3,3.9-5.3,4-8.7c0-1,0-2.1,0-3.1C268.3,272.1,268.3,271.7,268.3,271.3z"/>
		<path class="st34" d="M179.4,175.4c0.9,0.1,1.9,0.2,2.8,0.3c3.7,0.4,7.3-0.2,10.9-1.3c2.8-0.9,5.4-2.3,7.8-4
			c0.9-0.6,1.9-1.2,3-1.4c0.7,0.8,1.4,1.5,2.2,2.3c-1.8,2.5-3.4,5.3-5.9,7.5c-3,2.6-6.5,3.7-10.4,3.7c-1.2,0-2.4-0.1-3.6-0.3
			c-1.8-0.3-3.4-1.2-4.8-2.4c-0.8-0.7-1.3-1.5-1.7-2.5C179.3,176.7,179.1,176.2,179.4,175.4z"/>
		<path class="st36" d="M301.9,170.9c-0.4-0.4-0.7-0.7-1.1-1.1c0.1-0.1,0.2-0.2,0.3-0.3c14-8.6,28-17.3,42.1-25.9
			c3.5-2.2,7.1-4.2,10.6-6.2c0.3-0.2,0.5-0.3,0.8-0.4c1.7-0.9,2.3-0.5,3.1,0.9c-0.6,0.4-1.2,0.8-1.8,1.2
			c-6.4,3.9-12.9,7.7-19.3,11.6c-7.4,4.6-15,8.9-22.5,13.3c-3.1,1.8-6.1,3.7-9.1,5.5c-0.7,0.4-1.4,0.8-2.1,1.2
			C302.6,170.7,302.2,170.8,301.9,170.9z"/>
		<path class="st37" d="M229.7,244.4c-5.7,0.8-11.4,1.6-17.2,2.5c-0.7-2.5-1.1-4.9-1.6-7.4c5.9-1,11.6-1.9,17.6-2.9
			C228.9,239.1,229.3,241.7,229.7,244.4z"/>
		<path class="st34" d="M263.1,126.1c0,0.9,0,2,0.1,3.1c0.1,1,0.2,1.9,0.3,2.9c0.1,1.1-0.2,2.1-1,2.9c-0.8,0.8-1.7,1.1-2.9,0.8
			c-1.1-0.3-2.3-0.4-3.5-0.4c-1-0.1-2-0.3-2.8-1c-1.7-1.3-2.5-3.1-3.3-5c-0.2-0.5,0-0.9,0.2-1.2c0.6-0.7,1.2-1.5,1.9-2.1
			c2.1-1.7,4.6-2.7,7.2-3.5c0.7-0.2,1.3-0.1,1.9,0.3C262.2,123.7,262.9,124.6,263.1,126.1z"/>
		<path class="st35" d="M303.1,185.4c0.1,1.4,0.3,2.7,0.4,4.1c0.2,2.4,0.2,4.8,0,7.2c-0.4,3.8-2,7.1-4.7,9.8c-1.6,1.6-3.3,3-5.3,4
			c-2,1-4,0.7-5.6-0.9c-1.1-1.1-1.4-2.5-1.3-3.9c0.1-1.4,0.4-2.9,0.8-4.3c0.9-3.3,2.4-6.3,4.2-9.2c2.9-4.7,5.7-9.4,7.9-14.5
			c0-0.1,0.1-0.2,0.3-0.2c-0.1,0.4-0.2,0.7-0.3,1.1c-1.5,5.5-3.5,10.7-6.4,15.6c-0.7,1.2-1.4,2.5-2.1,3.7c-0.6,1.2-1.2,2.4-1.6,3.6
			c-0.3,0.9-0.5,1.8-0.6,2.8c-0.2,2.6,2,4.2,4.5,3.3c1.9-0.7,3.4-1.9,4.6-3.6c1.1-1.5,1.9-3.1,2.4-4.8c0.6-1.9,1.1-3.8,1.5-5.7
			c0.5-2.4,0.8-4.8,1.1-7.2c0-0.3,0.1-0.6,0.1-0.9C303,185.4,303.1,185.4,303.1,185.4z"/>
		<path class="st36" d="M73.2,181.8c0.7,0.2,1.4,0.4,2.1,0.6c4,1.5,8,3,12,4.5c7.7,2.8,15.4,5.7,23.2,8.5c5.8,2.1,11.6,4.1,17.4,6.1
			c0.4,0.1,0.7,0.4,1,0.6c-0.1,0.4-0.2,0.8-0.4,1.2c-0.3-0.1-0.5-0.1-0.8-0.2c-4.7-1.5-9.4-2.9-14.1-4.4c-9-2.7-18-5.9-26.7-9.4
			c-3.6-1.5-7.2-3-10.8-4.6c-1-0.4-1.9-0.9-2.8-1.5C72.6,182.9,72.6,182.8,73.2,181.8z"/>
		<path class="st19" d="M189.8,283.4c0.2,1.1,0.5,2,0.7,3c0.3,1.8,0.9,3.6,1.7,5.3c0.8,1.7,2,2.9,3.7,3.8c2.2,1.1,4.4,2,6.9,1.9
			c2.1-0.1,4.2-0.5,6.2-1.2c1.9-0.7,3.2-2.1,3.6-4.2c0-0.2,0.1-0.3,0.2-0.6c0.2,0.2,0.4,0.4,0.5,0.5c1.3,2.1,2.1,4.3,2.3,6.7
			c0.1,1.7-0.7,2.6-2.3,2.9c-1.3,0.2-2.6,0-3.8-0.2c-4.8-0.8-9.2-2.7-13.4-5.3c-1.9-1.2-3.6-2.5-5.4-3.8c-1.9-1.4-3.4-3.2-4.6-5.3
			c-0.3-0.5-0.6-1.1-0.8-1.6c-0.5-1.6,0.1-2.4,1.8-2.3C187.9,283.1,188.8,283.3,189.8,283.4z"/>
		<path class="st34" d="M239.9,169.4c-0.9,1-1.8,1.8-2.8,2.5c-1.8,1.3-3.9,2-6,2.7c-3.3,1-6.6,1.6-10.1,1.1c-0.2,0-0.5,0-0.7-0.1
			c-2.4-1-4.8-2-6.7-3.8c-0.1-0.1-0.2-0.2-0.3-0.4c1.4-1.2,1.9-2.8,1.9-4.7c1.2,0.2,2.4,0.5,3.4,0.9c1.5,0.7,3.1,1.4,4.6,2.1
			c2.9,1.2,5.9,1.8,9,1.7c2.3,0,4.5-0.7,6.6-1.6c0.3-0.1,0.5-0.3,0.8-0.4C239.7,169.4,239.7,169.4,239.9,169.4z"/>
		<path class="st35" d="M127.2,208.9c-0.3,1.5-0.6,3-0.9,4.5c-0.6,4-0.6,8,0.4,12c0.8,3,2,5.9,4,8.3c0.7,0.8,1.6,1.6,2.5,2.2
			c0.8,0.6,1.7,0.9,2.7,1c1.9,0.1,3.4-0.9,3.9-2.8c0.4-1.5,0.3-3-0.1-4.5c-0.7-3.3-2.1-6.4-3.6-9.4c-1.3-2.8-2.6-5.6-3.8-8.4
			c-0.3-0.8-0.5-1.6-0.6-2.4c0.2,0.6,0.4,1.2,0.7,1.8c1.9,3.8,3.8,7.7,5.7,11.5c0.9,1.8,1.7,3.5,2.4,5.3c0.9,2.3,1,4.7,0.6,7.2
			c0,0.2-0.1,0.4-0.1,0.6c-0.7,2.6-2.8,4.1-5.5,3.9c-1.7-0.1-3.1-0.7-4.4-1.8c-1.3-1.1-2.3-2.4-3.1-3.8c-1.9-3.5-3.2-7.2-3.6-11.2
			c-0.4-4.6,0.2-9.1,2.3-13.3C126.9,209.3,127,209.1,127.2,208.9C127.2,208.8,127.2,208.9,127.2,208.9z"/>
		<path class="st25" d="M289.6,169.4c-1.2-2.1-2.9-3.5-4.9-4.7c-2-1.2-4.3-1.6-6.5-1.9c-4.9-0.6-9.5,0.3-13.7,2.9
			c-1.6,1-3,2.2-4.2,3.6c-1.8,2.1-2.6,4.6-2.8,7.3c0,0.5-0.1,1-0.3,1.5c-0.8-2.2-1.3-4.4-0.9-6.7c0.4-2.7,1.9-4.8,4-6.4
			c1.7-1.3,3.6-2.2,5.7-2.8c3.6-1,7.3-1.5,11-1.2c3,0.2,5.9,1.1,8.6,2.5c2.2,1.1,3.6,3,4.1,5.4c0,0.2,0,0.3,0,0.5
			C289.8,169.4,289.7,169.4,289.6,169.4z"/>
		<path class="st8" d="M149.2,252.3c0.6,0.1,1.3,0.1,1.9,0.3c0.7,0.2,1.5,0.5,2.1,0.9c3.2,1.9,6.1,4.2,9,6.5
			c0.2,0.2,0.4,0.5,0.3,0.8c-0.1,1-0.3,2.1-0.5,3.1c-0.2,0.7-0.3,0.8-1,0.8c-1.1,0-2.3-0.1-3.4-0.2c-0.2,0-0.5-0.2-0.7-0.3
			c-2.4-2.7-4.8-5.3-7.1-8c-0.6-0.7-1-1.5-1.4-2.3C148,252.8,148.2,252.5,149.2,252.3z"/>
		<path class="st8" d="M242.9,326.1c3.8,3.9,7.6,7.5,10.6,11.8c0.5,0.7,1,1.5,1.2,2.4c-2.7,0.1-15.2-5.8-17.4-8.1
			c0.8,0,1.6-0.1,2.4-0.1c1.2,0,2-0.6,2.3-1.7c0.3-1,0.4-2,0.6-3.1C242.8,326.9,242.9,326.6,242.9,326.1z"/>
		<path class="st8" d="M212.7,330.1c0.1,0.5,0.2,0.8,0.2,1c0.1,0.5,0.2,1.1,0.3,1.6c0.2,1.4,1,2.2,2.4,2.4c1.1,0.2,2.3,0.3,3.5,0.5
			c-0.1,0.1-0.2,0.3-0.3,0.4c-2.6,2-5.2,4-7.8,5.9c-1.3,0.9-2.8,1.7-4.2,2.4c-0.5,0.3-1,0.6-1.5,0.2c-0.6-0.4-0.3-1.1-0.1-1.6
			c0.3-0.9,0.7-1.8,1.2-2.7c1.9-3.1,3.8-6.2,5.8-9.3C212.3,330.7,212.5,330.5,212.7,330.1z"/>
		<path class="st8" d="M319.5,228.1c-0.3,0.8-0.6,1.5-1,2.3c-1.4,2.9-3.3,5.5-5.1,8.1c-1.4,2-0.6,1.6-3.2,1.4
			c-0.7-0.1-1.3-0.3-2-0.4c-0.5-0.1-0.7-0.3-0.8-0.8c-0.5-2.4-0.5-2.4,1.5-4c2.6-2,5.2-4,8.1-5.6c0.7-0.4,1.5-0.7,2.2-1.1
			C319.4,228,319.5,228.1,319.5,228.1z"/>
		<path class="st25" d="M135.9,199.4c-0.4-1.4-0.4-2.6,0-3.8c0.5-1.2,1.3-2.1,2.2-3c1.8-1.5,3.9-2.5,6.1-3.4c3-1.2,6.1-2.2,9.4-2.5
			c1.7-0.1,3.4,0,5,0.6c1.5,0.6,2.4,1.7,3.1,3c-0.2,0-0.2,0.1-0.3,0.1c-2.9-1.4-5.9-1.7-9.1-1.3c-4.1,0.5-7.9,1.8-11.4,4.2
			c-2,1.4-3.7,3.1-4.7,5.4C136.2,199,136.1,199.1,135.9,199.4z"/>
		<path class="st38" d="M208.6,163.3c1.5-0.2,3.1,0.4,3.7,1.5c0.8,1.4,0.7,3.6-0.3,4.7c-0.4,0.4-0.9,0.7-1.5,0.8
			c-1.8,0.3-4.6-0.6-5.5-3.2c-0.3-0.8-0.2-1.4,0.4-2C206.3,164.1,207.4,163.5,208.6,163.3z"/>
		<path class="st35" d="M73.4,172.6c0.1,0.8,0,1.5-0.4,2.2c-0.9,1.9-1.8,3.9-2.7,5.9c-0.9,1.9-1.8,3.8-2.7,5.6
			c-0.3,0.6-0.8,1.2-1.3,1.7c-0.6,0.6-1.2,0.4-1.3-0.5c0-0.2,0-0.3,0-0.5c0-0.3,0.1-0.6,0.1-0.9c1.4-4.4,3.3-8.5,6.3-12
			C72,173.5,72.5,172.9,73.4,172.6z"/>
		<path class="st8" d="M227.5,329.1c-0.6,0.5-1.1,1-1.7,1.4c-0.2,0.1-0.4,0.2-0.6,0.1c-1.8-0.4-3.6-0.8-5.4-1.2
			c-0.7-0.2-1-0.6-1.2-1.2c-0.4-1.5-0.7-2.9-1.1-4.4c-0.1-0.5,0.2-0.8,0.5-1.2C221.2,324.7,224.3,326.9,227.5,329.1z"/>
		<path class="st35" d="M259.3,186.4c1,1.7,2,3.2,3.6,4.3c-1.8,1.1-3.5,2.2-5.1,3.3c-0.6,0.4-1.1,0.3-1.6-0.1
			c-0.7-0.7-1.3-1.4-1.9-2.1c-0.3-0.4-0.2-0.8,0-1.1c0.2-0.3,0.4-0.6,0.6-0.8C256.2,188.6,257.7,187.5,259.3,186.4z"/>
		<path class="st35" d="M292.1,178.4c0-1.2,0-2.4,0-3.7c1.7-1.1,3.5-2.4,5.3-3.6c0.6-0.4,1.3-0.4,1.9,0c0.3,0.2,0.6,0.4,0.9,0.7
			c0.8,0.8,0.8,1.3,0,2c-0.7,0.6-1.5,1.2-2.3,1.6c-1.8,1-3.6,1.9-5.4,2.8C292.4,178.3,292.3,178.4,292.1,178.4z"/>
		<path class="st38" d="M245,149.8c-1.6-1.6-3.4-5.1-3.8-7.2c1.6-0.8,3.3-1.1,5-0.2c1.1,0.5,1.5,1.5,1.4,2.7c0,0.5-0.2,1.1-0.4,1.6
			C246.7,147.9,245.8,148.8,245,149.8z"/>
		<path class="st26" d="M210.3,178.5c-1.8-1.1-3.6-1.2-5.7-0.5c1.4-2.1,2.6-3.9,3.8-5.7c0.9,0,1.9,0.1,2.9,0.2
			c0.9,0.9,1.8,1.9,2.8,3C212.4,176.1,211.2,177.1,210.3,178.5z"/>
		<path class="st36" d="M216.1,325.3c0.1,0.6,0.3,1.2,0.4,1.8c0.2,0.7,0.3,1.4,0.5,2.1c0.2,1,0.9,1.6,1.8,1.9c1.3,0.4,2.5,0.7,3.8,1
			c0.2,0.1,0.5,0.1,0.8,0.2c-0.6,0.7-1.3,1.1-2,1.6c-0.1,0.1-0.3,0.1-0.4,0.1c-1.6-0.1-3.2-0.3-4.8-0.4c-0.8-0.1-1.3-0.4-1.4-1.3
			c-0.2-1.3-0.5-2.7-0.7-4c0-0.2,0-0.4,0.1-0.6c0.5-0.8,1.1-1.6,1.6-2.3C216,325.3,216.1,325.3,216.1,325.3z"/>
		<path class="st35" d="M364.9,140.9c-0.2-0.1-0.5-0.2-0.7-0.4c-1.1-0.9-2.3-1.9-3.4-2.8c-0.1-0.1-0.2-0.2-0.3-0.3
			c-0.1-0.9-0.8-1.2-1.4-1.6c-0.4-0.3-0.8-0.6-1.2-1c-0.7-0.8-1.3-1.7-1.9-2.6c-0.4-0.6-0.8-1.2-1.3-1.6c-0.8-0.8-1.2-1.7-1.6-2.7
			c0.1-0.1,0.1-0.1,0.2-0.2c0.5,0.3,1,0.5,1.4,0.9c1.4,1.3,2.9,2.5,4.3,3.9c2,2,3.9,4.2,5.4,6.7c0.3,0.5,0.6,1.1,0.8,1.6
			C365.1,140.8,365,140.9,364.9,140.9z"/>
		<path class="st35" d="M168.4,211.4c0.9,0.4,1.6,0.8,2.3,1.1c0.4,0.2,0.8,0.5,1.2,0.8c1,0.8,1.1,1.2,0.4,2.3
			c-0.4,0.7-0.9,1.4-1.4,2.1c-0.3,0.4-0.7,0.6-1.2,0.4c-1.4-0.5-2.8-1-4.3-1.6C166.9,215,167.9,213.4,168.4,211.4z"/>
		<path class="st36" d="M239.1,322.1c0.7,0.7,1.2,1.2,1.7,1.7c0.2,0.2,0.3,0.5,0.3,0.7c-0.2,1.5-0.3,3-0.5,4.5c-0.2,1-0.3,1-1.3,1.1
			c-1.2,0.1-2.4,0.3-3.6,0.4c-0.2,0-0.5,0.1-0.7,0c-1-0.6-2-1.3-3.1-1.9c0-0.1,0-0.1,0.1-0.2c1.3-0.1,2.5-0.2,3.8-0.2
			c2.2-0.1,2.7-0.5,3-2.7C238.8,324.6,238.9,323.4,239.1,322.1z"/>
		<path class="st19" d="M216.6,176.9c-1,2.8-3.9,5.1-7.4,4.8c-1.7-0.2-3.4-0.6-4.9-1.4c-0.1-0.1-0.3-0.1-0.4-0.3
			c1.5-0.9,3-1.5,4.6-0.8c0.3,0.1,0.6,0.3,0.9,0.4c1.3,0.7,1.5,0.6,2.4-0.4c0,0,0,0,0.1-0.1c1-1.3,2.4-1.9,3.9-2.4
			C216,176.7,216.3,176.9,216.6,176.9z"/>
		<path class="st38" d="M167,163.6c-0.9-0.4-1.7-0.8-2.4-1.2c-1.7-1-2.1-3.6-0.9-5.1c0.3-0.4,0.9-0.7,1.4-0.9
			c0.8-0.3,1.2-0.1,1.6,0.7C167.7,159.1,167.6,161.3,167,163.6z"/>
		<path class="st36" d="M310.7,242.1c-0.5,0.8-1,1.5-1.6,2.3c-1.7-0.4-3.3-0.9-4.9-1.3c-0.4-0.1-0.6-0.4-0.6-0.7
			c-0.1-1-0.2-1.9-0.3-2.9c0-0.2,0.1-0.4,0.2-0.5c0.6-0.5,1.2-0.9,1.9-1.5c0.1,0.7,0.2,1.2,0.3,1.8c0.1,1.1,0.7,1.8,1.7,2
			C308.5,241.6,309.6,241.8,310.7,242.1z"/>
		<path class="st35" d="M135.1,202.8c0.1,2,0.2,3.9,0.3,5.9c-1.1-0.7-5.4-2-4.9-4.1c0.1-0.5,0.1-0.9,0.2-1.3
			c0.3-1.2,0.7-1.4,1.9-1.1C133.4,202.4,134.3,202.6,135.1,202.8z"/>
		<path class="st36" d="M159.1,266.1c0.7,0.1,1.5,0.1,2.2,0.2c1.3,0.1,2-0.4,2.4-1.7c0.2-0.7,0.3-1.4,0.4-2.2
			c0.1-0.3,0.1-0.6,0.1-0.9c0.5,0.4,1,0.7,1.6,1.1c-0.2,1.4-0.5,2.8-0.7,4.2c-0.2,0.9-0.2,0.9-1.1,1c-0.9,0.1-1.8,0.2-2.7,0.2
			c-0.3,0-0.6,0-0.8-0.2c-0.5-0.5-1-1-1.5-1.5C159,266.2,159.1,266.2,159.1,266.1z"/>
		<path class="st36" d="M58,175c2.7,1,5.4,2.1,8.2,3.1c-0.4,0.7-0.7,1.4-1.1,2.2c-2.6-1.5-5.1-3.1-7.3-5.1
			C57.9,175.2,58,175.1,58,175z"/>
		<path class="st36" d="M363,133.9c-0.5-0.5-0.9-1-1.3-1.5c1.7-1.3,3.4-2.5,5.2-3.4C366.7,129.9,364.7,132.4,363,133.9z"/>
		<path class="st36" d="M172,154.2c0.1,0.9,0.1,1.8,0.2,2.7c-0.9,0-1.8,0-2.7,0c-0.4-0.8-0.7-1.6-1.1-2.5
			C169.7,154.4,170.8,154.3,172,154.2z"/>
		<path class="st36" d="M237.6,143.2c0.2-0.2,0.4-0.3,0.7-0.6c0.3,0.9,0.5,1.7,0.8,2.5c0.1,0.4,0.1,0.6-0.4,0.7
			C238.3,145,237.9,144.1,237.6,143.2z"/>
		<path class="st37" d="M218.9,224.5c0.2,0.1,0.8,0.2,1.1,0.4c1,0.8,0.6,2.8-0.6,3.3c-0.4,0.2-0.7,0.1-1-0.2
			c-0.6-0.6-0.9-1.4-0.9-2.3C217.5,225.2,218,224.6,218.9,224.5z"/>
		<path class="st37" d="M217.4,214.8c0.1,0.7-0.1,1.3-0.7,1.7c-0.5,0.3-1.1,0.3-1.6,0c-0.2-0.1-0.4-0.3-0.4-0.5
			c0-0.8,0.1-1.6,0.5-2.3c0.2-0.3,0.5-0.4,0.8-0.3C216.9,213.6,217.3,214,217.4,214.8z"/>
		<path class="st36" d="M179.5,159.1c-0.4-2.7-0.4-5.3,0.2-7.8c0.3-1,0.6-2,1.1-2.9c0.9-1.7,2.3-2.5,4.3-2.3c1,0.1,2.1,0.3,3.1,0.5
			c2,0.4,4,0.9,5.9,1.2c5.1,0.9,10,0.2,14.7-2c2.5-1.2,4.9-2.7,7.4-4c1.6-0.8,3.1-1.6,4.8-2.1c3.8-1.2,6.9-0.1,8.8,3.5
			c1.2,2.2,1.9,4.7,1.9,7.3c0,2.8-1.7,4.8-4.5,5.3c-2,0.4-4,0.2-6-0.4c-2.2-0.7-4.4-1.2-6.6-1.3c-4.1-0.2-8,0.8-11.7,2.6
			c-1.6,0.8-3.2,1.7-4.7,2.6c-3.4,2.2-7.1,3.5-11,4.1c-1.3,0.2-2.6,0.2-3.9,0c-1.6-0.2-2.8-1-3.4-2.5
			C179.7,160.3,179.6,159.6,179.5,159.1z M222.5,152.4c-0.1-0.1-0.2-0.3-0.5-0.5c-1.9-1.2-3.7-2.4-5.6-3.6c-0.3-0.2-0.7-0.3-1-0.4
			c-0.5-0.1-0.8,0.4-0.5,0.8c0.2,0.3,0.5,0.5,0.7,0.7c1.8,1.2,3.6,2.5,5.4,3.7c0.2,0.1,0.4,0.2,0.7,0.3
			C222.2,153.5,222.6,153.1,222.5,152.4z M193.7,157.3c-0.3-0.3-0.5-0.6-0.8-0.7c-1.8-1.1-3.6-2.1-5.4-3.1c-0.7-0.4-1.6-0.6-2.4-0.9
			c-0.3-0.1-0.6-0.2-0.8,0.2c-0.2,0.4,0.2,0.5,0.4,0.7c0.5,0.3,0.9,0.5,1.4,0.8c1.9,1.1,3.9,2.1,5.8,3.2c0.3,0.2,0.6,0.3,0.9,0.3
			C193.2,157.8,193.4,157.5,193.7,157.3z M219.1,147.3c-0.2,0.2-0.4,0.3-0.4,0.4c0,0.2,0.1,0.5,0.2,0.7c0.9,1.1,2.3,1.7,3.5,2.4
			c0.3,0.2,0.6,0.1,0.8-0.2c0.2-0.3,0.1-0.6-0.2-0.8c-1-0.8-2.1-1.5-3.1-2.3C219.6,147.4,219.4,147.4,219.1,147.3z M188.6,151
			c-0.4,0.1-0.6,0.4-0.3,0.7c0.1,0.1,0.2,0.2,0.3,0.3c1.3,0.7,2.6,1.3,3.9,1.9c0.1,0,0.1,0.1,0.2,0.1c0.2,0,0.4-0.1,0.4-0.2
			c0.1-0.2,0.1-0.4,0-0.6c-0.1-0.2-0.3-0.3-0.4-0.4c-1.1-0.6-2.3-1.1-3.5-1.7C189,151.1,188.8,151.1,188.6,151z"/>
	</g>
</g>
</svg>
