<?xml version="1.0" encoding="utf-8"?>
<!-- Generator: Adobe Illustrator 22.0.0, SVG Export Plug-In . SVG Version: 6.00 Build 0)  -->
<svg version="1.1" id="Calque_1" xmlns="http://www.w3.org/2000/svg" xmlns:xlink="http://www.w3.org/1999/xlink" x="0px" y="0px"
	 viewBox="0 0 432 432" style="enable-background:new 0 0 432 432;" xml:space="preserve">
<style type="text/css">
	.st0{fill:#BA874D;}
	.st1{fill:#008D36;}
	.st2{fill:#BE1622;}
	.st3{fill:#F39200;}
	.st4{fill:#634E42;}
	.st5{fill:#FFFFFF;}
	.st6{fill:#9B191E;}
	.st7{fill:#E99F2E;}
	.st8{fill:#D4870C;}
	.st9{fill:#9E191F;}
	.st10{fill:#C91517;}
	.st11{fill:#BE1919;}
	.st12{fill:#E6332A;}
	.st13{fill:#005F2D;}
	.st14{fill:#008639;}
	.st15{fill:#3AAA35;}
	.st16{fill:#00983B;}
	.st17{fill:#A81A17;}
	.st18{fill:#C7D6E1;}
	.st19{fill:#2CA949;}
	.st20{fill:#68B659;}
	.st21{fill:#CE8837;}
	.st22{fill:#8FAFD3;}
	.st23{fill:#878787;}
	.st24{fill:#936037;}
	.st25{fill:#A86D3E;}
	.st26{fill:#432918;}
	.st27{fill:#F6F6F6;}
	.st28{fill:#DB0D15;}
	.st29{fill:#683C11;}
	.st30{fill:#1D71B8;}
	.st31{fill:#29235C;}
	.st32{fill:#575756;}
	.st33{fill:#00A19A;}
	.st34{fill:#EDEDED;}
	.st35{fill:#2C8AB8;}
	.st36{fill:#B2B2B2;}
	.st37{fill:#C6C6C6;}
	.st38{fill:#2FAC66;}
	.st39{fill:#999999;}
	.st40{fill:#E68787;}
	.st41{fill:#95C11F;}
	.st42{fill:#F8C3C4;}
	.st43{fill:#EA5055;}
	.st44{fill:#C69B6A;}
	.st45{fill:#C29560;}
	.st46{fill:#CBBBA0;}
	.st47{fill:#CBB0A0;}
	.st48{fill:#EF7D81;}
	.st49{fill:#DCC2A4;}
	.st50{fill:#AE7A3E;}
	.st51{fill:#006633;}
	.st52{fill:#ABD194;}
	.st53{fill:#57B144;}
	.st54{fill:#B08048;}
	.st55{fill:#FDD5A8;}
	.st56{fill:#D41A27;}
	.st57{fill:#7B6A58;}
	.st58{fill:#FBDDDE;}
	.st59{fill:#D71927;}
	.st60{fill:#AE1921;}
	.st61{fill:#C49064;}
	.st62{fill:#D71016;}
	.st63{fill:#C11717;}
	.st64{fill:#E30613;}
	.st65{fill:#D61116;}
	.st66{fill:#CB1518;}
	.st67{fill:#BB1918;}
	.st68{fill:#A1191F;}
	.st69{fill:#4D3D34;}
	.st70{fill:#C8A5CE;}
	.st71{fill:#951B81;}
	.st72{fill:#2985BB;}
	.st73{fill:#448DC0;}
	.st74{fill:#007BB4;}
	.st75{fill:#4A94D0;}
	.st76{fill:#3A8FCD;}
	.st77{fill:#258ACA;}
	.st78{fill:#739AC0;}
	.st79{fill:#B11918;}
	.st80{fill:#E6C6A4;}
	.st81{fill:#F1E0CE;}
	.st82{fill:#42352C;}
	.st83{fill:#A08A7E;}
	.st84{fill:#B9B8B9;}
	.st85{fill:#A3A2A3;}
	.st86{fill:#D9D8D9;}
	.st87{fill:#CDCBCC;}
	.st88{fill:#80A1C5;}
	.st89{fill:#6391BA;}
</style>
<g>
	<g>
		<path class="st46" d="M290.1,66C263,79.4,249.8,166,246.4,191.5c-7.7-3.6-16.6-5.6-27.2-5.6c-12,0-22.1,2.7-30.5,7.3
			c-2.9-23.1-16.1-113.5-43.9-127.2c-29.4-14.5,7.7,105.8,26.5,141.6c-30.3,35.9-26.1,103.7-26.1,103.7l144.1-2.6
			c0,0,6.5-68.9-24.5-103.5C283.9,166.8,318.9,51.8,290.1,66z"/>
		<g>
			<path class="st42" d="M274.3,126.5c-13.9,6.8-21.7,45.3-25.1,66.4c5,2.7,9.5,6.1,13.4,10C274.3,174.8,290.1,118.7,274.3,126.5z"
				/>
			<path class="st42" d="M160.6,126.5c-16.2-8,0.9,51.6,12.7,78.8c3.7-4,7.9-7.6,12.6-10.5C182.8,174.2,174.9,133.6,160.6,126.5z"/>
		</g>
		<g>
			<g>
				<path d="M261.2,238.7c2.4-6.6-12.4,7.4-0.4-6.1c1.2-1.3,0.7-4.3-5.7,1c-3.4,2.8-7.3-7.5-16.5,0.1c-9.2,7.6-4.3,8.6-2.8,7.3
					c19.7-18.2,12.2,10.3,24.7,4.2c1.4-0.7,0.9-2.8-0.9-2C252,246.2,260.7,240.1,261.2,238.7z"/>
				<path d="M194.9,233.8c-9.2-7.6-13.2,2.7-16.5-0.1c-6.4-5.3-6.9-2.3-5.7-1c12.1,13.4-2.8-0.5-0.4,6.1c0.5,1.3,9.2,7.5,1.7,4.4
					c-1.8-0.7-2.2,1.4-0.9,2c12.4,6.2,4.9-22.4,24.7-4.2C199.2,242.4,204.1,241.4,194.9,233.8z"/>
				<path d="M207.3,257.8c-0.9,1.6,0.6,8.6,6.6,12.8c0.4,0.3,0.9,0.5,1.4,0.7c0,1.6,0,3.2,0,4.7c0,1.3,2.8,1.3,2.8,0
					c0-1.6,0-3.2,0-4.7c0.5-0.2,1-0.4,1.4-0.7c6-4.3,7.5-11.2,6.6-12.8C224.9,255.4,208.7,255.3,207.3,257.8z"/>
			</g>
			<g>
				<path class="st47" d="M166.6,257.8c8.2-9.5,20.7-0.5,22.6,7.1C197.9,299.6,142.1,285.9,166.6,257.8z"/>
				<path class="st47" d="M266.9,257.8c-8.2-9.5-20.7-0.5-22.6,7.1C235.6,299.6,291.5,285.9,266.9,257.8z"/>
			</g>
		</g>
	</g>
	<g>
		<path class="st48" d="M314.2,316.8c-1.7-16.7-3.3-22.4-10.6-24.6c-3-0.9-6.3-0.9-9.3-0.2c-31,9-133.3,4.8-162.5-0.6
			c-5-0.6-9.7,2.7-10.6,7.7c-2.2,12.3-4.7,34.5-6,47.8c-0.7,6.2,3.8,11.9,10.3,13.2c65.9,13.6,152.7,4.3,178.5-0.7
			c7.2-1.2,12.7-7,12.9-13.8C317.1,338.3,315.3,328.6,314.2,316.8z"/>
		<g>
			<path class="st42" d="M138.1,324.7c-0.8,32.9-5.4,26.9-6.1,24.2c-0.7-3-0.3-6.6-0.2-9.6c1.8-36.3,1.7-35.1,3.5-35.1
				C138.7,304.3,138.5,305.7,138.1,324.7C138.1,324.7,138.1,324.7,138.1,324.7z"/>
			<path class="st42" d="M159.6,353.3c-0.8-3-0.5-6.6-0.4-9.6c0.9-36.3,0.9-35.2,2.7-35.2c3.4,0,3.3,1.4,3.2,20.4c0,0,0,0,0,0
				C165,361.8,160.3,356,159.6,353.3z"/>
			<path class="st42" d="M187.2,355.4c-0.9-3-0.6-6.5-0.6-9.6c0.1-36.3,0.1-35.2,2-35.2c3.4-0.1,3.3,1.3,3.6,20.3c0,0,0,0,0,0
				C192.9,363.7,188,358,187.2,355.4z"/>
			<path class="st42" d="M215,354.7c-0.9-2.9-0.8-6.5-0.8-9.6c-0.7-36.3-0.6-35.2,1.2-35.3c3.4-0.2,3.3,1.2,4.1,20.2c0,0,0,0,0,0
				C220.8,362.8,215.8,357.3,215,354.7z"/>
			<path class="st42" d="M242.7,355.5c-1-2.9-0.9-6.5-1.1-9.6c-1.5-36.3-1.4-35.1,0.4-35.3c3.4-0.3,3.4,1.1,4.5,20c0,0,0,0,0,0
				C248.7,363.4,243.6,358.1,242.7,355.5z"/>
			<path class="st42" d="M270.5,353.2c-1.1-2.9-1.1-6.5-1.3-9.5c-2.3-36.2-2.2-35.1-0.4-35.3c3.4-0.4,3.4,1,5,19.9c0,0,0,0,0,0
				C276.6,360.9,271.4,355.7,270.5,353.2z"/>
			<path class="st42" d="M298.2,349.6c-1.1-2.9-1.2-6.4-1.5-9.5c-3.1-36.1-3-35-1.2-35.3c3.4-0.5,3.4,0.9,5.4,19.7c0,0,0,0,0,0
				C304.6,357.2,299.2,352.2,298.2,349.6z"/>
		</g>
	</g>
</g>
</svg>
