<?xml version="1.0" encoding="utf-8"?>
<!-- Generator: Adobe Illustrator 22.0.0, SVG Export Plug-In . SVG Version: 6.00 Build 0)  -->
<svg version="1.1" id="Calque_1" xmlns="http://www.w3.org/2000/svg" xmlns:xlink="http://www.w3.org/1999/xlink" x="0px" y="0px"
	 viewBox="0 0 432 432" style="enable-background:new 0 0 432 432;" xml:space="preserve">
<style type="text/css">
	.st0{fill:#BA874D;}
	.st1{fill:#008D36;}
	.st2{fill:#BE1622;}
	.st3{fill:#F39200;}
	.st4{fill:#634E42;}
	.st5{fill:#FFFFFF;}
	.st6{fill:#9B191E;}
	.st7{fill:#E99F2E;}
	.st8{fill:#D4870C;}
	.st9{fill:#9E191F;}
	.st10{fill:#C91517;}
	.st11{fill:#BE1919;}
	.st12{fill:#E6332A;}
	.st13{fill:#005F2D;}
	.st14{fill:#008639;}
	.st15{fill:#3AAA35;}
	.st16{fill:#00983B;}
	.st17{fill:#A81A17;}
	.st18{fill:#C7D6E1;}
	.st19{fill:#2CA949;}
	.st20{fill:#68B659;}
	.st21{fill:#CE8837;}
	.st22{fill:#8FAFD3;}
	.st23{fill:#878787;}
	.st24{fill:#936037;}
	.st25{fill:#A86D3E;}
	.st26{fill:#432918;}
	.st27{fill:#F6F6F6;}
	.st28{fill:#DB0D15;}
	.st29{fill:#683C11;}
	.st30{fill:#1D71B8;}
	.st31{fill:#29235C;}
	.st32{fill:#575756;}
	.st33{fill:#00A19A;}
	.st34{fill:#EDEDED;}
	.st35{fill:#2C8AB8;}
	.st36{fill:#B2B2B2;}
	.st37{fill:#C6C6C6;}
	.st38{fill:#2FAC66;}
	.st39{fill:#999999;}
	.st40{fill:#E68787;}
	.st41{fill:#95C11F;}
	.st42{fill:#F8C3C4;}
	.st43{fill:#EA5055;}
	.st44{fill:#C69B6A;}
	.st45{fill:#C29560;}
	.st46{fill:#CBBBA0;}
	.st47{fill:#CBB0A0;}
	.st48{fill:#EF7D81;}
	.st49{fill:#DCC2A4;}
	.st50{fill:#AE7A3E;}
	.st51{fill:#006633;}
	.st52{fill:#ABD194;}
	.st53{fill:#57B144;}
	.st54{fill:#B08048;}
	.st55{fill:#FDD5A8;}
	.st56{fill:#D41A27;}
	.st57{fill:#7B6A58;}
	.st58{fill:#FBDDDE;}
	.st59{fill:#D71927;}
	.st60{fill:#AE1921;}
	.st61{fill:#C49064;}
	.st62{fill:#D71016;}
	.st63{fill:#C11717;}
	.st64{fill:#E30613;}
	.st65{fill:#D61116;}
	.st66{fill:#CB1518;}
	.st67{fill:#BB1918;}
	.st68{fill:#A1191F;}
	.st69{fill:#4D3D34;}
	.st70{fill:#C8A5CE;}
	.st71{fill:#951B81;}
	.st72{fill:#2985BB;}
	.st73{fill:#448DC0;}
	.st74{fill:#007BB4;}
	.st75{fill:#4A94D0;}
	.st76{fill:#3A8FCD;}
	.st77{fill:#258ACA;}
	.st78{fill:#739AC0;}
	.st79{fill:#B11918;}
	.st80{fill:#E6C6A4;}
	.st81{fill:#F1E0CE;}
	.st82{fill:#42352C;}
	.st83{fill:#A08A7E;}
	.st84{fill:#B9B8B9;}
	.st85{fill:#A3A2A3;}
	.st86{fill:#D9D8D9;}
	.st87{fill:#CDCBCC;}
	.st88{fill:#80A1C5;}
	.st89{fill:#6391BA;}
</style>
<g>
	<g>
		<g>
			<path d="M247.7,364.4c-7.1-9.7-9.4-13.6-9.4-13.6s-0.3-42-0.3-54.3c-1.3,0-2.5,0-3.8,0c-0.6,6.6-0.5,46.4-0.5,54.3
				c0,0-15.6,23.7-5.3,14.2c1.7-1.6,3.1-3.5,5.3-4.8c0.6,0.9,2.1,6.4,3.4,6.9c1.9,0.7,1.3-5.5,1.9-6.9c1.6,0.7,7.9,6.3,8.9,5.7
				C248.6,365.5,248.1,364.9,247.7,364.4z"/>
			<path d="M187.5,350.8c0,0-0.3-42-0.3-54.3c-1.3,0-2.5,0-3.8,0c-0.6,6.6-0.5,46.4-0.5,54.3c0,0-15.6,23.7-5.3,14.2
				c1.7-1.6,3.1-3.5,5.3-4.8c0.6,0.9,2.1,6.4,3.4,6.9c1.9,0.7,1.3-5.5,1.9-6.9c1.6,0.7,7.9,6.3,8.9,5.7c0.6-0.4,0.1-1.1-0.3-1.5
				C189.9,354.7,187.5,350.8,187.5,350.8z"/>
		</g>
		<g>
			<path class="st42" d="M320,280.6c-57.8,58.8-196.5,85.2-196.5-89.9c0-147.4,144.4-154.6,144.4-7.2
				C267.8,301.9,320,280.6,320,280.6z"/>
			<path class="st43" d="M173.2,260.9c-7.1-35.6-37.8-54.2-49.6-60.2c1.7,52.3,16.4,85.2,37.7,104
				C170.3,292.8,176.6,278,173.2,260.9z"/>
			<path class="st43" d="M245.3,230.9c-3.1,56.8,37.9,54.1,56.9,49.8c-14.1-4.5-31.9-22.4-34.2-83.3
				C259.1,201.9,246.4,211.5,245.3,230.9z"/>
		</g>
		<g>
			<g>
				<path d="M171.8,118.5c-7.5,0-13.5,7.5-13.5,16.6c0,13.6,6.1,16.6,13.5,16.6c9.8,0,12.8-7.5,13.5-16.6
					C186.1,124.5,179.2,118.5,171.8,118.5z"/>
				<circle class="st5" cx="175.1" cy="143.1" r="3.3"/>
				<path class="st5" d="M168.3,139.5c-2.7,0-4.9-2.6-4.9-5.8s2.2-5.8,4.9-5.8s4.9,2.6,4.9,5.8S171,139.5,168.3,139.5z"/>
			</g>
			<g>
				<path d="M220.7,118.5c-7.5,0-13.5,7.5-13.5,16.6c0,13.6,6.1,16.6,13.5,16.6c9.8,0,12.8-7.5,13.5-16.6
					C235,124.5,228.1,118.5,220.7,118.5z"/>
				<circle class="st5" cx="224" cy="143.1" r="3.3"/>
				<path class="st5" d="M217.2,139.5c-2.7,0-4.9-2.6-4.9-5.8s2.2-5.8,4.9-5.8c2.7,0,4.9,2.6,4.9,5.8S219.9,139.5,217.2,139.5z"/>
			</g>
		</g>
		<path class="st43" d="M203,154.2c-0.6,0-11.9,0-11.9,0c-8.7,0,3.5,13.1,5.7,13.1C199.2,167.3,208,154.2,203,154.2z"/>
	</g>
	<g>
		<g>
			<g>
				<path d="M136.6,118.2c6.7-20.6,22.6-37.5,43.3-44.5c19.3-6.5,41.1-3.4,56.3,10.6c10.4,9.6,16.4,22.6,19.7,36.2
					c0.8,3.5,6.2,2,5.3-1.5C255.4,94.8,240.1,73,215,66.7c-21.7-5.5-44.9,1.6-61.6,16c-10.4,9-17.9,20.9-22.2,34
					C130.1,120.1,135.5,121.5,136.6,118.2L136.6,118.2z"/>
			</g>
			<g>
				<path class="st0" d="M266.5,153.9c3.3,4,9.1,2.1,9.7-3.2c4.7,1.4,7.8-4.8,4.5-8.8c1.5-1.3,2-4.1,0.9-6.7c2-1.7,1.8-4.7-0.4-6.1
					c1.3-3,0.1-6.8-2.7-8.3c2.3-6-4.3-11.7-8.7-7.7c-2-5.8-9-6.8-11.8-1.7c-4.1-7.3-13.9-2.2-11.1,5.9c-4.9-1.3-6.8,6.6-2.1,8.7
					c-1.4,1.7-1.3,4.5,0.3,6.2c-3.5,2-1.5,8.1,2.4,7.5c-4,5,0.4,13.2,6.4,11.8C253.6,160.4,265.2,162.4,266.5,153.9z"/>
				<path class="st0" d="M126,153.9c-3.3,4-9.1,2.1-9.7-3.2c-4.7,1.4-7.8-4.8-4.5-8.8c-1.5-1.3-2-4.1-0.9-6.7
					c-2-1.7-1.8-4.7,0.4-6.1c-1.3-3-0.1-6.8,2.7-8.3c-2.3-6,4.3-11.7,8.7-7.7c2-5.8,9-6.8,11.8-1.7c4.1-7.3,13.9-2.2,11.1,5.9
					c4.9-1.3,6.8,6.6,2.1,8.7c1.4,1.7,1.3,4.5-0.3,6.2c3.5,2,1.5,8.1-2.4,7.5c4,5-0.4,13.2-6.4,11.8
					C138.9,160.4,127.3,162.4,126,153.9z"/>
			</g>
		</g>
		<g>
			<g>
				<path class="st0" d="M236.3,276.1c7.8-0.8,15.3-4.2,20.9-9.7c-22-2.1-38.5-11-40.9-37.8c-0.6-6.3-0.2-11.9,0.7-17.1h-30.9
					c0,42.4,30.2,89.4,64.9,79.9C245.3,287.1,240.4,281.9,236.3,276.1z"/>
			</g>
			<path class="st44" d="M274.6,194.7c-3.1-2.7-18.3-1.4-24.8-1.3c-143,2.1-136.6-4.6-132.3,27.5c1,7.5,147.8,1.3,156.8,0.2
				C278.7,220.6,275.9,195.9,274.6,194.7z"/>
			<g>
				<path class="st45" d="M184,194.2c-0.8-4.8,3.6-9.4,8.4-9.8c22.9-1.9,13.4,86.5,81.8,96.4c18,2.6,37.7-4.3,48.3-19.2
					c-7.1,0.3-14.2-0.6-21-2.6c5.6-5.5,9.2-13,10.1-20.7c-18.4,12.3-36.8,15.9-55.6-3.4c-25.6-26.2-13.7-55.7-39.6-52.9
					c-18.8,2-34.3-4.8-34.3,12.6"/>
			</g>
			<g>
				<path class="st0" d="M192.4,184.4c4.9-0.4,8.3,3.3,11.3,9.5c-7.1,0-13.7,0.1-19.8,0.1C183.4,189.3,187.7,184.8,192.4,184.4z"/>
			</g>
		</g>
	</g>
</g>
</svg>
